<?xml version="1.0" standalone="no"?>
<!DOCTYPE svg PUBLIC "-//W3C//DTD SVG 1.1//EN" "http://www.w3.org/Graphics/SVG/1.1/DTD/svg11.dtd" >
<svg>
<metadata>
Created by FontForge 20090622 at Fri Aug 28 09:41:43 2015
 By deploy user
Geneva Roman is a product of MicroLogic Software, Inc.
</metadata>
<defs>
<font id="Geneva-Roman" horiz-adv-x="1020" >
  <font-face 
    font-family="Geneva"
    font-weight="400"
    font-stretch="normal"
    units-per-em="2048"
    panose-1="2 11 6 0 0 0 0 2 0 0"
    ascent="1638"
    descent="-410"
    x-height="1062"
    cap-height="1459"
    bbox="-337 -483 2503 1955"
    underline-thickness="150"
    underline-position="-227"
    unicode-range="U+0020-U+25CA"
  />
<missing-glyph horiz-adv-x="1372" 
d="M1200 1193v-1032h-1032v1032h1032zM258 1107v-860h852v860h-852z" />
    <glyph glyph-name=".notdef" horiz-adv-x="1372" 
d="M1200 1193v-1032h-1032v1032h1032zM258 1107v-860h852v860h-852z" />
    <glyph glyph-name="glyph1" horiz-adv-x="0" 
 />
    <glyph glyph-name="space" unicode=" " horiz-adv-x="561" 
 />
    <glyph glyph-name="space" unicode="&#xa0;" horiz-adv-x="561" 
 />
    <glyph glyph-name="logicalnot" unicode="&#xac;" horiz-adv-x="1700" 
d="M1446 849v-496h-135v361h-1057v135h1192z" />
    <glyph glyph-name="logicalnot" horiz-adv-x="1700" 
d="M1446 849v-496h-135v361h-1057v135h1192z" />
    <glyph glyph-name="pi" unicode="&#x3c0;" horiz-adv-x="1200" 
d="M-30 775q25 142 84 214.5t245 72.5h885l-33 -156h-180l-56.5 -243.5l-45 -200.5t-29 -148.5t-9.5 -87.5q1 -60 32 -81.5t83 -20.5l90 8l-28 -132q-31 -8 -60 -11.5t-51 -4.5q-69 -4 -150 32t-88 173q-2 41 6.5 98.5t26 140.5l44 201l63.5 277h-336l-189 -906h-180
l197 906q-96 1 -123.5 -30t-44.5 -101h-153z" />
    <glyph glyph-name="Sigma" unicode="&#x2211;" horiz-adv-x="1208" 
d="M94 1459h1045v-176h-779l517 -528l-553 -578h831v-177h-1094v153l578 602l-545 549v155z" />
    <glyph glyph-name="Omega" unicode="&#x2126;" horiz-adv-x="1556" 
d="M774 1332q-175 2 -322.5 -122t-156.5 -402q2 -219 102.5 -380.5t274.5 -254.5v-173h-594v173h323q-129 96 -216.5 254t-90.5 365q12 369 219 539.5t461 168.5q255 2 461.5 -168.5t218.5 -539.5q-3 -207 -90.5 -365t-216.5 -254h323v-173h-593v173q174 93 274 254.5
t102 380.5q-9 278 -156.5 402t-322.5 122z" />
    <glyph glyph-name="infinity" unicode="&#x221e;" horiz-adv-x="1700" 
d="M520 988q138 -9 214 -103.5t106 -162.5q38 95 119.5 179.5t195.5 90.5q133 -2 226.5 -106t97.5 -287q0 -147 -75.5 -261t-219.5 -120q-134 8 -211 97.5t-113 164.5q-42 -95 -118 -178t-201 -88q-125 3 -220 110.5t-100 282.5q-1 137 72.5 255t226.5 126zM295 595
q1 -103 55 -169.5t150 -68.5q102 3 169.5 84.5t121.5 210.5q-35 79 -100.5 129t-158.5 52q-103 -1 -169 -65t-68 -173zM1200 845q-122 -9 -190.5 -110.5t-100.5 -184.5q38 -68 97 -122.5t170 -57.5q100 1 163.5 64t65.5 177q-1 107 -55 170t-150 64z" />
    <glyph glyph-name="greaterequal" unicode="&#x2265;" horiz-adv-x="1700" 
d="M1438 153v-136h-1176v136h1176zM262 1193l1176 -393v-115l-1176 -393v143l938 307l-938 308v143z" />
    <glyph glyph-name="lessequal" unicode="&#x2264;" horiz-adv-x="1704" 
d="M1438 1193v-143l-938 -308l938 -307v-143l-1176 393v115zM262 153h1176v-136h-1176v136z" />
    <glyph glyph-name="divide" unicode="&#xf7;" horiz-adv-x="1700" 
d="M254 669h1188v-135h-1188v135zM725 968q2 50 37 85.5t86 37.5q50 -2 85.5 -37.5t37.5 -85.5q-2 -51 -37.5 -86t-85.5 -37q-51 2 -86 37t-37 86zM725 235q2 50 37 85t86 37q50 -2 85.5 -37t37.5 -85q-2 -51 -37.5 -86t-85.5 -37q-51 2 -86 37t-37 86z" />
    <glyph glyph-name="exclam" unicode="!" horiz-adv-x="655" 
d="M373 353h-99l-49 615v491h197v-491zM422 0h-197v214h197v-214z" />
    <glyph glyph-name="quotedbl" unicode="&#x22;" horiz-adv-x="610" 
d="M385 1422h135v-549h-135v549zM90 1422h135v-549h-135v549z" />
    <glyph glyph-name="numbersign" unicode="#" horiz-adv-x="1569" 
d="M606 587h262l95 262h-263zM754 1447h159l-159 -455h262l160 455h163l-163 -455h303l-54 -143h-299l-94 -262h320l-49 -144h-324l-160 -447h-160l160 447h-262l-164 -447h-155l159 447h-311l49 144h311l95 262h-332l53 143h332z" />
    <glyph glyph-name="dollar" unicode="$" horiz-adv-x="1118" 
d="M606 796q227 -43 337 -135t110 -279q-4 -182 -128 -296t-319 -119v-188h-102v188q-216 6 -329 122t-114 281v57h172q0 -135 66.5 -221.5t204.5 -89.5v524q-185 30 -298 114t-116 271q1 156 108.5 271.5t305.5 121.5v131h102v-131q173 -5 289 -105t121 -231v-41h-172
q0 76 -60.5 146.5t-177.5 75.5v-467zM262 1046q-1 -105 55 -155.5t187 -78.5v451q-115 -2 -178 -64t-64 -153zM606 611v-495q130 2 198 73.5t68 184.5q0 95 -67 152.5t-199 84.5z" />
    <glyph glyph-name="percent" unicode="%" horiz-adv-x="1724" 
d="M1360 1422l-877 -1463h-123l877 1463h123zM774 1037q-5 -168 -107.5 -263t-236.5 -97q-135 0 -244.5 88t-115.5 268q8 181 121 265t235 83t231.5 -89t116.5 -255zM631 1037q-2 83 -60.5 140.5t-152.5 60.5q-94 -3 -149 -64.5t-56 -144.5q1 -83 55.5 -144.5t153.5 -64.5
q99 4 153.5 69t55.5 148zM1507 357q-2 83 -60.5 140.5t-152.5 60.5q-93 -3 -148 -64.5t-56 -144.5q1 -83 55 -144.5t153 -64.5q100 4 154 69t55 148zM1651 357q-5 -167 -107.5 -261t-236.5 -96q-135 0 -245 86.5t-116 266.5q8 181 121.5 265t235.5 83q121 -1 230.5 -89
t117.5 -255z" />
    <glyph glyph-name="ampersand" unicode="&#x26;" horiz-adv-x="1393" 
d="M553 -37q-219 5 -330.5 126t-111.5 309q3 147 97 253.5t247 185.5q-73 76 -118 159t-46 181q-1 122 82.5 219.5t269.5 103.5q188 -6 267 -103.5t77 -219.5q0 -100 -70 -200t-208 -173l278 -340q34 62 50 123.5t16 122.5h168q-1 -112 -31.5 -210.5t-83.5 -170.5l274 -333
h-237l-148 177q-66 -86 -179.5 -146t-262.5 -64zM897 300l-348 422q-94 -51 -171.5 -125t-82.5 -195q0 -97 65 -182.5t197 -91.5q123 3 208.5 55t131.5 117zM639 1357q-95 -3 -138 -57.5t-42 -122.5q3 -77 51.5 -145.5t103.5 -129.5q91 52 149 120.5t60 154.5
q0 73 -44.5 125.5t-139.5 54.5z" />
    <glyph glyph-name="quoteright" unicode="&#x2019;" horiz-adv-x="512" 
d="M254 1259h-98v200h196v-192q0 -143 -49 -211t-147 -84v90q46 -2 72 43t26 154z" />
    <glyph glyph-name="parenleft" unicode="(" horiz-adv-x="684" 
d="M201 493q0 190 29.5 334.5t77.5 257t105.5 206.5l114.5 181h127q-138 -234 -208 -462t-70 -517q1 -244 73 -465t205 -450h-127q-136 186 -229.5 415t-97.5 500z" />
    <glyph glyph-name="parenright" unicode=")" horiz-adv-x="684" 
d="M479 493q-4 -271 -97.5 -500t-229.5 -415h-127q133 229 205 450t73 465q0 289 -70 517t-208 462h127l112.5 -181t105.5 -206.5t77.5 -257t31.5 -334.5z" />
    <glyph glyph-name="asterisk" unicode="*" 
d="M197 783l196 246l-287 78l50 156l270 -95v291h156v-295l274 99l53 -152l-286 -82l192 -242l-131 -98l-176 258l-180 -258z" />
    <glyph glyph-name="plus" unicode="+" horiz-adv-x="1700" 
d="M1446 673v-135h-528v-538h-136v538h-528v135h528v536h136v-536h528z" />
    <glyph glyph-name="comma" unicode="," horiz-adv-x="557" 
d="M176 -303v106q55 3 80.5 58t22.5 139h-103v214h201v-192q3 -101 -37.5 -199t-163.5 -126z" />
    <glyph glyph-name="hyphen" unicode="-" horiz-adv-x="639" 
d="M74 611h487v-155h-487v155z" />
    <glyph glyph-name="hyphen" unicode="&#xad;" horiz-adv-x="639" 
d="M74 611h487v-155h-487v155z" />
    <glyph glyph-name="period" unicode="." horiz-adv-x="557" 
d="M377 0h-201v214h201v-214z" />
    <glyph glyph-name="slash" unicode="/" horiz-adv-x="614" 
d="M492 1500h122l-495 -1688h-119z" />
    <glyph glyph-name="zero" unicode="0" horiz-adv-x="1118" 
d="M262 685q3 -336 86 -452.5t209 -108.5q126 -8 209 109.5t86 451.5q-3 334 -86 455t-209 114q-126 8 -209 -111t-86 -458zM549 1418q192 10 339.5 -145t155.5 -588q-8 -432 -156.5 -581.5t-338.5 -140.5q-189 -8 -330.5 146.5t-148.5 575.5q7 423 147.5 582t331.5 151z
" />
    <glyph glyph-name="one" unicode="1" horiz-adv-x="1118" 
d="M709 0h-185v1005h-327v139q193 4 283 83.5t89 190.5h140v-1418z" />
    <glyph glyph-name="two" unicode="2" horiz-adv-x="1118" 
d="M94 910q1 239 121.5 372.5t345.5 135.5q237 -6 354 -128.5t117 -284.5q-6 -193 -108.5 -298.5t-242.5 -173t-259 -146.5t-156 -218h766v-169h-971q5 255 120.5 388t268 210t268.5 160t122 238q0 105 -70.5 180t-208.5 78q-128 1 -206.5 -82.5t-80.5 -261.5h-180z" />
    <glyph glyph-name="three" unicode="3" horiz-adv-x="1118" 
d="M45 435h184q0 -132 75 -220t228 -91q135 1 218.5 71t85.5 191q0 125 -71 197t-212 73h-119v152h90q138 0 198.5 59.5t59.5 173.5q1 91 -59 151t-195 62q-140 -3 -205.5 -87t-64.5 -216h-180q-2 191 106 326t348 141q219 -3 331 -106t112 -266q1 -106 -45 -182.5
t-144 -108.5q118 -37 180 -126t62 -231q-3 -207 -141 -320t-371 -115q-226 6 -348 137t-123 335z" />
    <glyph glyph-name="four" unicode="4" horiz-adv-x="1118" 
d="M672 1148l-459 -639h459v639zM852 1377v-868h201v-160h-201v-349h-180v349h-623v180l619 848h184z" />
    <glyph glyph-name="five" unicode="5" horiz-adv-x="1118" 
d="M262 636h-168l111 741h753v-164h-618l-57 -380q46 38 114.5 63.5t163.5 26.5q221 -4 347 -132.5t128 -334.5q4 -176 -113.5 -329t-402.5 -164q-214 8 -339 129.5t-128 273.5h189q1 -87 75 -158.5t215 -75.5q141 2 225.5 88t86.5 236q-1 132 -83.5 218t-228.5 89
q-93 -1 -164 -34.5t-106 -92.5z" />
    <glyph glyph-name="six" unicode="6" horiz-adv-x="1118" 
d="M610 1418q223 -7 329 -125.5t105 -263.5h-184q0 95 -65 158.5t-197 66.5q-184 -10 -255.5 -169.5t-68.5 -342.5q50 66 134.5 108.5t201.5 43.5q235 -8 342 -147t105 -316q-1 -201 -123.5 -331.5t-351.5 -136.5q-296 10 -407 203.5t-105 469.5q-5 288 114 527.5t426 254.5
zM578 730q-147 -4 -219 -92t-72 -215q1 -135 76 -219.5t215 -87.5q136 3 210.5 90t75.5 225q0 129 -72.5 212.5t-213.5 86.5z" />
    <glyph glyph-name="seven" unicode="7" horiz-adv-x="1118" 
d="M1049 1205q-268 -288 -400.5 -587t-169.5 -618h-200q47 354 186 637t395 560h-778v180h967v-172z" />
    <glyph glyph-name="eight" unicode="8" horiz-adv-x="1118" 
d="M557 669q-144 -1 -219.5 -75t-75.5 -204q1 -118 78.5 -191t216.5 -75q150 3 222.5 80.5t72.5 193.5q0 119 -75 194t-220 77zM557 1418q213 -3 325 -104.5t113 -267.5q-1 -116 -53 -184.5t-139 -106.5q104 -30 171.5 -115.5t69.5 -241.5q0 -188 -120.5 -309t-366.5 -126
q-246 5 -366.5 126t-120.5 309q2 147 66.5 234.5t170.5 126.5q-90 37 -138.5 109.5t-49.5 177.5q1 166 114.5 267.5t323.5 104.5zM307 1046q1 -106 66.5 -169t183.5 -65q126 2 188 66.5t62 171.5q-1 94 -68.5 150.5t-185.5 58.5q-109 -1 -176.5 -57.5t-69.5 -155.5z" />
    <glyph glyph-name="nine" unicode="9" horiz-adv-x="1118" 
d="M1044 742q5 -288 -113.5 -525.5t-426.5 -253.5q-223 8 -329 124.5t-105 261.5h184q0 -95 65 -160.5t197 -68.5q184 11 255.5 172t68.5 344q-50 -66 -134.5 -110t-201.5 -46q-235 8 -342 149t-105 318q1 201 123.5 333.5t351.5 137.5q296 -9 407 -204t105 -472zM537 644
q147 4 218.5 94.5t71.5 216.5q-1 135 -76 220t-214 88q-137 -3 -211.5 -90.5t-75.5 -225.5q0 -129 72.5 -214.5t214.5 -88.5z" />
    <glyph glyph-name="colon" unicode=":" horiz-adv-x="606" 
d="M201 0v214h200v-214h-200zM401 845h-200v217h200v-217z" />
    <glyph glyph-name="semicolon" unicode=";" horiz-adv-x="606" 
d="M401 845h-200v217h200v-217zM201 0v214h200v-267q-2 -81 -58.5 -158t-141.5 -92v98q63 18 83.5 73t18.5 132h-102z" />
    <glyph glyph-name="less" unicode="&#x3c;" horiz-adv-x="1700" 
d="M262 538v131l1168 479v-152l-971 -393l971 -393v-152z" />
    <glyph glyph-name="equal" unicode="=" horiz-adv-x="1700" 
d="M1442 730h-1188v135h1188v-135zM1442 337h-1188v135h1188v-135z" />
    <glyph glyph-name="greater" unicode="&#x3e;" horiz-adv-x="1700" 
d="M266 58v152l971 393l-971 393v152l1168 -479v-131z" />
    <glyph glyph-name="question" unicode="?" horiz-adv-x="1073" 
d="M74 1021q-1 218 106.5 347t339.5 132q228 -5 330 -117t100 -268q-4 -129 -57 -210t-124 -140t-124 -126t-55 -167v-78h-176v66q2 133 53 214t118.5 141.5t120 128t56.5 171.5q1 90 -56.5 158t-185.5 72q-157 -6 -215 -105t-55 -219h-176zM410 214h196v-214h-196v214z" />
    <glyph glyph-name="at" unicode="@" horiz-adv-x="2040" 
d="M1098 304q32 24 64.5 97t82.5 309q2 36 -41.5 104t-154.5 76q-177 -12 -253.5 -163t-74.5 -304q1 -96 52.5 -148t144.5 -53q49 0 94 21t86 61zM1368 116q-100 -1 -144.5 40.5t-43.5 135.5q-44 -70 -114.5 -121.5t-197.5 -54.5q-161 3 -232.5 95.5t-70.5 240.5
q1 203 122.5 366.5t352.5 173.5q93 -2 155.5 -45.5t82.5 -109.5l61 123h123l-60 -232.5l-48.5 -191.5t-31.5 -137.5t-11 -69.5q1 -44 25.5 -69t64.5 -25q175 9 282.5 169t110.5 363q-5 251 -194.5 405.5t-501.5 159.5q-394 -11 -620.5 -246t-231.5 -557q7 -359 228 -534
t566 -175q184 4 341 60.5t261 124.5l54 -75q-114 -85 -282.5 -151t-389.5 -70q-428 8 -671 229t-247 575q7 395 275 661t709 277q389 -6 613.5 -195.5t229.5 -484.5q4 -202 -127 -419.5t-438 -235.5z" />
    <glyph glyph-name="A" unicode="A" horiz-adv-x="1298" 
d="M193 0h-198l542 1459h217l544 -1459h-217l-151 435h-578zM647 1259l-237 -656h462z" />
    <glyph glyph-name="B" unicode="B" horiz-adv-x="1352" 
d="M352 169h426q147 3 219 76t72 186q1 107 -68.5 179t-222.5 75h-426v-516zM156 0v1459h614q226 -2 329 -95.5t101 -252.5q-2 -130 -61 -213.5t-148 -114.5q147 -27 213.5 -127.5t65.5 -232.5q-4 -190 -132.5 -305t-334.5 -118h-647zM352 841h385q135 1 201 64.5t66 172.5
q1 100 -64 159.5t-203 61.5h-385v-458z" />
    <glyph glyph-name="C" unicode="C" horiz-adv-x="1454" 
d="M782 1324q-280 -10 -386 -189t-101 -413q0 -233 115 -405t352 -181q233 11 329 146t93 260h188q-3 -230 -165 -399.5t-453 -179.5q-342 12 -502 237.5t-158 537.5q-3 303 160.5 527t523.5 235q273 -9 426 -153.5t156 -321.5h-189q4 59 -82 172.5t-307 126.5z" />
    <glyph glyph-name="D" unicode="D" horiz-adv-x="1442" 
d="M352 173h353q234 5 337 161.5t101 403.5q2 240 -102.5 395.5t-335.5 161.5h-353v-1122zM156 0v1459h561q346 -9 488.5 -211t137.5 -493q0 -332 -158 -540t-468 -215h-561z" />
    <glyph glyph-name="E" unicode="E" horiz-adv-x="1303" 
d="M1200 1459v-180h-848v-442h783v-164h-783v-496h865v-177h-1061v1459h1044z" />
    <glyph glyph-name="F" unicode="F" horiz-adv-x="1188" 
d="M352 665v-665h-196v1459h979v-180h-783v-442h684v-172h-684z" />
    <glyph glyph-name="G" unicode="G" horiz-adv-x="1556" 
d="M295 722q-1 -233 116 -405t371 -181q195 -1 324.5 118t134.5 370h-455v159h631v-782h-123l-45 188q-68 -84 -186 -152.5t-281 -73.5q-360 11 -525 236t-163 539q-1 309 171 530.5t534 231.5q298 -11 446 -164t148 -315h-189q3 76 -88.5 188t-312.5 123q-277 -7 -394 -182
t-114 -428z" />
    <glyph glyph-name="H" unicode="H" horiz-adv-x="1475" 
d="M352 685v-685h-196v1459h196v-602h766v602h197v-1459h-197v685h-766z" />
    <glyph glyph-name="I" unicode="I" horiz-adv-x="528" 
d="M360 0h-196v1459h196v-1459z" />
    <glyph glyph-name="J" unicode="J" horiz-adv-x="1028" 
d="M688 1459h197v-1098q3 -173 -96.5 -283t-333.5 -115q-238 9 -328 132t-86 266v107h188v-90q-2 -109 51 -176.5t183 -69.5q116 2 170.5 65.5t54.5 163.5v1098z" />
    <glyph glyph-name="K" unicode="K" horiz-adv-x="1303" 
d="M352 751l713 708h254l-594 -581l610 -878h-237l-520 734l-226 -221v-513h-196v1459h196v-708z" />
    <glyph glyph-name="L" unicode="L" horiz-adv-x="1090" 
d="M352 177h733v-177h-929v1459h196v-1282z" />
    <glyph glyph-name="M" unicode="M" horiz-adv-x="1692" 
d="M156 1459h282l398 -1229l417 1229h279v-1459h-189v1230l-417 -1230h-185l-405 1242v-1242h-180v1459z" />
    <glyph glyph-name="N" unicode="N" horiz-adv-x="1470" 
d="M1126 284v1175h185v-1459h-213l-758 1168v-1168h-184v1459h213z" />
    <glyph glyph-name="O" unicode="O" horiz-adv-x="1577" 
d="M295 730q-1 -258 116 -427t371 -175q254 6 375.5 174.5t120.5 423.5q1 256 -120 427.5t-372 178.5q-251 -6 -371.5 -175t-119.5 -427zM791 1500q336 -5 511.5 -213.5t176.5 -560.5q-2 -352 -181.5 -555t-519.5 -208q-338 6 -510.5 214t-173.5 557q2 349 181 555t516 211z
" />
    <glyph glyph-name="P" unicode="P" horiz-adv-x="1286" 
d="M778 620h-426v-620h-196v1459h622q207 -2 316 -113t110 -309q-3 -195 -119 -305t-307 -112zM352 1287v-495h410q120 2 181 69t61 176q-1 121 -64.5 185t-177.5 65h-410z" />
    <glyph glyph-name="Q" unicode="Q" horiz-adv-x="1577" 
d="M295 730q0 -263 121 -430t366 -172q56 -1 114 11t108 42l-164 131l98 123l197 -160q59 54 100 171t43 284q1 248 -118 421t-369 181q-251 -5 -373.5 -172t-122.5 -430zM1466 5l-98 -120l-209 169q-59 -41 -153.5 -65t-223.5 -26q-338 6 -512.5 212.5t-175.5 558.5
q2 354 181 558t516 208q336 -6 511.5 -214t176.5 -552q-3 -213 -61 -364t-132 -217z" />
    <glyph glyph-name="R" unicode="R" horiz-adv-x="1356" 
d="M754 624h-402v-624h-196v1459h622q209 0 330.5 -102t124.5 -299q-1 -131 -54 -211t-143 -125q109 -33 140.5 -126t29.5 -208t6.5 -212t69.5 -138v-38h-221q-47 110 -49 219.5t-5 200.5t-54.5 147.5t-198.5 56.5zM352 1291v-499h410q138 2 204 71t66 178q1 121 -64.5 185
t-205.5 65h-410z" />
    <glyph glyph-name="S" unicode="S" horiz-adv-x="1319" 
d="M668 -37q-291 6 -433 148.5t-141 368.5h185q4 -178 114.5 -265t282.5 -87q159 1 254.5 73t97.5 206q-8 137 -140 185t-306 80t-305.5 113.5t-137.5 284.5q1 175 132.5 299.5t387.5 130.5q267 -6 394.5 -142.5t126.5 -324.5h-189q1 119 -82 208.5t-266 94.5
q-157 -2 -238 -70t-81 -184q6 -129 138 -175t307 -76.5t309 -115.5t143 -296q-2 -209 -147.5 -330.5t-405.5 -125.5z" />
    <glyph glyph-name="T" unicode="T" horiz-adv-x="1163" 
d="M1143 1287h-463v-1287h-197v1287h-463v172h1123v-172z" />
    <glyph glyph-name="U" unicode="U" horiz-adv-x="1446" 
d="M1098 1459h196v-946q2 -231 -141.5 -387t-452.5 -163q-300 8 -428 165t-125 385v946h197v-946q1 -173 93.5 -268t271.5 -96q218 4 305 111t84 274v925z" />
    <glyph glyph-name="V" unicode="V" horiz-adv-x="1245" 
d="M201 1459l422 -1237l413 1237h205l-516 -1459h-205l-520 1459h201z" />
    <glyph glyph-name="W" unicode="W" horiz-adv-x="1843" 
d="M500 280l311 1179h205l319 -1167l312 1167h184l-389 -1459h-193l-336 1213l-327 -1213h-197l-381 1459h193z" />
    <glyph glyph-name="X" unicode="X" horiz-adv-x="1237" 
d="M979 1459h225l-475 -717l500 -742h-242l-373 591l-376 -591h-238l500 742l-471 717h237l352 -536z" />
    <glyph glyph-name="Y" unicode="Y" horiz-adv-x="1233" 
d="M721 0h-197v587l-537 872h242l394 -696l389 696h116.5h116.5l-524 -860v-599z" />
    <glyph glyph-name="Z" unicode="Z" horiz-adv-x="1221" 
d="M119 1291v168h1061v-180l-881 -1106h881v-173h-1123v161l897 1130h-835z" />
    <glyph glyph-name="bracketleft" unicode="[" horiz-adv-x="721" 
d="M246 1459h393v-131h-217v-1607h217v-131h-393v1869z" />
    <glyph glyph-name="backslash" unicode="\" horiz-adv-x="614" 
d="M492 -188l-492 1688h119l495 -1688h-122z" />
    <glyph glyph-name="bracketright" unicode="]" horiz-adv-x="721" 
d="M471 1459v-1869h-393v131h217v1607h-217v131h393z" />
    <glyph glyph-name="asciicircum" unicode="^" horiz-adv-x="2040" 
d="M1016 1312l-422 -418h-176l508 553h180l508 -553h-176z" />
    <glyph glyph-name="underscore" unicode="_" 
d="M0 -483v139h1016v-139h-1016z" />
    <glyph glyph-name="quoteleft" unicode="&#x2018;" horiz-adv-x="512" 
d="M250 1209h102v-200h-196v274q1 73 53.5 135t142.5 82v-90q-65 -22 -84.5 -64t-17.5 -137z" />
    <glyph glyph-name="a" unicode="a" horiz-adv-x="1106" 
d="M778 722v90q-1 45 -63 84.5t-170 42.5q-138 0 -198.5 -50.5t-59.5 -146.5h-168q0 149 102.5 249t310.5 104q215 -2 319 -79.5t103 -211.5v-615q1 -34 21.5 -49.5t52.5 -15.5l49 8v-132q-25 -8 -54 -13.5t-60 -6.5q-86 1 -129 40t-43 116q-49 -51 -136.5 -107t-253.5 -62
q-187 7 -258.5 107.5t-68.5 217.5q4 172 108.5 240.5t242.5 85l242.5 30t110.5 74.5zM778 390v152q-84 -33 -175 -44.5t-172 -23.5t-131 -51t-50 -127q-1 -84 46.5 -129.5t154.5 -46.5q109 -3 214 56.5t113 213.5z" />
    <glyph glyph-name="b" unicode="b" horiz-adv-x="1212" 
d="M315 1459v-553q43 77 129 131.5t215 57.5q242 -9 355 -175.5t112 -381.5q-1 -256 -122 -411t-349 -160q-121 3 -211 50.5t-129 122.5v-140h-172v1459h172zM307 529q-2 -171 71.5 -287.5t244.5 -121.5q170 4 245.5 120t73.5 289q1 171 -76 288t-248 122
q-172 -4 -242.5 -120t-68.5 -290z" />
    <glyph glyph-name="c" unicode="c" horiz-adv-x="1073" 
d="M1024 378q-1 -168 -121.5 -286.5t-345.5 -124.5q-255 9 -366.5 171.5t-108.5 390.5q0 243 121 401.5t366 164.5q198 -3 322.5 -107t128.5 -278h-172q2 81 -61 152.5t-209 76.5q-178 -6 -246.5 -126.5t-65.5 -283.5q-3 -162 63.5 -280.5t235.5 -124.5q163 8 226.5 96
t60.5 158h172z" />
    <glyph glyph-name="d" unicode="d" horiz-adv-x="1208" 
d="M1061 1459v-1459h-168v140q-50 -67 -135 -118t-205 -55q-236 5 -353.5 160t-117.5 411q-1 215 112 381.5t355 175.5q121 -2 210.5 -51.5t133.5 -124.5v540h168zM897 529q2 174 -68.5 290t-242.5 120q-171 -5 -248 -122t-76 -288q-2 -173 73.5 -289t246.5 -120
q170 5 243.5 121.5t71.5 287.5z" />
    <glyph glyph-name="e" unicode="e" horiz-adv-x="1118" 
d="M1040 480h-774q-2 -143 68.5 -249t243.5 -111q130 5 199.5 73.5t70.5 143.5h176q-2 -128 -123 -244.5t-344 -125.5q-231 5 -352.5 155.5t-122.5 402.5q-3 213 108 386.5t375 183.5q248 -10 362 -156.5t113 -310.5v-148zM852 624q3 130 -61 220.5t-230 94.5
q-150 -6 -222.5 -101t-72.5 -214h586z" />
    <glyph glyph-name="f" unicode="f" horiz-adv-x="541" 
d="M352 923v-923h-176v923h-176v139h176v197q0 94 59.5 156.5t182.5 64.5q32 0 67 -2.5t64 -5.5v-156q-16 3 -38 5.5t-44 2.5q-71 -2 -94 -46t-21 -101v-115h193v-139h-193z" />
    <glyph glyph-name="g" unicode="g" horiz-adv-x="1212" 
d="M266 546q-1 -199 78.5 -311.5t253.5 -114.5q178 4 246 118t65 296q1 181 -74.5 291.5t-240.5 113.5q-185 -6 -258 -123t-70 -270zM1073 1062v-1123q0 -169 -125.5 -275t-374.5 -110q-221 3 -335 88.5t-115 230.5h172q-4 -69 57 -117t230 -51q170 3 245.5 67.5t73.5 161.5
v190q-49 -64 -133.5 -109t-198.5 -48q-248 8 -368 168t-119 394q-3 224 111.5 391t375.5 175q125 -3 206.5 -54t129.5 -118v139h168z" />
    <glyph glyph-name="h" unicode="h" horiz-adv-x="1163" 
d="M651 1086q185 0 279 -84t94 -247v-755h-176v677q4 102 -40 176t-190 78q-145 -4 -225.5 -89t-81.5 -206v-636h-176v1459h176v-553q39 73 121 125.5t219 54.5z" />
    <glyph glyph-name="i" unicode="i" horiz-adv-x="451" 
d="M311 1459v-200h-176v200h176zM135 1062h176v-1062h-176v1062z" />
    <glyph glyph-name="j" unicode="j" horiz-adv-x="471" 
d="M324 1062v-1267q1 -116 -60 -177.5t-198 -63.5q-22 1 -46 3t-42 1v159l63 -4q66 1 87 34.5t19 100.5v1214h177zM147 1259v200h177v-200h-177z" />
    <glyph glyph-name="k" unicode="k" horiz-adv-x="1057" 
d="M135 1459h176v-880l484 483h217l-394 -393l398 -669h-201l-311 554l-193 -193v-361h-176v1459z" />
    <glyph glyph-name="l" unicode="l" horiz-adv-x="463" 
d="M139 1459h176v-1459h-176v1459z" />
    <glyph glyph-name="m" unicode="m" horiz-adv-x="1745" 
d="M958 0h-176v673q2 132 -44 195t-160 63q-124 -2 -195 -82.5t-72 -208.5v-640h-176v1054h168v-156q37 71 123.5 128t216.5 60q114 -4 183.5 -56.5t99.5 -110.5q50 61 130.5 112.5t213.5 54.5q161 -3 248 -90.5t88 -216.5v-779h-176v710q1 95 -43.5 157t-153.5 64
q-135 -3 -205 -83.5t-70 -203.5v-644z" />
    <glyph glyph-name="n" unicode="n" horiz-adv-x="1163" 
d="M614 931q-134 -3 -217.5 -86.5t-85.5 -212.5v-632h-176v1054h168v-156q38 73 131.5 129t224.5 59q169 -2 266 -85.5t99 -221.5v-779h-176v710q1 108 -55.5 164.5t-178.5 56.5z" />
    <glyph glyph-name="o" unicode="o" horiz-adv-x="1184" 
d="M258 538q-2 -174 73.5 -293.5t254.5 -124.5q179 4 258.5 120t77.5 298q1 173 -78.5 285t-253.5 116q-174 -4 -253.5 -116t-78.5 -285zM1098 534q4 -232 -112.5 -395.5t-395.5 -171.5q-279 8 -395.5 171t-112.5 404q-1 239 124.5 393.5t391.5 159.5q265 -7 383.5 -170
t116.5 -391z" />
    <glyph glyph-name="p" unicode="p" horiz-adv-x="1212" 
d="M307 534q-3 -179 66 -294.5t250 -119.5q168 5 244 122.5t75 291.5q1 176 -75 288.5t-244 116.5q-168 -4 -242.5 -118t-73.5 -287zM143 -426v1488h168v-164q39 77 121 135.5t227 61.5q223 -4 344 -156.5t123 -404.5q-2 -253 -125.5 -407.5t-349.5 -159.5q-132 3 -216 52.5
t-124 116.5v-562h-168z" />
    <glyph glyph-name="q" unicode="q" horiz-adv-x="1212" 
d="M1065 -426h-172v566q-40 -67 -123.5 -118t-212.5 -55q-226 5 -349.5 159.5t-125.5 407.5q2 247 123 401.5t344 159.5q132 -2 218 -55t126 -130v152h172v-1488zM901 534q1 168 -73.5 284t-241.5 121q-168 -4 -244.5 -116.5t-75.5 -288.5q0 -174 79 -291.5t241 -122.5
q175 5 246.5 122.5t68.5 291.5z" />
    <glyph glyph-name="r" unicode="r" horiz-adv-x="680" 
d="M651 894q-198 -3 -271 -87.5t-69 -207.5v-599h-176v1050h168v-193q56 127 137 177t211 48v-188z" />
    <glyph glyph-name="s" unicode="s" horiz-adv-x="1012" 
d="M66 341h172q2 -105 74 -162.5t196 -58.5q118 1 183.5 48t66.5 128q-6 94 -104.5 127t-228.5 56.5t-228.5 87t-102.5 216.5q1 138 102 223.5t296 88.5q208 -4 310.5 -96.5t102.5 -231.5h-172q0 73 -59.5 125.5t-181.5 54.5q-119 -1 -171 -43t-51 -117q4 -81 102.5 -110
t228.5 -50.5t228.5 -88t104.5 -226.5q-1 -155 -113.5 -248.5t-324.5 -96.5q-220 4 -325.5 107.5t-104.5 266.5z" />
    <glyph glyph-name="t" unicode="t" horiz-adv-x="573" 
d="M442 140q20 1 46 4.5t49 4.5v-149q-29 -5 -68 -10t-80 -6q-110 1 -165.5 43t-55.5 134v762h-160v139h160v295h176v-295h193v-139h-193v-684q-1 -47 21.5 -73t76.5 -26z" />
    <glyph glyph-name="u" unicode="u" horiz-adv-x="1163" 
d="M311 1062v-717q0 -105 53.5 -164.5t163.5 -60.5q152 3 235.5 92t84.5 227v623h176v-1070h-168v161q-46 -82 -135.5 -132.5t-216.5 -53.5q-179 1 -273.5 86.5t-95.5 254.5v754h176z" />
    <glyph glyph-name="v" unicode="v" horiz-adv-x="987" 
d="M8 1062h189l299 -868l295 868h192l-393 -1062h-189z" />
    <glyph glyph-name="w" unicode="w" horiz-adv-x="1487" 
d="M430 239l213 823h205l209 -823l233 823h185l-328 -1062h-176l-226 812l-229 -812h-176l-320 1062h185z" />
    <glyph glyph-name="x" unicode="x" horiz-adv-x="979" 
d="M377 546l-352 516h204l263 -389l262 389h200l-356 -516l377 -546h-209l-283 411l-274 -411h-205z" />
    <glyph glyph-name="y" unicode="y" horiz-adv-x="1032" 
d="M426 -66l-401 1128h192l295 -873l303 873h193l-307.5 -856.5t-175 -449t-123 -173.5t-148.5 -29q-23 1 -54 5.5t-57 6.5v172l90 -17q82 -3 117 38.5t76 174.5z" />
    <glyph glyph-name="z" unicode="z" horiz-adv-x="983" 
d="M909 919l-626 -766h655v-153h-885v140l631 770h-598v152h823v-143z" />
    <glyph glyph-name="braceleft" unicode="{" 
d="M221 595q127 1 179.5 69t50.5 197v369q3 111 82 171.5t204 61.5h123v-143h-61q-100 -1 -141 -47.5t-40 -124.5v-356q0 -107 -52 -180t-156 -91q104 -16 156 -83.5t52 -170.5v-353q-1 -91 40 -137t141 -47h61v-144h-123q-133 1 -209 64t-77 182v366q2 129 -50.5 191.5
t-179.5 62.5h-53v143h53z" />
    <glyph glyph-name="bar" unicode="|" 
d="M582 1549v-2032h-144v2032h144z" />
    <glyph glyph-name="braceright" unicode="}" 
d="M852 595v-143h-53q-127 0 -179.5 -62.5t-50.5 -191.5v-366q-1 -119 -77 -182t-209 -64h-123v144h61q100 1 140.5 47t39.5 137v353q0 103 52.5 170.5t156.5 83.5q-104 18 -156.5 91t-52.5 180v356q1 78 -39.5 124.5t-140.5 47.5h-61v143h123q125 -1 204 -61.5t82 -171.5
v-369q-2 -129 50.5 -197t179.5 -69h53z" />
    <glyph glyph-name="asciitilde" unicode="~" horiz-adv-x="2040" 
d="M762 1377q108 -2 172.5 -42t108.5 -93t94.5 -94t132.5 -45t139.5 51.5t60.5 222.5h148q-4 -225 -102 -322t-246 -95q-111 4 -175.5 45t-109.5 95t-94 95t-129 43q-83 4 -140.5 -53t-60.5 -225h-147q4 225 102 322t246 95z" />
    <glyph glyph-name="approxequal" unicode="&#x2248;" horiz-adv-x="1700" 
d="M565 923q84 0 162 -19.5t147.5 -46.5t134 -47t126.5 -23q89 1 187.5 41.5t197.5 114.5v-151q-68 -49 -166 -93t-215 -47q-76 2 -147.5 22.5t-140.5 47.5t-137.5 46t-140.5 19q-108 -2 -209 -46.5t-188 -108.5v151q95 65 190 102t199 38zM176 419q95 65 190 101.5
t199 37.5q84 0 162 -19.5t147.5 -46t134 -47t126.5 -22.5q89 0 187.5 40.5t197.5 115.5v-152q-68 -49 -166 -92.5t-215 -46.5q-76 2 -147.5 22.5t-140.5 47t-137.5 46t-140.5 19.5q-108 -2 -209 -47t-188 -109v152z" />
    <glyph glyph-name="radical" unicode="&#x221a;" horiz-adv-x="1298" 
d="M340 964l254 -713l516 1397h184v-90h-114l-590 -1599h-62l-319 874l-123 -41l-25 77z" />
    <glyph glyph-name="twosuperior" unicode="&#xb2;" horiz-adv-x="737" 
d="M377 1402q140 -2 220.5 -70.5t82.5 -183.5q-4 -107 -72.5 -169t-162 -104t-171 -91.5t-102.5 -131.5h508v-102h-643q2 154 79 233.5t178 125.5t178 97.5t81 145.5q-1 71 -49 111t-131 41q-98 -1 -145.5 -53.5t-47.5 -151.5h-119q4 164 96.5 234.5t219.5 68.5z" />
    <glyph glyph-name="threesuperior" unicode="&#xb3;" horiz-adv-x="737" 
d="M49 1123q3 136 87 207.5t216 71.5q128 -1 206.5 -58.5t80.5 -162.5q0 -67 -29.5 -109.5t-85.5 -66.5q69 -27 110 -76.5t42 -128.5q-1 -127 -88.5 -198.5t-251.5 -72.5q-132 1 -218 74.5t-89 212.5h118q-1 -71 47 -128t154 -60q80 -1 139 37.5t62 126.5q-2 77 -52.5 116
t-123.5 39h-90v90h69q88 1 126.5 38t37.5 93q1 57 -38.5 95.5t-133.5 40.5q-87 -2 -133.5 -53.5t-46.5 -127.5h-115z" />
    <glyph glyph-name="dotlessi" unicode="&#x131;" horiz-adv-x="451" 
d="M311 1062v-1062h-176v1062h176z" />
    <glyph glyph-name="registered" unicode="&#xae;" horiz-adv-x="1700" 
d="M901 767q58 0 105.5 34t50.5 101q0 68 -44.5 105.5t-135.5 38.5h-168v-279h192zM115 710q7 307 210 519.5t515 221.5q339 -11 538 -229t203 -508q-5 -288 -204 -501t-533 -225q-344 16 -535 243t-194 479zM209 718q13 -312 208 -475t423 -164q279 7 460 188.5t187 446.5
q-9 298 -196.5 469t-442.5 174q-282 -7 -458 -189t-181 -450zM553 1144h377q125 -1 202.5 -63t79.5 -171q-2 -94 -55.5 -145t-132.5 -72l180 -377h-168l-168 357h-159v-357h-156v828z" />
    <glyph glyph-name="copyright" unicode="&#xa9;" horiz-adv-x="1700" 
d="M115 710q7 307 210 519.5t515 221.5q339 -11 538 -229t203 -508q-5 -288 -204 -501t-533 -225q-344 16 -535 243t-194 479zM209 718q13 -312 208 -475t423 -164q279 7 460 188.5t187 446.5q-9 298 -196.5 469t-442.5 174q-282 -7 -458 -189t-181 -450zM459 722
q0 178 97 307t296 135q156 -5 245 -87t91 -179h-144q-3 69 -60.5 113.5t-139.5 46.5q-117 -3 -173.5 -97t-56.5 -247q2 -174 67.5 -253.5t166.5 -78.5q88 2 145.5 52.5t59.5 123.5h147q-4 -120 -107.5 -202t-252.5 -85q-172 2 -275 121t-106 330z" />
    <glyph glyph-name="dagger" unicode="&#x2020;" 
d="M61 1058h365v401h168v-401h364v-152h-364v-1123h-168v1123h-365v152z" />
    <glyph glyph-name="trademark" unicode="&#x2122;" horiz-adv-x="1700" 
d="M905 1353v-443h-94v533h147l148 -389l147 389h144v-533h-94v439l-168 -439h-50zM242 1443h446v-78h-168v-455h-106v455h-172v78z" />
    <glyph glyph-name="brokenbar" unicode="&#xa6;" 
d="M438 1418h144v-749h-144v749zM438 402h144v-750h-144v750z" />
    <glyph glyph-name="cedilla" unicode="&#xb8;" 
d="M459 -25h69v-90h54q95 0 139.5 -46t44.5 -122q0 -73 -55 -115t-162 -44q-86 1 -143 11.5t-119 24.5v87q70 -15 127 -23.5t114 -9.5q55 0 81 16.5t26 61.5q0 41 -29.5 59.5t-85.5 17.5l-61 -4v176z" />
    <glyph glyph-name="onesuperior" unicode="&#xb9;" horiz-adv-x="737" 
d="M127 1238q115 1 180 43.5t66 120.5h90v-852h-119v606h-217v82z" />
    <glyph glyph-name="multiply" unicode="&#xd7;" horiz-adv-x="1700" 
d="M385 1168l471 -471l471 471l94 -94l-471 -471l471 -471l-94 -94l-471 471l-471 -471l-94 94l471 471l-471 471z" />
    <glyph glyph-name="quotesingle" unicode="'" horiz-adv-x="315" 
d="M90 1422h135v-549h-135v549z" />
    <glyph glyph-name="perthousand" unicode="&#x2030;" horiz-adv-x="2576" 
d="M1356 1422l-877 -1463h-123l877 1463h123zM770 1037q-5 -168 -107.5 -263t-236.5 -97q-135 0 -244.5 88t-115.5 268q8 181 121 265t235 83q121 -1 230.5 -89t117.5 -255zM627 1037q-2 83 -60.5 140.5t-152.5 60.5q-94 -3 -149 -64.5t-56 -144.5q1 -83 55.5 -144.5
t153.5 -64.5q99 4 153.5 69t55.5 148zM1290 558q-94 -3 -149 -64.5t-56 -144.5q1 -83 55.5 -144.5t153.5 -64.5q99 4 153.5 69t55.5 148q-2 83 -60.5 140.5t-152.5 60.5zM1298 701q122 -1 231.5 -89t117.5 -255q-5 -167 -107.5 -261t-236.5 -96q-136 0 -245.5 86.5
t-115.5 266.5q8 181 121.5 265t234.5 83zM2146 558q-93 -3 -148 -64.5t-56 -144.5q1 -83 55 -144.5t153 -64.5q99 4 153.5 69t55.5 148q-2 83 -60.5 140.5t-152.5 60.5zM2154 701q122 -1 231.5 -89t117.5 -255q-5 -167 -107.5 -261t-236.5 -96q-135 0 -245 86.5t-116 266.5
q8 181 121.5 265t234.5 83z" />
    <glyph glyph-name="OE" unicode="&#x152;" horiz-adv-x="2355" 
d="M762 1500q143 1 258 -42t184 -138v139h1045v-176h-852v-442h790v-168h-790v-496h868v-177h-1061v132q-72 -89 -170 -129t-272 -40q-270 -4 -464.5 173.5t-203.5 593.5q3 357 179 561.5t489 208.5zM799 128q143 0 241 52t164 153v794q-71 102 -166 151.5t-243 49.5
q-266 -6 -384 -179t-116 -435q-2 -244 119.5 -411.5t384.5 -174.5z" />
    <glyph glyph-name="oe" unicode="&#x153;" horiz-adv-x="1896" 
d="M1626 337h176q-21 -160 -143.5 -262.5t-315.5 -107.5q-139 1 -241 53.5t-156 156.5q-48 -96 -142.5 -152t-238.5 -58q-266 9 -376.5 170.5t-106.5 383.5q-3 227 108.5 396t378.5 178q134 1 227 -45.5t162 -155.5q70 91 164 145.5t234 55.5q233 -8 348 -152t115 -328v-135
h-770q-1 -143 72 -249t235 -111q114 2 184 62.5t86 154.5zM569 939q-161 -6 -232.5 -126t-70.5 -279q-2 -160 65 -283.5t222 -130.5q192 10 258 150t61 296q2 142 -68 254.5t-235 118.5zM1049 624h585q0 130 -70.5 220.5t-211.5 94.5q-138 -3 -219.5 -91.5t-83.5 -223.5z
" />
    <glyph glyph-name="emdash" unicode="&#x2014;" horiz-adv-x="2040" 
d="M2040 480h-2040v107h2040v-107z" />
    <glyph glyph-name="endash" unicode="&#x2013;" 
d="M1020 480h-1020v107h1020v-107z" />
    <glyph glyph-name="ellipsis" unicode="&#x2026;" horiz-adv-x="2032" 
d="M438 0h-200v214h200v-214zM1114 0h-201v214h201v-214zM1790 0h-201v214h201v-214z" />
    <glyph glyph-name="daggerdbl" unicode="&#x2021;" 
d="M426 1058v401h168v-401h364v-152h-364v-573h364v-152h-364v-398h-168v398h-365v152h365v573h-365v152h365z" />
    <glyph glyph-name="quotedblbase" unicode="&#x201e;" horiz-adv-x="844" 
d="M586 0h-99v198h197v-193q0 -139 -49.5 -206.5t-147.5 -85.5v90q47 0 73 44.5t26 152.5zM258 0h-102v198h196v-272q-1 -72 -53.5 -133.5t-142.5 -83.5v90q65 23 84.5 65t17.5 136z" />
    <glyph glyph-name="quotedblleft" unicode="&#x201c;" horiz-adv-x="844" 
d="M586 1209h98v-200h-197v192q0 143 49.5 211t147.5 84v-90q-46 2 -72 -43t-26 -154zM352 1410q-65 -22 -84.5 -64t-17.5 -137h102v-200h-196v274q1 73 53.5 135t142.5 82v-90z" />
    <glyph glyph-name="quotedblright" unicode="&#x201d;" horiz-adv-x="844" 
d="M487 1062q47 -2 73 43t26 154h-99v200h197v-192q0 -143 -49.5 -211t-147.5 -84v90zM156 1058q65 22 84.5 63.5t17.5 137.5h-102v200h196v-274q-1 -73 -53.5 -134.5t-142.5 -82.5v90z" />
    <glyph glyph-name="Agrave" unicode="&#xc0;" horiz-adv-x="1298" 
d="M-5 0l542 1459h217l544 -1459h-217l-151 435h-578l-159 -435h-198zM647 1259l-237 -656h462zM389 1955h197l200 -344h-118z" />
    <glyph glyph-name="Acircumflex" unicode="&#xc2;" horiz-adv-x="1298" 
d="M553 1955h192l193 -344h-119l-172 229l-172 -229h-119zM-5 0l542 1459h217l544 -1459h-217l-151 435h-578l-159 -435h-198zM647 1259l-237 -656h462z" />
    <glyph glyph-name="Egrave" unicode="&#xc8;" horiz-adv-x="1303" 
d="M1200 1279h-848v-442h783v-164h-783v-496h865v-177h-1061v1459h1044v-180zM418 1955h196l201 -344h-119z" />
    <glyph glyph-name="Ecircumflex" unicode="&#xca;" horiz-adv-x="1303" 
d="M1200 1279h-848v-442h783v-164h-783v-496h865v-177h-1061v1459h1044v-180zM582 1955h192l193 -344h-119l-172 229l-172 -229h-119z" />
    <glyph glyph-name="Edieresis" unicode="&#xcb;" horiz-adv-x="1303" 
d="M1200 1279h-848v-442h783v-164h-783v-496h865v-177h-1061v1459h1044v-180zM602 1877v-205h-176v205h176zM930 1672h-176v205h176v-205z" />
    <glyph glyph-name="Icircumflex" unicode="&#xce;" horiz-adv-x="528" 
d="M360 1459v-1459h-196v1459h196zM-26 1611l194 344h192l193 -344h-119l-172 229l-172 -229h-116z" />
    <glyph glyph-name="Idieresis" unicode="&#xcf;" horiz-adv-x="528" 
d="M360 1459v-1459h-196v1459h196zM188 1877v-205h-176v205h176zM516 1877v-205h-176v205h176z" />
    <glyph glyph-name="acute" unicode="&#xb4;" 
d="M569 1549h197l-283 -344h-118z" />
    <glyph glyph-name="grave" unicode="`" 
d="M446 1549l201 -344h-119l-278 344h196z" />
    <glyph glyph-name="circumflex" unicode="&#x2c6;" 
d="M217 1205l197 344h192l193 -344h-119l-172 230l-172 -230h-119z" />
    <glyph glyph-name="dieresis" unicode="&#xa8;" 
d="M434 1472v-205h-176v205h176zM762 1472v-205h-176v205h176z" />
    <glyph glyph-name="tilde" unicode="&#x2dc;" 
d="M623 1406q33 1 53.5 21.5t32.5 52.5h86q-14 -75 -57.5 -136t-131.5 -65q-69 3 -112 22t-109 19q-33 0 -50 -17.5t-32 -48.5h-86q13 80 59.5 137t120.5 60q80 -3 127 -22.5t99 -22.5z" />
    <glyph glyph-name="Ugrave" unicode="&#xd9;" horiz-adv-x="1446" 
d="M1294 1459v-946q2 -231 -141.5 -387t-452.5 -163q-300 8 -428 165t-125 385v946h197v-946q1 -173 93.5 -268t271.5 -96q218 4 305 111t84 274v925h196zM463 1955h196l201 -344h-119z" />
    <glyph glyph-name="Ucircumflex" unicode="&#xdb;" horiz-adv-x="1446" 
d="M1294 1459v-946q2 -231 -141.5 -387t-452.5 -163q-300 8 -428 165t-125 385v946h197v-946q1 -173 93.5 -268t271.5 -96q218 4 305 111t84 274v925h196zM627 1955h192l193 -344h-119l-172 229l-172 -229h-119z" />
    <glyph glyph-name="overscore" unicode="&#xaf;" 
d="M0 1406v143h1016v-143h-1016z" />
    <glyph glyph-name="Yacute" unicode="&#xdd;" horiz-adv-x="1233" 
d="M524 0v587l-537 872h242l394 -696l389 696h233l-524 -860v-599h-197zM872 1955l-282 -344h-119l205 344h196z" />
    <glyph glyph-name="yacute" unicode="&#xfd;" horiz-adv-x="1032" 
d="M578 1549h196l-282 -344h-119zM233 -279q82 -3 117 38.5t76 174.5l-401 1128h192l295 -873l303 873h193l-307.5 -856.5t-175 -449t-123 -173.5t-148.5 -29q-23 1 -54 5.5t-57 6.5v172z" />
    <glyph glyph-name="degree" unicode="&#xb0;" horiz-adv-x="672" 
d="M332 873q-128 4 -204.5 88.5t-78.5 198.5q3 115 81.5 197t201.5 86q123 -4 203 -86t83 -197q-2 -114 -80 -198.5t-206 -88.5zM336 1353q-93 -3 -144.5 -63t-52.5 -134q1 -74 54.5 -131.5t146.5 -60.5q92 5 140 69.5t48 130.5t-49.5 125.5t-142.5 63.5z" />
    <glyph glyph-name="Ccedilla" unicode="&#xc7;" horiz-adv-x="1454" 
d="M778 -33v-82h58q97 -2 139 -50.5t41 -113.5q1 -76 -55 -118.5t-175 -44.5q-79 2 -138.5 12.5l-110.5 19.5v91q77 -17 138 -24.5t107 -8.5q50 0 76.5 17.5t26.5 64.5q-1 38 -30.5 56t-76.5 17l-69 -4v168q-305 12 -460 235.5t-155 531.5q-3 298 157.5 526t522.5 240
q295 -10 440.5 -160.5t145.5 -314.5h-189q4 65 -83.5 176t-313.5 123q-269 -10 -376 -189t-103 -413q1 -230 118 -403.5t345 -182.5q223 9 325 137t101 269h188q0 -203 -149.5 -382.5t-444.5 -192.5z" />
    <glyph glyph-name="ccedilla" unicode="&#xe7;" horiz-adv-x="1073" 
d="M586 -29v-86h53q95 0 139.5 -46t44.5 -122q0 -73 -54.5 -115t-162.5 -44q-86 1 -143 11.5t-119 24.5v87q70 -15 127.5 -23.5t114.5 -9.5q55 0 80.5 16.5t25.5 61.5q0 41 -29.5 59.5t-84.5 17.5l-62 -4v172q-204 6 -318 160.5t-116 402.5q0 247 124 401.5t367 159.5
q208 -4 326.5 -112.5t120.5 -272.5h-172q2 68 -58 145t-208 84q-189 -7 -254.5 -132t-61.5 -286q-3 -156 64 -273.5t239 -123.5q150 6 217 88.5t66 165.5h172q-4 -165 -124 -283t-314 -124z" />
    <glyph glyph-name="Ntilde" unicode="&#xd1;" horiz-adv-x="1470" 
d="M610 1725q-33 0 -50 -17t-32 -48h-86q13 79 59.5 136.5t121.5 60.5q79 -3 126 -23t99 -23q33 1 53.5 21.5t32.5 52.5h86q-14 -74 -57.5 -135t-131.5 -65q-69 3 -111.5 20.5t-109.5 19.5zM1311 1459v-1459h-213l-758 1173v-1173h-184v1459h213l757 -1175v1175h185z" />
    <glyph glyph-name="ntilde" unicode="&#xf1;" horiz-adv-x="1163" 
d="M848 710q1 108 -55.5 164.5t-178.5 56.5q-134 -3 -217.5 -86.5t-85.5 -212.5v-632h-176v1054h168v-156q38 73 131.5 129t224.5 59q169 -2 266 -85.5t99 -221.5v-779h-176v710zM479 1451q80 -3 127 -22.5t99 -22.5q33 1 53.5 21.5t32.5 52.5h86q-14 -75 -57.5 -136
t-131.5 -65q-69 3 -112 20.5t-109 20.5q-33 0 -50 -17.5t-32 -48.5h-86q13 80 59.5 137t120.5 60z" />
    <glyph glyph-name="exclamdown" unicode="&#xa1;" horiz-adv-x="655" 
d="M373 1103l49 -615v-488h-197v488l49 615h99zM225 1459h197v-217h-197v217z" />
    <glyph glyph-name="questiondown" unicode="&#xbf;" horiz-adv-x="1073" 
d="M479 1062h176v-66q-4 -131 -56 -211.5t-119.5 -140t-119 -128t-53.5 -175.5q-1 -90 56.5 -156t185.5 -69q157 6 215 103t55 216h176q1 -215 -106.5 -341.5t-339.5 -130.5q-228 6 -330 114t-100 264q2 131 55 213t124 141.5t124 125t57 163.5v78zM659 1242h-196v217h196
v-217z" />
    <glyph glyph-name="currency" unicode="&#xa4;" horiz-adv-x="1237" 
d="M315 878q3 -129 88.5 -215t214.5 -89q129 3 215 89t89 215q-3 129 -89 214.5t-215 88.5q-129 -3 -214.5 -88.5t-88.5 -214.5zM618 464q-75 0 -142 21.5t-111 64.5l-205 -205l-78 78l205 205q-49 51 -68 121.5t-18 128.5q-1 57 18 127.5t68 121.5l-205 205l78 78l205 -205
q44 43 111 64.5t142 21.5q76 0 143 -21.5t111 -64.5l205 205l78 -78l-205 -205q49 -51 68 -121.5t18 -127.5q1 -58 -18 -128.5t-68 -121.5l205 -205l-78 -78l-205 205q-44 -43 -111 -64.5t-143 -21.5z" />
    <glyph glyph-name="sterling" unicode="&#xa3;" horiz-adv-x="1118" 
d="M729 644h-274q7 -24 13.5 -51.5t6.5 -67.5q-2 -121 -59.5 -205.5t-145.5 -158.5q55 21 108.5 33t117.5 12q118 -4 187 -35t136 -35q55 1 97 20t75 42l82 -131q-43 -45 -113 -75t-157 -29q-103 7 -183 46t-198 45q-98 -1 -154 -22t-108 -57l-99 137q105 80 176 175.5
t74 200.5q0 45 -11.5 80t-33.5 76h-213v98h160q-41 71 -73 144t-34 155q2 158 123 282.5t340 131.5q223 -4 342.5 -120t120.5 -289v-54h-180q1 134 -65.5 215.5t-213.5 83.5q-124 -3 -198 -73.5t-76 -171.5q4 -71 42.5 -156.5l64.5 -147.5h323v-98z" />
    <glyph glyph-name="yen" unicode="&#xa5;" horiz-adv-x="1229" 
d="M532 558h-516v86h459l-82 131h-377v86h324l-320 516h218l385 -655l389 655h200l-315 -516h315v-86h-368l-82 -131h450v-86h-499v-558h-181v558z" />
    <glyph glyph-name="section" unicode="&#xa7;" 
d="M496 -197q-164 4 -253.5 94.5t-90.5 234.5h172q0 -81 44.5 -128t139.5 -49q87 2 133.5 39t46.5 105q-6 88 -96 147.5t-208 116t-208 134t-94 200.5q1 97 48 166t128 129q-40 36 -64.5 82.5t-25.5 118.5q0 108 80.5 204t243.5 103q183 -2 266 -90t82 -237h-164
q-1 83 -49.5 131t-134.5 49q-69 -1 -108 -40t-40 -104q4 -82 91 -137t203 -108.5t203 -131t93 -204.5q-2 -113 -55 -192t-129 -99q52 -46 79 -98.5t27 -122.5q-3 -138 -101.5 -224t-258.5 -89zM258 759q-9 -64 65 -128.5t332 -203.5q55 30 79.5 72.5t23.5 103.5
q7 51 -69 114.5t-324 188.5q-55 -33 -81 -67.5t-26 -79.5z" />
    <glyph glyph-name="florin" unicode="&#x192;" horiz-adv-x="1118" 
d="M135 -422q-50 2 -94.5 14t-74.5 27l42 160q31 -15 61 -25.5t58 -11.5q55 -2 88 26.5t59.5 130.5t66.5 316l110 581h-213v143h241q69 379 168 477t205 84q39 0 88 -13t88 -32l-45 -143q-28 12 -55.5 20t-55.5 8q-68 10 -112.5 -59.5t-91.5 -341.5h229v-143h-254l-104 -574
t-91.5 -376.5t-120 -205t-192.5 -62.5z" />
    <glyph glyph-name="cent" unicode="&#xa2;" horiz-adv-x="1118" 
d="M545 939q-106 2 -186.5 -92.5t-84.5 -304.5q2 -185 40 -263t83 -110l217 766q-18 0 -36 2t-33 2zM987 374q-17 -170 -129 -285.5t-293 -121.5q-32 1 -67 4.5t-64 12.5l-61 -217h-90l69 238q-84 34 -171.5 147.5t-94.5 372.5q2 248 124.5 406.5t342.5 163.5
q22 0 49.5 -2.5t52.5 -6.5l54 185h86l-58 -205q96 -34 169 -123t77 -233h-176q-1 64 -32.5 118t-82.5 74l-217 -774q22 -3 43 -5.5t43 -2.5q110 6 177 88.5t69 165.5h180z" />
    <glyph glyph-name="acircumflex" unicode="&#xe2;" horiz-adv-x="1106" 
d="M778 722v90q-1 45 -63 84.5t-170 42.5q-138 0 -198.5 -50.5t-59.5 -146.5h-168q0 149 102.5 249t310.5 104q215 -2 319 -79.5t103 -211.5v-615q1 -34 21.5 -49.5t52.5 -15.5l49 8v-132q-25 -8 -54 -13.5t-60 -6.5q-86 1 -129 40t-43 116q-49 -51 -136.5 -107t-253.5 -62
q-187 7 -258.5 107.5t-68.5 217.5q4 172 108.5 240.5t242.5 85l242.5 30t110.5 74.5zM778 542q-84 -33 -175 -44.5t-172 -23.5t-131 -51t-50 -127q-1 -84 46.5 -129.5t154.5 -46.5q109 -3 214 56.5t113 213.5v152zM262 1205l197 344h192l193 -344h-119l-172 230l-172 -230
h-119z" />
    <glyph glyph-name="ecircumflex" unicode="&#xea;" horiz-adv-x="1118" 
d="M274 1205l197 344h193l192 -344h-119l-172 230l-172 -230h-119zM1040 480h-774q-2 -143 68.5 -249t243.5 -111q130 5 199.5 73.5t70.5 143.5h176q-2 -128 -123 -244.5t-344 -125.5q-231 5 -352.5 155.5t-122.5 402.5q-3 213 108 386.5t375 183.5q248 -10 362 -156.5
t113 -310.5v-148zM852 624q3 130 -61 220.5t-230 94.5q-150 -6 -222.5 -101t-72.5 -214h586z" />
    <glyph glyph-name="ocircumflex" unicode="&#xf4;" horiz-adv-x="1184" 
d="M586 120q179 4 258.5 120t77.5 298q1 173 -78.5 285t-253.5 116q-174 -4 -253.5 -116t-78.5 -285q-2 -174 73.5 -293.5t254.5 -124.5zM598 1095q265 -7 383.5 -170t116.5 -391q4 -232 -112.5 -395.5t-395.5 -171.5q-279 8 -395.5 171t-112.5 404q-1 239 124.5 393.5
t391.5 159.5zM299 1205l197 344h192l193 -344h-119l-172 230l-172 -230h-119z" />
    <glyph glyph-name="ucircumflex" unicode="&#xfb;" horiz-adv-x="1163" 
d="M311 1062v-717q0 -105 53.5 -164.5t163.5 -60.5q152 3 235.5 92t84.5 227v623h176v-1070h-168v161q-46 -82 -135.5 -132.5t-216.5 -53.5q-179 1 -273.5 86.5t-95.5 254.5v754h176zM291 1205l196 344h193l192 -344h-118l-172 230l-172 -230h-119z" />
    <glyph glyph-name="aacute" unicode="&#xe1;" horiz-adv-x="1106" 
d="M778 812q-1 45 -63 84.5t-170 42.5q-138 0 -198.5 -50.5t-59.5 -146.5h-168q0 149 102.5 249t310.5 104q215 -2 319 -79.5t103 -211.5v-615q1 -34 21.5 -49.5t52.5 -15.5l49 8v-132q-25 -8 -54 -13.5t-60 -6.5q-86 1 -129 40t-43 116q-49 -51 -136.5 -107t-253.5 -62
q-187 7 -258.5 107.5t-68.5 217.5q4 172 108.5 240.5t242.5 85l242.5 30t110.5 74.5v90zM778 542q-84 -33 -175 -44.5t-172 -23.5t-131 -51t-50 -127q-1 -84 46.5 -129.5t154.5 -46.5q109 -3 214 56.5t113 213.5v152zM614 1549h197l-283 -344h-118z" />
    <glyph glyph-name="eacute" unicode="&#xe9;" horiz-adv-x="1118" 
d="M823 1549l-282 -344h-119l205 344h196zM1040 480h-774q-2 -143 68.5 -249t243.5 -111q130 5 199.5 73.5t70.5 143.5h176q-2 -128 -123 -244.5t-344 -125.5q-231 5 -352.5 155.5t-122.5 402.5q-3 213 108 386.5t375 183.5q248 -10 362 -156.5t113 -310.5v-148zM852 624
q3 130 -61 220.5t-230 94.5q-150 -6 -222.5 -101t-72.5 -214h586z" />
    <glyph glyph-name="oacute" unicode="&#xf3;" horiz-adv-x="1184" 
d="M586 120q179 4 258.5 120t77.5 298q1 173 -78.5 285t-253.5 116q-174 -4 -253.5 -116t-78.5 -285q-2 -174 73.5 -293.5t254.5 -124.5zM598 1095q265 -7 383.5 -170t116.5 -391q4 -232 -112.5 -395.5t-395.5 -171.5q-279 8 -395.5 171t-112.5 404q-1 239 124.5 393.5
t391.5 159.5zM848 1549l-283 -344h-119l205 344h197z" />
    <glyph glyph-name="uacute" unicode="&#xfa;" horiz-adv-x="1163" 
d="M311 1062v-717q0 -105 53.5 -164.5t163.5 -60.5q152 3 235.5 92t84.5 227v623h176v-1070h-168v161q-46 -82 -135.5 -132.5t-216.5 -53.5q-179 1 -273.5 86.5t-95.5 254.5v754h176zM840 1549l-283 -344h-119l205 344h197z" />
    <glyph glyph-name="agrave" unicode="&#xe0;" horiz-adv-x="1106" 
d="M492 1549l200 -344h-119l-278 344h197zM778 812q-1 45 -63 84.5t-170 42.5q-138 0 -198.5 -50.5t-59.5 -146.5h-168q0 149 102.5 249t310.5 104q215 -2 319 -79.5t103 -211.5v-615q1 -34 21.5 -49.5t52.5 -15.5l49 8v-132q-25 -8 -54 -13.5t-60 -6.5q-86 1 -129 40
t-43 116q-49 -51 -136.5 -107t-253.5 -62q-187 7 -258.5 107.5t-68.5 217.5q4 172 108.5 240.5t242.5 85l242.5 30t110.5 74.5v90zM778 542q-84 -33 -175 -44.5t-172 -23.5t-131 -51t-50 -127q-1 -84 46.5 -129.5t154.5 -46.5q109 -3 214 56.5t113 213.5v152z" />
    <glyph glyph-name="egrave" unicode="&#xe8;" horiz-adv-x="1118" 
d="M307 1549h197l201 -344h-119zM1040 480h-774q-2 -143 68.5 -249t243.5 -111q130 5 199.5 73.5t70.5 143.5h176q-2 -128 -123 -244.5t-344 -125.5q-231 5 -352.5 155.5t-122.5 402.5q-3 213 108 386.5t375 183.5q248 -10 362 -156.5t113 -310.5v-148zM852 624
q3 130 -61 220.5t-230 94.5q-150 -6 -222.5 -101t-72.5 -214h586z" />
    <glyph glyph-name="ograve" unicode="&#xf2;" horiz-adv-x="1184" 
d="M586 120q179 4 258.5 120t77.5 298q1 173 -78.5 285t-253.5 116q-174 -4 -253.5 -116t-78.5 -285q-2 -174 73.5 -293.5t254.5 -124.5zM598 1095q265 -7 383.5 -170t116.5 -391q4 -232 -112.5 -395.5t-395.5 -171.5q-279 8 -395.5 171t-112.5 404q-1 239 124.5 393.5
t391.5 159.5zM332 1549h196l201 -344h-119z" />
    <glyph glyph-name="ugrave" unicode="&#xf9;" horiz-adv-x="1163" 
d="M311 1062v-717q0 -105 53.5 -164.5t163.5 -60.5q152 3 235.5 92t84.5 227v623h176v-1070h-168v161q-46 -82 -135.5 -132.5t-216.5 -53.5q-179 1 -273.5 86.5t-95.5 254.5v754h176zM324 1549h196l201 -344h-119z" />
    <glyph glyph-name="adieresis" unicode="&#xe4;" horiz-adv-x="1106" 
d="M303 1472h176v-205h-176v205zM807 1267h-176v205h176v-205zM778 812q-1 45 -63 84.5t-170 42.5q-138 0 -198.5 -50.5t-59.5 -146.5h-168q0 149 102.5 249t310.5 104q215 -2 319 -79.5t103 -211.5v-615q1 -34 21.5 -49.5t52.5 -15.5l49 8v-132q-25 -8 -54 -13.5t-60 -6.5
q-86 1 -129 40t-43 116q-49 -51 -136.5 -107t-253.5 -62q-187 7 -258.5 107.5t-68.5 217.5q4 172 108.5 240.5t242.5 85l242.5 30t110.5 74.5v90zM778 390v152q-84 -33 -175 -44.5t-172 -23.5t-131 -51t-50 -127q-1 -84 46.5 -129.5t154.5 -46.5q109 -3 214 56.5t113 213.5z
" />
    <glyph glyph-name="edieresis" unicode="&#xeb;" horiz-adv-x="1118" 
d="M315 1472h177v-205h-177v205zM819 1267h-176v205h176v-205zM1040 480h-774q-2 -143 68.5 -249t243.5 -111q130 5 199.5 73.5t70.5 143.5h176q-2 -128 -123 -244.5t-344 -125.5q-231 5 -352.5 155.5t-122.5 402.5q-3 213 108 386.5t375 183.5q248 -10 362 -156.5
t113 -310.5v-148zM852 624q3 130 -61 220.5t-230 94.5q-150 -6 -222.5 -101t-72.5 -214h586z" />
    <glyph glyph-name="odieresis" unicode="&#xf6;" horiz-adv-x="1184" 
d="M340 1472h176v-205h-176v205zM844 1267h-176v205h176v-205zM258 538q-2 -174 73.5 -293.5t254.5 -124.5q179 4 258.5 120t77.5 298q1 173 -78.5 285t-253.5 116q-174 -4 -253.5 -116t-78.5 -285zM598 1095q265 -7 383.5 -170t116.5 -391q4 -232 -112.5 -395.5
t-395.5 -171.5q-279 8 -395.5 171t-112.5 404q-1 239 124.5 393.5t391.5 159.5z" />
    <glyph glyph-name="udieresis" unicode="&#xfc;" horiz-adv-x="1163" 
d="M332 1472h176v-205h-176v205zM836 1267h-177v205h177v-205zM311 1062v-717q0 -105 53.5 -164.5t163.5 -60.5q152 3 235.5 92t84.5 227v623h176v-1070h-168v161q-46 -82 -135.5 -132.5t-216.5 -53.5q-179 1 -273.5 86.5t-95.5 254.5v754h176z" />
    <glyph glyph-name="Aring" unicode="&#xc5;" horiz-adv-x="1298" 
d="M-5 0l542 1459h217l544 -1459h-217l-151 435h-578l-159 -435h-198zM643 1955q100 -3 161.5 -67t63.5 -150q-1 -87 -58.5 -154.5t-162.5 -71.5q-105 4 -164.5 71t-60.5 151q2 83 61.5 150t159.5 71zM643 1844q-47 -2 -76 -35t-30 -75q0 -42 27.5 -75.5t82.5 -35.5
q56 3 83.5 39.5t27.5 75.5q-1 39 -34 71.5t-81 34.5zM647 1259l-237 -656h462z" />
    <glyph glyph-name="icircumflex" unicode="&#xee;" horiz-adv-x="451" 
d="M-62 1205l193 344h193l192 -344h-119l-172 230l-172 -230h-115zM311 1062v-1062h-176v1062h176z" />
    <glyph glyph-name="Oslash" unicode="&#xd8;" horiz-adv-x="1577" 
d="M1192 1111l-758 -831q45 -58 137.5 -103.5t210.5 -48.5q225 1 360.5 152t139.5 446q-1 135 -25.5 231t-64.5 154zM1266 1328l155 172l66 -65l-156 -176q71 -80 111 -203t41 -326q-4 -370 -188 -567t-504 -200q-185 3 -298 52.5t-182 116.5l-155 -169l-70 59l160 180
q-82 109 -115.5 239.5t-32.5 300.5q3 351 183.5 552.5t500.5 205.5q188 -3 301.5 -54t182.5 -118zM799 1332q-254 -5 -377.5 -172.5t-122.5 -433.5q0 -153 23.5 -227.5t66.5 -145.5l750 828q-52 63 -126 106t-214 45z" />
    <glyph glyph-name="AE" unicode="&#xc6;" horiz-adv-x="1937" 
d="M1839 1283h-803v-442h738v-168h-738v-496h811v-177h-1003v439h-488l-172 -439h-210l604 1459h1261v-176zM844 1295h-152l-270 -692h422v692z" />
    <glyph glyph-name="aring" unicode="&#xe5;" horiz-adv-x="1106" 
d="M319 1373q2 84 62 150.5t160 70.5q100 -3 161.5 -67t63.5 -150q-1 -86 -58.5 -153.5t-162.5 -71.5q-105 4 -165 71t-61 150zM434 1373q0 -42 28 -75t83 -35q55 3 82.5 39t27.5 75q-1 39 -34 72t-80 35q-47 -2 -76.5 -35.5t-30.5 -75.5zM778 722v90q-1 45 -63 84.5
t-170 42.5q-138 0 -198.5 -50.5t-59.5 -146.5h-168q0 149 102.5 249t310.5 104q215 -2 319 -79.5t103 -211.5v-615q1 -34 21.5 -49.5t52.5 -15.5l49 8v-132q-25 -8 -54 -13.5t-60 -6.5q-86 1 -129 40t-43 116q-49 -51 -136.5 -107t-253.5 -62q-187 7 -258.5 107.5
t-68.5 217.5q4 172 108.5 240.5t242.5 85l242.5 30t110.5 74.5zM778 542q-84 -33 -175 -44.5t-172 -23.5t-131 -51t-50 -127q-1 -84 46.5 -129.5t154.5 -46.5q109 -3 214 56.5t113 213.5v152z" />
    <glyph glyph-name="iacute" unicode="&#xed;" horiz-adv-x="451" 
d="M483 1549l-282 -344h-119l205 344h196zM311 1062v-1062h-176v1062h176z" />
    <glyph glyph-name="oslash" unicode="&#xf8;" horiz-adv-x="1184" 
d="M258 525q-1 -63 7 -127t38 -114l524 561q-40 49 -101 75.5t-144 26.5q-190 -7 -259 -132.5t-65 -289.5zM53 5l135 144q-44 53 -74.5 145t-31.5 244q0 236 126.5 393.5t381.5 163.5q128 -1 212 -37.5t136 -89.5l127 135l57 -53l-131 -144q53 -62 80 -146t27 -222
q3 -240 -115.5 -402t-400.5 -169q-124 2 -200.5 36.5t-135.5 87.5l-131 -136zM913 509q1 102 -8.5 160.5t-36.5 101.5l-520 -557q36 -46 91.5 -73.5t146.5 -28.5q168 3 248 112.5t79 284.5z" />
    <glyph glyph-name="ae" unicode="&#xe6;" horiz-adv-x="1798" 
d="M262 284q1 -75 53 -121t140 -47q138 2 227 73t92 181v168q-90 -33 -180 -46.5t-165 -28.5t-121 -54t-46 -125zM946 480q-4 -143 59 -249t240 -111q147 6 213.5 78t65.5 139h176q1 -109 -114 -233.5t-365 -136.5q-181 5 -267.5 64.5t-117.5 133.5q-61 -85 -159.5 -140
t-242.5 -58q-138 -2 -244 69.5t-112 247.5q4 182 107.5 249.5t240.5 81t241.5 33t110.5 107.5q3 86 -44.5 134.5t-188.5 49.5q-142 -2 -197 -55.5t-53 -141.5h-164q2 159 108 255t298 98q165 -2 249.5 -46.5t126.5 -113.5q45 74 134.5 116.5t201.5 43.5q252 -14 361 -172
t106 -295v-148h-770zM1532 624q4 108 -56.5 208t-234.5 107q-172 -9 -237 -114.5t-62 -200.5h590z" />
    <glyph glyph-name="Adieresis" unicode="&#xc4;" horiz-adv-x="1298" 
d="M537 1459h217l544 -1459h-217l-151 435h-578l-159 -435h-198zM647 1259l-237 -656h462zM573 1877v-205h-176v205h176zM901 1877v-205h-176v205h176z" />
    <glyph glyph-name="igrave" unicode="&#xec;" horiz-adv-x="451" 
d="M311 1062v-1062h-176v1062h176zM164 1549l201 -344h-119l-276 344h194z" />
    <glyph glyph-name="Odieresis" unicode="&#xd6;" horiz-adv-x="1577" 
d="M537 1877h176v-205h-176v205zM1040 1672h-176v205h176v-205zM786 1332q-251 -6 -371.5 -175t-119.5 -427q-1 -258 116 -427t371 -175q254 6 375.5 174.5t120.5 423.5q1 256 -120 427.5t-372 178.5zM791 1500q336 -5 511.5 -213.5t176.5 -560.5q-2 -352 -181.5 -555
t-519.5 -208q-338 6 -510.5 214t-173.5 557q2 349 181 555t516 211z" />
    <glyph glyph-name="Udieresis" unicode="&#xdc;" horiz-adv-x="1446" 
d="M1294 1459v-946q2 -231 -141.5 -387t-452.5 -163q-300 8 -428 165t-125 385v946h197v-946q1 -173 93.5 -268t271.5 -96q218 4 305 111t84 274v925h196zM471 1877h176v-205h-176v205zM975 1672h-176v205h176v-205z" />
    <glyph glyph-name="Eacute" unicode="&#xc9;" horiz-adv-x="1303" 
d="M1200 1279h-848v-442h783v-164h-783v-496h865v-177h-1061v1459h1044v-180zM934 1955l-283 -344h-119l205 344h197z" />
    <glyph glyph-name="idieresis" unicode="&#xef;" horiz-adv-x="451" 
d="M311 1062v-1062h-176v1062h176zM152 1472v-205h-174v205h174zM479 1472v-205h-176v205h176z" />
    <glyph glyph-name="germandbls" unicode="&#xdf;" horiz-adv-x="1102" 
d="M311 0h-176v1070q1 184 108 295.5t302 114.5q219 -7 313 -124t92 -253q-1 -119 -46 -190t-118 -101q104 -31 166 -117t64 -256q1 -161 -106 -310.5t-328 -161.5l-119 13v160l74 -12q144 3 219 90t75 225q-1 127 -77.5 200.5t-212.5 74.5h-62v143h62q98 1 164 60t69 170
q0 101 -58 166t-171 67q-127 -4 -181 -81.5t-53 -176.5v-1066z" />
    <glyph glyph-name="Ocircumflex" unicode="&#xd4;" horiz-adv-x="1577" 
d="M786 1332q-251 -6 -371.5 -175t-119.5 -427q-1 -258 116 -427t371 -175q254 6 375.5 174.5t120.5 423.5q1 256 -120 427.5t-372 178.5zM791 1500q336 -5 511.5 -213.5t176.5 -560.5q-2 -352 -181.5 -555t-519.5 -208q-338 6 -510.5 214t-173.5 557q2 349 181 555t516 211
zM496 1611l196 344h193l192 -344h-119l-172 229l-172 -229h-118z" />
    <glyph glyph-name="Aacute" unicode="&#xc1;" horiz-adv-x="1298" 
d="M905 1955l-282 -344h-119l205 344h196zM-5 0l542 1459h217l544 -1459h-217l-151 435h-578l-159 -435h-198zM647 1259l-237 -656h462z" />
    <glyph glyph-name="Atilde" unicode="&#xc3;" horiz-adv-x="1298" 
d="M524 1725q-33 0 -50 -17t-32 -48h-86q13 79 59.5 136.5t121.5 60.5q79 -3 126 -23t99 -23q33 1 53.5 21.5t32.5 52.5h86q-14 -74 -57.5 -135t-131.5 -65q-69 3 -112 20.5t-109 19.5zM537 1459h217l544 -1459h-217l-151 435h-578l-159 -435h-198zM647 1259l-237 -656h462z
" />
    <glyph glyph-name="atilde" unicode="&#xe3;" horiz-adv-x="1106" 
d="M651 1279q-69 3 -112 20.5t-109 20.5q-33 0 -50 -17.5t-32 -48.5h-86q13 80 59.5 137t120.5 60q80 -3 127 -22.5t99 -22.5q33 1 53.5 21.5t32.5 52.5h86q-14 -75 -57.5 -136t-131.5 -65zM778 812q-1 45 -63 84.5t-170 42.5q-138 0 -198.5 -50.5t-59.5 -146.5h-168
q0 149 102.5 249t310.5 104q215 -2 319 -79.5t103 -211.5v-615q1 -34 21.5 -49.5t52.5 -15.5l49 8v-132q-25 -8 -54 -13.5t-60 -6.5q-86 1 -129 40t-43 116q-49 -51 -136.5 -107t-253.5 -62q-187 7 -258.5 107.5t-68.5 217.5q4 172 108.5 240.5t242.5 85l242.5 30
t110.5 74.5v90zM778 542q-84 -33 -175 -44.5t-172 -23.5t-131 -51t-50 -127q-1 -84 46.5 -129.5t154.5 -46.5q109 -3 214 56.5t113 213.5v152z" />
    <glyph glyph-name="Eth" unicode="&#xd0;" horiz-adv-x="1454" 
d="M758 837v-123h-393v-541h352q242 6 341.5 168t96.5 414q0 240 -108 388t-326 152h-356v-458h393zM754 1459q279 0 439 -179t163 -533q-4 -356 -171 -550.5t-448 -196.5h-569v714h-168v123h168v622h586z" />
    <glyph glyph-name="eth" unicode="&#xf0;" horiz-adv-x="1188" 
d="M901 1385l-221 -114q201 -143 311 -335.5t111 -418.5q1 -246 -124 -395.5t-388 -154.5q-269 7 -389.5 160.5t-118.5 389.5q3 245 133 381.5t354 138.5q40 0 78 -6.5t86 -21.5q-43 50 -96.5 100t-120.5 88l-274 -139l-33 78l221 118q-59 34 -120.5 62l-116.5 53l36 119
q91 -27 198.5 -74t170.5 -86l266 135zM586 120q185 5 263.5 115.5t76.5 269.5q3 176 -74.5 288.5t-265.5 116.5q-177 -7 -253.5 -126.5t-74.5 -270.5q-1 -167 76.5 -278t251.5 -115z" />
    <glyph glyph-name="eth" unicode="&#x111;" horiz-adv-x="1188" 
d="M901 1385l-221 -114q201 -143 311 -335.5t111 -418.5q1 -246 -124 -395.5t-388 -154.5q-269 7 -389.5 160.5t-118.5 389.5q3 245 133 381.5t354 138.5q40 0 78 -6.5t86 -21.5q-43 50 -96.5 100t-120.5 88l-274 -139l-33 78l221 118q-59 34 -120.5 62l-116.5 53l36 119
q91 -27 198.5 -74t170.5 -86l266 135zM586 120q185 5 263.5 115.5t76.5 269.5q3 176 -74.5 288.5t-265.5 116.5q-177 -7 -253.5 -126.5t-74.5 -270.5q-1 -167 76.5 -278t251.5 -115z" />
    <glyph glyph-name="Iacute" unicode="&#xcd;" horiz-adv-x="528" 
d="M360 1459v-1459h-196v1459h196zM324 1955h196l-282 -344h-119z" />
    <glyph glyph-name="Igrave" unicode="&#xcc;" horiz-adv-x="528" 
d="M360 1459v-1459h-196v1459h196zM201 1955l200 -344h-118l-279 344h197z" />
    <glyph glyph-name="Oacute" unicode="&#xd3;" horiz-adv-x="1577" 
d="M1044 1955l-282 -344h-119l205 344h196zM786 1332q-251 -6 -371.5 -175t-119.5 -427q-1 -258 116 -427t371 -175q254 6 375.5 174.5t120.5 423.5q1 256 -120 427.5t-372 178.5zM94 734q2 349 181 555t516 211q336 -5 511.5 -213.5t176.5 -560.5q-2 -352 -181.5 -555
t-519.5 -208q-338 6 -510.5 214t-173.5 557z" />
    <glyph glyph-name="Ograve" unicode="&#xd2;" horiz-adv-x="1577" 
d="M786 1332q-251 -6 -371.5 -175t-119.5 -427q-1 -258 116 -427t371 -175q254 6 375.5 174.5t120.5 423.5q1 256 -120 427.5t-372 178.5zM791 1500q336 -5 511.5 -213.5t176.5 -560.5q-2 -352 -181.5 -555t-519.5 -208q-338 6 -510.5 214t-173.5 557q2 349 181 555t516 211
zM528 1955h197l201 -344h-119z" />
    <glyph glyph-name="Otilde" unicode="&#xd5;" horiz-adv-x="1577" 
d="M664 1725q-33 0 -50.5 -17t-31.5 -48h-86q13 79 59.5 136.5t120.5 60.5q79 -3 126 -23t99 -23q33 1 53.5 21.5t32.5 52.5h86q-14 -74 -57 -135t-131 -65q-70 3 -112.5 20.5t-108.5 19.5zM786 1332q-251 -6 -371.5 -175t-119.5 -427q-1 -258 116 -427t371 -175
q254 6 375.5 174.5t120.5 423.5q1 256 -120 427.5t-372 178.5zM791 1500q336 -5 511.5 -213.5t176.5 -560.5q-2 -352 -181.5 -555t-519.5 -208q-338 6 -510.5 214t-173.5 557q2 349 181 555t516 211z" />
    <glyph glyph-name="otilde" unicode="&#xf5;" horiz-adv-x="1184" 
d="M467 1320q-33 0 -50 -17.5t-32 -48.5h-86q13 80 59.5 137t120.5 60q80 -3 127 -22.5t99 -22.5q33 1 53.5 21.5t32.5 52.5h86q-14 -75 -57.5 -136t-131.5 -65q-69 3 -112 20.5t-109 20.5zM586 120q179 4 258.5 120t77.5 298q1 173 -78.5 285t-253.5 116
q-174 -4 -253.5 -116t-78.5 -285q-2 -174 73.5 -293.5t254.5 -124.5zM598 1095q265 -7 383.5 -170t116.5 -391q4 -232 -112.5 -395.5t-395.5 -171.5q-279 8 -395.5 171t-112.5 404q-1 239 124.5 393.5t391.5 159.5z" />
    <glyph glyph-name="Scaron" unicode="&#x160;" horiz-adv-x="1319" 
d="M94 480h185q4 -178 114.5 -265t282.5 -87q159 1 254.5 73t97.5 206q-8 137 -140 185t-306 80t-305.5 113.5t-137.5 284.5q1 175 132.5 299.5t387.5 130.5q267 -6 394.5 -142.5t126.5 -324.5h-189q1 119 -82 208.5t-266 94.5q-157 -2 -238 -70t-81 -184q6 -129 138 -175
t307 -76.5t309 -115.5t143 -296q-2 -209 -147.5 -330.5t-405.5 -125.5q-291 6 -433 148.5t-141 368.5zM369 1955h118l172 -230l172 230h119l-192 -344h-193z" />
    <glyph glyph-name="scaron" unicode="&#x161;" horiz-adv-x="1012" 
d="M410 1205l-197 344h119l172 -229l172 229h119l-193 -344h-192zM496 -33q-220 4 -325.5 107.5t-104.5 266.5h172q2 -105 74 -162.5t196 -58.5q118 1 183.5 48t66.5 128q-6 94 -104.5 127t-228.5 56.5t-228.5 87t-102.5 216.5q1 138 102 223.5t296 88.5q208 -4 310.5 -96.5
t102.5 -231.5h-172q0 73 -59.5 125.5t-181.5 54.5q-119 -1 -171 -43t-51 -117q4 -81 102.5 -110t228.5 -50.5t228.5 -88t104.5 -226.5q-1 -155 -113.5 -248.5t-324.5 -96.5z" />
    <glyph glyph-name="Uacute" unicode="&#xda;" horiz-adv-x="1446" 
d="M1294 1459v-946q2 -231 -141.5 -387t-452.5 -163q-300 8 -428 165t-125 385v946h197v-946q1 -173 93.5 -268t271.5 -96q218 4 305 111t84 274v925h196zM979 1955l-283 -344h-118l204 344h197z" />
    <glyph glyph-name="Ydieresis" unicode="&#x178;" horiz-adv-x="1233" 
d="M365 1672v205h176v-205h-176zM524 0v587l-537 872h242l394 -696l389 696h233l-524 -860v-599h-197zM868 1672h-176v205h176v-205z" />
    <glyph glyph-name="ydieresis" unicode="&#xff;" horiz-adv-x="1032" 
d="M266 1472h176v-205h-176v205zM770 1472v-205h-176v205h176zM233 -279q82 -3 117 38.5t76 174.5l-401 1128h192l295 -873l303 873h193l-307.5 -856.5t-175 -449t-123 -173.5t-148.5 -29q-23 1 -54 5.5t-57 6.5v172z" />
    <glyph glyph-name="Thorn" unicode="&#xde;" horiz-adv-x="1286" 
d="M1204 792q-1 -189 -113.5 -296.5t-328.5 -109.5h-410v-386h-196v1459h196v-282h410q205 -1 322.5 -99.5t119.5 -285.5zM762 1005h-410v-451h410q133 3 188.5 69t53.5 160q0 97 -59.5 158.5t-182.5 63.5z" />
    <glyph glyph-name="thorn" unicode="&#xfe;" horiz-adv-x="1212" 
d="M307 1459v-553q41 68 122 126.5t226 62.5q226 -4 348 -158.5t123 -407.5q-2 -252 -126 -404.5t-353 -157.5q-138 4 -222 55.5t-118 113.5v-562h-172v1885h172zM614 120q169 3 249 115.5t79 293.5q1 174 -75 290t-244 120q-168 -4 -244.5 -117.5t-75.5 -292.5
q-3 -173 65 -289t246 -120z" />
    <glyph glyph-name="smallbullet" unicode="&#x2219;" horiz-adv-x="557" 
d="M156 697q2 48 36.5 82.5t81.5 36.5q48 -2 82.5 -36.5t36.5 -82.5q-2 -47 -36.5 -81.5t-82.5 -36.5q-47 2 -81.5 36.5t-36.5 81.5z" />
    <glyph glyph-name="mu" unicode="&#xb5;" horiz-adv-x="1147" 
d="M700 116q-34 -62 -103 -94.5t-171 -33.5q-86 1 -147.5 30t-106.5 81l-106 -525h-174l313 1488h176l-40 -173.5l-47.5 -214t-39.5 -199.5t-16 -130q0 -110 49 -161.5t147 -51.5q54 -2 100.5 9.5t100.5 64.5q24 24 44.5 57t45.5 112t62.5 241.5t97.5 445.5h172
l-58.5 -268.5l-57.5 -267.5t-44 -212t-16 -104q-3 -37 13 -55.5t89 -18.5l-25 -136q-21 -5 -46 -8t-56 -4q-68 1 -107 31t-49 97z" />
    <glyph glyph-name="paragraph" unicode="&#xb6;" 
d="M831 0h-106v1381h-180v-1381h-107v775q-122 -2 -242.5 77t-129.5 267q5 161 112 251.5t256 92.5h516v-82h-119v-1381z" />
    <glyph glyph-name="threequarters" unicode="&#xbe;" horiz-adv-x="1749" 
d="M483 -37h-118l897 1455h118zM49 1144q2 126 80.5 192t206.5 66q125 -1 200.5 -53.5t77.5 -151.5q0 -61 -25 -100.5t-77 -63.5q65 -25 100 -74.5t35 -117.5q-1 -118 -84.5 -185.5t-243.5 -68.5q-125 1 -206 69t-84 197h114q-1 -67 42.5 -120t146.5 -56q79 -1 136 36
t60 120q-2 74 -52 110.5t-120 36.5l-82 -4v86h62q91 1 126.5 36t33.5 91q1 54 -36 88t-128 35q-84 -2 -128 -50t-44 -118h-111zM1466 767h111v-487h127v-86h-127v-194h-115v194h-385v98zM1466 280v360l-290 -360h290z" />
    <glyph glyph-name="minus" unicode="&#x2212;" horiz-adv-x="1700" 
d="M1442 669v-135h-1188v135h1188z" />
    <glyph glyph-name="onequarter" unicode="&#xbc;" horiz-adv-x="1749" 
d="M1262 1418h118l-897 -1455h-118zM360 1402h82v-795h-110v566h-209v77q111 1 173.5 41t63.5 111zM1577 767v-487h127v-86h-127v-194h-115v194h-385v98l389 475h111zM1466 280v360l-290 -360h290z" />
    <glyph glyph-name="onehalf" unicode="&#xbd;" horiz-adv-x="1749" 
d="M1217 509h-111q0 128 72.5 204.5t222.5 78.5q142 -3 216 -70.5t75 -159.5q-4 -108 -70 -167.5t-154 -98.5t-161.5 -83t-94.5 -122h476v-91h-603q2 146 74 220t167 115t169 87t78 136q-2 60 -48.5 100.5t-115.5 42.5q-106 -1 -149.5 -53t-42.5 -139zM123 1250
q111 1 173.5 41t63.5 111h82v-795h-110v566h-209v77zM483 -37h-114l888 1455h123z" />
    <glyph glyph-name="ordfeminine" unicode="&#xaa;" horiz-adv-x="831" 
d="M717 1259v-402q0 -22 10.5 -37t34.5 -16l45 4v-94q-19 -9 -41 -11t-41 -2q-67 0 -97 29t-30 90q-39 -43 -111.5 -83.5t-183.5 -43.5q-118 1 -183.5 60t-66.5 161q4 127 83 176.5t182.5 59.5t182.5 16.5t85 46.5v66q-1 46 -54 70t-143 24q-100 -2 -139 -42.5t-37 -92.5
h-127q2 109 83 174.5t224 67.5q174 0 250 -55.5t74 -165.5zM586 976v119q-120 -31 -255 -47.5t-147 -133.5q1 -52 40 -82.5t104 -31.5q137 4 198 61.5t60 114.5zM807 587v-107h-754v107h754z" />
    <glyph glyph-name="ordmasculine" unicode="&#xba;" horiz-adv-x="889" 
d="M823 1095q4 -162 -81.5 -279t-303.5 -123q-217 7 -299 127.5t-78 274.5q-2 147 84.5 263t292.5 122q207 -4 297 -114t88 -271zM823 587v-107h-762v107h762zM692 1091q2 111 -55.5 194.5t-194.5 87.5q-136 -5 -193.5 -90t-55.5 -188q-3 -104 47.5 -196.5t197.5 -98.5
q148 5 202.5 91.5t51.5 199.5z" />
    <glyph glyph-name="guillemotleft" unicode="&#xab;" horiz-adv-x="905" 
d="M397 869v-172l-213 -163l213 -168v-172l-319 241v193zM807 194l-320 241v193l320 241v-172l-213 -163l213 -168v-172z" />
    <glyph glyph-name="guilsinglleft" unicode="&#x2039;" horiz-adv-x="500" 
d="M397 869v-172l-213 -163l213 -168v-172l-319 241v193z" />
    <glyph glyph-name="guillemotright" unicode="&#xbb;" horiz-adv-x="905" 
d="M504 697v172l319 -241v-193l-319 -241v172l213 168zM414 435l-320 -241v172l213 168l-213 163v172l320 -241v-193z" />
    <glyph glyph-name="plusminus" unicode="&#xb1;" horiz-adv-x="1700" 
d="M918 366h-136v340h-528v135h528v340h136v-340h528v-135h-528v-340zM1446 161v-135h-1192v135h1192z" />
    <glyph glyph-name="guilsinglright" unicode="&#x203a;" horiz-adv-x="500" 
d="M418 439l-320 -241v172l213 168l-213 163v172l320 -241v-193z" />
    <glyph glyph-name="Delta" unicode="&#x2206;" horiz-adv-x="1425" 
d="M733 1431l651 -1431h-1335l651 1431h33zM647 1099l-450 -1008h905z" />
    <glyph glyph-name="partialdiff" unicode="&#x2202;" 
d="M414 1078q-34 0 -54 15.5t-20 46.5q2 60 58 102.5t147 44.5q150 -1 247.5 -138t100.5 -402q-3 -317 -126 -539t-329 -233q-137 4 -219 102t-84 260q3 194 103.5 310.5t257.5 119.5q88 1 144.5 -42t92.5 -146q16 59 22.5 138.5t6.5 164.5q0 169 -33 254.5t-98 85.5
q-53 -9 -101 -72t-116 -72zM524 710q-101 -1 -171.5 -117.5t-73.5 -341.5q3 -136 55 -188t117 -50q123 6 186 137.5t63 321.5q-1 109 -48 173t-128 65z" />
    <glyph glyph-name="notequal" unicode="&#x2260;" horiz-adv-x="1700" 
d="M823 472h619v-131h-705l-245 -315l-107 82l188 233h-319v131h401l209 262h-610v131h700l246 316l98 -78l-180 -238h324v-131h-414z" />
    <glyph glyph-name="periodcentered" unicode="&#xb7;" horiz-adv-x="1028" 
d="M512 550q-51 2 -88 39t-39 88q2 51 39 88t88 39q51 -2 88 -39t39 -88q-2 -51 -39 -88t-88 -39z" />
    <glyph glyph-name="bullet" unicode="&#x2022;" horiz-adv-x="1204" 
d="M598 1046q134 -5 213.5 -92.5t81.5 -202.5q-2 -115 -81.5 -201t-213.5 -90q-131 4 -210 90t-81 201q2 115 81 202.5t210 92.5z" />
    <glyph glyph-name="integral" unicode="&#x222b;" 
d="M717 1435q-81 -14 -103.5 -269.5t-19.5 -582.5q2 -425 -86 -684.5t-295 -267.5q-81 2 -124.5 40t-43.5 100q0 47 26 71t72 23q80 -7 88.5 -64.5t63.5 -66.5q83 11 104.5 253.5t18.5 599.5q-2 411 86 676t295 274q80 -1 123.5 -38.5t44.5 -100.5q0 -46 -26 -68t-73 -22
q-79 8 -87.5 63.5t-63.5 63.5z" />
    <glyph glyph-name="quotesinglbase" unicode="&#x201a;" horiz-adv-x="508" 
d="M119 95q0 45 29.5 77.5t93.5 33.5q60 1 108 -42t51 -138q1 -102 -65 -191.5t-209 -170.5l-25 29q89 59 154 126.5t68 143.5q0 25 -10 32t-31 6q-13 0 -27.5 -0.5t-30.5 -0.5q-47 0 -76 22t-30 73z" />
    <glyph glyph-name="breve" unicode="&#x2d8;" 
d="M262 1402q29 -92 94.5 -117t147.5 -22q81 -3 146.5 22t94.5 117h46q-12 -110 -82.5 -186.5t-204.5 -79.5q-135 3 -205 79.5t-82 186.5h45z" />
    <glyph glyph-name="caron" unicode="&#x2c7;" 
d="M221 1439h58l233 -213l229 213h58l-230 -344h-118z" />
    <glyph glyph-name="dotaccent" unicode="&#x2d9;" 
d="M512 1140q-44 1 -74.5 31.5t-31.5 74.5q1 45 31.5 75.5t74.5 31.5q44 -1 74.5 -31.5t31.5 -75.5q-1 -44 -31.5 -74.5t-74.5 -31.5z" />
    <glyph glyph-name="lozenge" unicode="&#x25ca;" horiz-adv-x="2040" 
d="M434 673l578 737l590 -733l-590 -734zM1016 1230l-438 -553l438 -553l446 553z" />
    <glyph glyph-name="fraction" unicode="&#x2215;" horiz-adv-x="340" 
d="M676 1435l-923 -1460h-90l923 1460h90z" />
    <glyph glyph-name="product" unicode="&#x220f;" horiz-adv-x="1700" 
d="M66 1549h1564v-82h-180v-1868h180v-82h-536v82h168v1868h-828v-1868h168v-82h-536v82h180v1868h-180v82z" />
  </font>
</defs>
</svg>
