<?xml version="1.0" standalone="no"?>
<!DOCTYPE svg PUBLIC "-//W3C//DTD SVG 1.1//EN" "http://www.w3.org/Graphics/SVG/1.1/DTD/svg11.dtd" >
<svg xmlns="http://www.w3.org/2000/svg" xmlns:xlink="http://www.w3.org/1999/xlink" version="1.1">
<metadata></metadata>
<defs>
<font id="fira_sans_otlight" horiz-adv-x="1024" >
<font-face units-per-em="2048" ascent="1638" descent="-410" />
<missing-glyph horiz-adv-x="573" />
<glyph horiz-adv-x="0" />
<glyph horiz-adv-x="0" />
<glyph horiz-adv-x="682" />
<glyph unicode="&#xd;" horiz-adv-x="681" />
<glyph unicode=" "  horiz-adv-x="573" />
<glyph unicode="&#x09;" horiz-adv-x="573" />
<glyph unicode="&#xa0;" horiz-adv-x="573" />
<glyph unicode="!" horiz-adv-x="573" d="M188 74q0 41 27 68.5t72 27.5t71.5 -26.5t26.5 -69.5t-26.5 -70t-71.5 -27t-72 28t-27 69zM219 399v1004h117v-1004h-117z" />
<glyph unicode="&#x22;" horiz-adv-x="829" d="M205 1403h123v-514h-80zM502 1403h123v-514h-80z" />
<glyph unicode="#" d="M25 373v94h178l59 448h-170v95h182l48 352h108l-47 -352h344l47 352h109l-47 -352h163v-95h-176l-59 -448h168v-94h-180l-50 -373h-108l49 373h-344l-49 -373h-109l49 373h-165zM311 467h344l60 448h-344z" />
<glyph unicode="$" d="M57 141l70 80q154 -141 377 -141q156 0 249 75.5t93 217.5q0 127 -75 189.5t-265 119.5q-207 63 -298 149.5t-91 221.5q0 137 98 226t260 103v310h98v-310q205 -10 359 -137l-72 -80q-139 121 -332 121q-131 0 -210.5 -58.5t-79.5 -170.5q0 -109 67.5 -164t253.5 -113 q205 -61 307.5 -149t102.5 -254q0 -164 -105.5 -269.5t-292.5 -121.5v-293h-100v291q-260 10 -414 157z" />
<glyph unicode="%" horiz-adv-x="1740" d="M184 1050.5q0 153.5 83 243.5t222.5 90t222.5 -89t83 -242.5t-83 -243.5t-222.5 -90t-222.5 89t-83 242.5zM299 1051q0 -98 46 -170t144 -72q190 0 191 244q0 98 -46.5 169.5t-144.5 71.5q-190 0 -190 -243zM356 8l947 1430l90 -54l-947 -1429zM946 309.5 q0 153.5 83 243.5t222.5 90t222 -89t82.5 -242.5t-82.5 -244t-222 -90.5t-222.5 89.5t-83 243zM1061 309q0 -98 46 -169.5t144 -71.5q190 0 191 243q0 98 -46.5 170t-144.5 72q-190 0 -190 -244z" />
<glyph unicode="&#x26;" horiz-adv-x="1591" d="M236 342q0 127 65.5 221t208.5 189q-119 111 -169 188.5t-50 179.5q0 131 93 218t249 87q158 0 252 -85t94 -201.5t-66.5 -204.5t-230.5 -195l395 -377q90 144 160 400l115 -43q-70 -248 -189 -432l316 -287h-170l-213 197q-188 -219 -447 -220q-186 0 -299.5 99.5 t-113.5 265.5zM358 340q0 -115 81 -187.5t214 -72.5q203 0 361 190l-426 410q-133 -86 -181.5 -155.5t-48.5 -184.5zM408 1120q0 -76 40.5 -139t155.5 -170q147 92 201.5 157.5t54.5 157.5q0 88 -65.5 146.5t-161.5 58.5q-104 0 -164.5 -60.5t-60.5 -150.5z" />
<glyph unicode="'" horiz-adv-x="532" d="M205 1403h123v-514h-80z" />
<glyph unicode="(" horiz-adv-x="665" d="M113 717q0 309 88 528t258 443l73 -50q-147 -207 -223 -424t-76 -497q0 -279 76 -497t223 -425l-73 -49q-170 223 -258 442.5t-88 528.5z" />
<glyph unicode=")" horiz-adv-x="665" d="M133 -205q147 207 223 425t76 497q0 281 -75.5 498t-223.5 423l74 50q170 -223 258 -442.5t88 -528.5t-88 -528.5t-258 -442.5z" />
<glyph unicode="*" horiz-adv-x="901" d="M76 1192l35 108l299 -114l-17 321h115l-16 -321l299 114l34 -108l-309 -84l203 -250l-92 -65l-176 266l-177 -266l-92 65l201 250z" />
<glyph unicode="+" d="M143 586v104h312v316h114v-316h312v-104h-312v-316h-114v316h-312z" />
<glyph unicode="," horiz-adv-x="573" d="M141 -309l92 299q-47 27 -47 84q0 41 28 68.5t73 27.5q47 0 72.5 -26.5t25.5 -69.5q0 -39 -33 -111l-127 -272h-84z" />
<glyph unicode="-" horiz-adv-x="798" d="M135 586v106h529v-106h-529z" />
<glyph unicode="." horiz-adv-x="573" d="M188 74q0 41 27 68.5t72 27.5t71.5 -26.5t26.5 -69.5t-26.5 -70t-71.5 -27t-72 28t-27 69z" />
<glyph unicode="/" horiz-adv-x="1064" d="M246 -195l473 1842l100 -25l-473 -1841z" />
<glyph unicode="0" horiz-adv-x="1118" d="M123 682q0 346 111.5 524t324.5 178t324.5 -179t111.5 -525t-111.5 -524.5t-324.5 -178.5t-324.5 179.5t-111.5 525.5zM246 682q0 -313 75.5 -457.5t237.5 -144.5t237.5 143.5t75.5 456.5t-75.5 457.5t-237.5 144.5t-237.5 -143.5t-75.5 -456.5z" />
<glyph unicode="1" horiz-adv-x="733" d="M31 1114l389 248h98v-1362h-115v1233l-315 -205z" />
<glyph unicode="2" horiz-adv-x="952" d="M51 1159q178 225 412 225q160 0 268.5 -95t108.5 -263q0 -178 -137.5 -364.5t-501.5 -555.5h659l-16 -106h-781v102q207 213 310.5 326t192.5 230.5t119 197.5t30 170q0 119 -73 187.5t-185 68.5q-96 0 -171 -45t-149 -139z" />
<glyph unicode="3" horiz-adv-x="985" d="M51 154l82 69q123 -143 309 -143q150 0 233 84t83 221q0 283 -322 283h-71l14 96h49q123 0 208 71.5t85 202.5q0 111 -71.5 178.5t-192.5 67.5q-168 0 -303 -123l-66 76q162 147 377 147q172 0 275.5 -98t103.5 -237q0 -231 -240 -322l8 -4q123 -27 197 -111t74 -227 q0 -176 -122 -292t-319 -116q-233 0 -391 177z" />
<glyph unicode="4" horiz-adv-x="1028" d="M92 354v95l408 935l98 -41l-383 -884h463l14 397h103v-397h182v-105h-182v-354h-117v354h-586z" />
<glyph unicode="5" horiz-adv-x="1030" d="M92 150l82 67q121 -139 301 -139q147 0 233.5 98t86.5 264q0 164 -79 246t-212 82q-109 0 -228 -59h-92v653h684l-16 -102h-555v-455q119 57 235 57q172 0 279 -113.5t107 -306.5q0 -205 -122 -335t-321 -130q-233 0 -383 173z" />
<glyph unicode="6" horiz-adv-x="1062" d="M123 590q0 379 134 586.5t357 207.5q152 0 269 -92l-56 -82q-94 74 -209 74q-172 0 -267 -161.5t-103 -436.5q129 201 332 201q160 0 265 -109.5t105 -318.5q0 -217 -115.5 -349.5t-287.5 -132.5q-115 0 -199 49.5t-132 136.5t-70.5 193.5t-22.5 233.5zM244 563 q6 -485 303 -485q131 0 205.5 102.5t74.5 274.5q0 170 -70.5 251.5t-193.5 81.5q-176 0 -319 -225z" />
<glyph unicode="7" horiz-adv-x="833" d="M20 1257v105h762v-96l-540 -1289l-111 35l533 1245h-644z" />
<glyph unicode="8" horiz-adv-x="1128" d="M113 358q0 252 295 375q-233 111 -234 320q0 158 117 244.5t274.5 86.5t274 -82.5t116.5 -250.5q0 -109 -59 -189t-186 -143q156 -61 230.5 -147.5t74.5 -209.5q0 -170 -127 -277.5t-328 -107.5q-207 0 -327.5 104.5t-120.5 276.5zM238 358q0 -135 87 -206.5t240 -71.5 q150 0 238 73.5t88 202.5q0 123 -81 187.5t-308 150.5q-264 -104 -264 -336zM293 1051q0 -111 67.5 -171.5t260.5 -127.5q115 61 166 130.5t51 164.5q0 117 -75 179t-198 62t-197.5 -60t-74.5 -177z" />
<glyph unicode="9" horiz-adv-x="1062" d="M113 942q0 201 119.5 321.5t293.5 120.5q203 0 308.5 -146t105.5 -398q0 -195 -44 -335t-140.5 -240.5t-224.5 -168t-320 -129.5l-29 94q303 90 465 243t174 407h-4q-119 -197 -336 -197q-158 0 -263 113.5t-105 314.5zM233 940q1 -326 271 -326q186 0 315 211 q-4 233 -72.5 345t-218.5 112q-137 0 -216 -88t-79 -254z" />
<glyph unicode=":" horiz-adv-x="573" d="M188 74q0 41 27 68.5t72 27.5t71.5 -26.5t26.5 -69.5t-26.5 -70t-71.5 -27t-72 28t-27 69zM188 872q0 41 27 69t72 28t71.5 -27t26.5 -70t-26.5 -69.5t-71.5 -26.5t-72 27.5t-27 68.5z" />
<glyph unicode=";" horiz-adv-x="573" d="M141 -309l92 299q-47 27 -47 84q0 41 28 68.5t73 27.5q47 0 72.5 -26.5t25.5 -69.5q0 -45 -33 -111l-127 -272h-84zM188 872q0 41 27 69t72 28t71.5 -27t26.5 -70t-26.5 -69.5t-71.5 -26.5t-72 27.5t-27 68.5z" />
<glyph unicode="&#x3c;" d="M143 631v102l711 338l45 -94l-633 -295l635 -291l-47 -98z" />
<glyph unicode="=" d="M143 406v106h738v-106h-738zM143 762v106h738v-106h-738z" />
<glyph unicode="&#x3e;" d="M123 391l635 291l-633 295l45 94l711 -338v-102l-711 -338z" />
<glyph unicode="?" horiz-adv-x="1085" d="M133 1235q162 190 399 190q164 0 256.5 -82.5t92.5 -203.5q0 -88 -39 -153.5t-94.5 -107.5t-109.5 -83t-93 -105.5t-39 -152.5v-138h-111v154q0 100 37 173t91.5 116t107.5 81t90 90t37 122q0 84 -65.5 137t-172.5 53q-174 0 -307 -151zM352 74q0 41 27 68.5t72 27.5 t71.5 -26.5t26.5 -69.5t-26.5 -70t-71.5 -27t-72 28t-27 69z" />
<glyph unicode="@" horiz-adv-x="2088" d="M174 496q0 256 111.5 467t326.5 336.5t492 125.5q195 0 351.5 -64.5t255.5 -175t151.5 -252.5t52.5 -302q0 -293 -101.5 -447.5t-265.5 -154.5q-104 0 -169.5 57t-80.5 137h-8q-76 -180 -289 -180q-154 0 -254 115.5t-100 318.5q0 244 133 369t307 125q145 0 287 -68 v-553q0 -227 172 -227q113 0 181.5 118.5t68.5 385.5q0 303 -186.5 500.5t-505.5 197.5q-246 0 -432.5 -112.5t-281.5 -300t-95 -416.5q0 -367 216 -591t576 -224q211 -1 408 71l33 -96q-215 -76 -443 -76q-410 0 -660.5 245t-250.5 671zM764 477q0 -166 69.5 -252 t186.5 -86q96 0 157.5 57.5t86.5 120.5v525q-80 35 -174 35q-137 0 -231.5 -105.5t-94.5 -294.5z" />
<glyph unicode="A" horiz-adv-x="1116" d="M20 0l461 1403h154l461 -1403h-127l-121 379h-584l-121 -379h-123zM297 481h518l-256 813h-4z" />
<glyph unicode="B" horiz-adv-x="1239" d="M225 0v1403h328q491 0 491 -344q0 -254 -241 -309v-5q131 -20 217 -103t86 -245q0 -203 -143.5 -300t-384.5 -97h-353zM346 102h260q373 0 373 291q0 297 -326 297h-307v-588zM346 791h285q139 0 214 68.5t75 193.5q0 247 -335 247h-3h-236v-509z" />
<glyph unicode="C" horiz-adv-x="1138" d="M143 702q0 344 156 533.5t389 189.5q215 0 367 -125l-74 -83q-123 104 -285 104q-188 0 -307 -151.5t-119 -467.5q0 -307 120 -462.5t310 -155.5q178 0 310 113l67 -84q-150 -135 -383 -136q-246 0 -398.5 189.5t-152.5 535.5z" />
<glyph unicode="D" horiz-adv-x="1304" d="M225 0v1403h275q111 0 199.5 -15.5t178 -60.5t148.5 -118.5t97 -199.5t38 -296t-39 -299t-101.5 -206t-150.5 -125t-173 -65.5t-183 -17.5h-289zM346 102h180q104 0 187.5 26t160 88.5t118.5 188t42 308.5q0 150 -30.5 260t-76.5 171.5t-119 98.5t-139.5 47t-152.5 10 h-170v-1198z" />
<glyph unicode="E" horiz-adv-x="1052" d="M225 0v1403h709l-14 -103h-574v-522h498v-102h-498v-574h604v-102h-725z" />
<glyph unicode="F" horiz-adv-x="1005" d="M225 0v1403h699l-15 -103h-563v-546h488v-103h-488v-651h-121z" />
<glyph unicode="G" horiz-adv-x="1280" d="M143 702q0 342 170 532.5t410 190.5q233 0 389 -139l-74 -76q-125 111 -313 111q-193 0 -324 -153.5t-131 -465t117 -466t320 -154.5q176 0 311 74v501h-287l-14 103h420v-668q-203 -115 -437 -115q-254 0 -405.5 186.5t-151.5 538.5z" />
<glyph unicode="H" horiz-adv-x="1351" d="M225 0v1403h121v-612h660v612h120v-1403h-120v688h-660v-688h-121z" />
<glyph unicode="I" horiz-adv-x="571" d="M225 0v1403h121v-1403h-121z" />
<glyph unicode="J" horiz-adv-x="589" d="M10 -182q131 51 182.5 130t51.5 220v1235h121v-1231q0 -195 -72 -289t-250 -162z" />
<glyph unicode="K" horiz-adv-x="1116" d="M225 0v1403h121v-1403h-121zM354 754l580 649h147l-581 -643l616 -760h-153z" />
<glyph unicode="L" horiz-adv-x="972" d="M225 0v1403h121v-1292h586l-17 -111h-690z" />
<glyph unicode="M" horiz-adv-x="1595" d="M143 0l133 1403h168l351 -1088h8l344 1088h170l135 -1403h-117l-71 711q-33 322 -47 561h-5l-356 -1106h-119l-364 1106h-4q-16 -231 -47 -561l-64 -711h-115z" />
<glyph unicode="N" horiz-adv-x="1376" d="M225 0v1403h160l664 -1270h4q-17 241 -17 440v830h115v-1403h-162l-661 1268h-4q16 -201 16 -441v-827h-115z" />
<glyph unicode="O" horiz-adv-x="1398" d="M143 698q0 340 153 533.5t404.5 193.5t403 -190.5t151.5 -534.5q0 -338 -152.5 -530.5t-402.5 -192.5q-254 0 -405.5 188.5t-151.5 532.5zM270 698q0 -305 116 -460.5t314.5 -155.5t313 156.5t114.5 461.5q0 307 -114.5 464t-313 157t-314.5 -157.5t-116 -465.5z" />
<glyph unicode="P" horiz-adv-x="1165" d="M225 0v1403h320q266 0 402 -100.5t136 -319.5q0 -436 -534 -436h-203v-547h-121zM346 649h213q193 0 295 74t102 260q0 317 -399 317h-211v-651z" />
<glyph unicode="Q" horiz-adv-x="1398" d="M143 698q0 340 153 533.5t404.5 193.5t403 -190.5t151.5 -534.5q0 -502 -327 -653l2 -4q268 0 418 -129l-80 -104q-111 98 -241 135t-327 37q-254 0 -405.5 186t-151.5 530zM270 698q0 -305 116 -460.5t314.5 -155.5t313 156.5t114.5 461.5q0 307 -114.5 464t-313 157 t-314.5 -157.5t-116 -465.5z" />
<glyph unicode="R" horiz-adv-x="1198" d="M225 0v1403h348q506 0 506 -381q0 -303 -354 -375l422 -647h-146l-401 631h-254v-631h-121zM346 731h242q364 0 364 289q0 149 -90 214.5t-282 65.5h-234v-569z" />
<glyph unicode="S" horiz-adv-x="1112" d="M72 147l71 84q165 -149 391 -149h3q162 0 259 80t97 221q0 127 -78 192.5t-272 124.5q-221 70 -315.5 154t-94.5 233q0 152 118 245t306 93h3q238 0 413 -149l-74 -80q-143 125 -338 125q-135 0 -219 -60.5t-84 -169t71.5 -168t264.5 -118.5q213 -66 319.5 -156 t106.5 -262q0 -184 -130 -297t-353 -113q-285 0 -465 170z" />
<glyph unicode="T" horiz-adv-x="1021" d="M41 1296v107h950l-14 -107h-402v-1296h-120v1296h-414z" />
<glyph unicode="U" horiz-adv-x="1335" d="M205 446v957h121v-950q0 -371 342 -371t342 371v950h120v-957q0 -221 -120.5 -345t-341.5 -124q-223 0 -343 123t-120 346z" />
<glyph unicode="V" horiz-adv-x="1114" d="M31 1403h131l395 -1270h4l395 1270h127l-456 -1403h-135z" />
<glyph unicode="W" horiz-adv-x="1630" d="M51 1403h121l260 -1272h4l312 1272h133l315 -1272h4l264 1272h115l-305 -1403h-152l-307 1249h-4l-307 -1249h-148z" />
<glyph unicode="X" horiz-adv-x="1062" d="M10 0l445 754l-389 649h143l317 -565h4l330 565h135l-395 -643l453 -760h-144l-381 672h-4l-377 -672h-137z" />
<glyph unicode="Y" horiz-adv-x="1058" d="M10 1403h137l383 -725h5l385 725h129l-457 -836v-567h-121v565z" />
<glyph unicode="Z" horiz-adv-x="1044" d="M72 0v100l747 1198h-672v105h805v-100l-745 -1197h731l-14 -106h-852z" />
<glyph unicode="[" horiz-adv-x="665" d="M184 -207v1835h338v-90h-231v-1655h231v-90h-338z" />
<glyph unicode="\" horiz-adv-x="1064" d="M246 1622l100 25l473 -1842l-100 -24z" />
<glyph unicode="]" horiz-adv-x="665" d="M143 -117h232v1655h-232v90h338v-1835h-338v90z" />
<glyph unicode="^" horiz-adv-x="1064" d="M92 1079l391 625h99l391 -625h-131l-310 510l-309 -510h-131z" />
<glyph unicode="_" horiz-adv-x="1064" d="M82 -133h901v-107h-901v107z" />
<glyph unicode="`" horiz-adv-x="561" d="M61 1442l66 106l373 -215l-41 -69z" />
<glyph unicode="a" horiz-adv-x="1067" d="M92 299q0 166 125 253t344 87h184v106q0 127 -60 187.5t-195.5 60.5t-288.5 -59l-33 92q172 68 338 68q356 0 356 -342v-519q0 -84 24.5 -120.5t78.5 -53.5l-27 -82q-78 12 -121 53.5t-57 127.5v2q-109 -182 -338 -183q-154 0 -242 88.5t-88 233.5zM217 305 q0 -111 60.5 -169t173.5 -58h2q195 0 292 194v275h-178q-350 0 -350 -242z" />
<glyph unicode="b" horiz-adv-x="1187" d="M225 0v1507l117 15v-617q127 188 328 189q193 0 289 -144.5t96 -408.5q0 -256 -110.5 -410t-303.5 -154q-190 0 -305 168l-8 -145h-103zM342 264q113 -184 281 -184q307 0 307 461q0 452 -283 452q-178 0 -305 -217v-512z" />
<glyph unicode="c" horiz-adv-x="980" d="M133 530q0 254 124 409t333 155q186 0 319 -111l-61 -80q-113 90 -258 90q-152 0 -242 -118.5t-90 -344.5q0 -223 89 -337.5t243 -114.5q145 0 262 94l57 -82q-137 -113 -327 -113q-209 0 -329 148.5t-120 404.5z" />
<glyph unicode="d" horiz-adv-x="1193" d="M133 530q0 254 112.5 409t301.5 155q190 0 305 -152v580l117 -15v-1507h-103l-14 162q-125 -184 -324 -185q-193 0 -294 146.5t-101 406.5zM258 530q0 -219 76 -334.5t215 -115.5q182 0 303 207v524q-106 182 -283 182q-147 0 -229 -118.5t-82 -344.5z" />
<glyph unicode="e" horiz-adv-x="1101" d="M133 530q0 256 117 410t315.5 154t306 -140.5t107.5 -386.5q0 -37 -4 -78h-721q10 -205 103.5 -308t238.5 -103q164 0 289 108l55 -80q-141 -129 -348 -129q-217 0 -338 148.5t-121 404.5zM254 582h608q-4 199 -79 305t-218 106q-135 0 -219 -102.5t-92 -308.5z" />
<glyph unicode="f" horiz-adv-x="671" d="M51 975v96h199v182q0 125 75.5 197t221.5 72q129 0 248 -58l-39 -90q-100 47 -203 47q-100 0 -143 -42t-43 -132v-176h282l-14 -96h-268v-975h-117v975h-199z" />
<glyph unicode="g" horiz-adv-x="1040" d="M72 -127l106 2q0 -106 77 -153.5t253 -47.5q336 0 336 209q0 84 -59.5 130t-166.5 46h-163q-139 0 -211 58.5t-72 148.5q0 100 109 170q-164 96 -164 295q0 158 105.5 260.5t283.5 102.5q305 0 469 71l35 -110q-96 -33 -283 -33q170 -84 170 -289q0 -162 -105.5 -260 t-281.5 -98q-76 0 -150 26q-31 -23 -53 -57.5t-22 -62.5q0 -115 176 -115h168q162 0 250 -80t88 -195q0 -154 -122 -232.5t-337 -78.5q-207 0 -321.5 64.5t-114.5 228.5zM236 731q0 -123 72.5 -193.5t199.5 -70.5q129 0 199.5 68.5t70.5 195.5q0 129 -67.5 199.5 t-202.5 70.5q-129 0 -200.5 -73.5t-71.5 -196.5z" />
<glyph unicode="h" horiz-adv-x="1189" d="M225 0v1507l117 15v-621q131 193 348 193q150 0 217.5 -82t67.5 -244v-768h-117v735q0 139 -46 199.5t-153 60.5q-176 0 -317 -233v-762h-117z" />
<glyph unicode="i" horiz-adv-x="546" d="M184 1399q0 37 24.5 61.5t63.5 24.5t63.5 -24.5t24.5 -61.5t-24.5 -61.5t-63.5 -24.5t-63.5 24.5t-24.5 61.5zM215 0v1071h117v-1071h-117z" />
<glyph unicode="j" horiz-adv-x="546" d="M-10 -328q129 63 177 133t48 232v1034h117v-1030q0 -109 -16.5 -181.5t-61.5 -123.5t-89 -81t-130 -73zM184 1399q0 37 24.5 61.5t63.5 24.5t63.5 -24.5t24.5 -61.5t-24.5 -61.5t-63.5 -24.5t-63.5 24.5t-24.5 61.5z" />
<glyph unicode="k" horiz-adv-x="989" d="M225 0v1507l117 15v-1522h-117zM354 586l441 485h143l-449 -481l500 -590h-145z" />
<glyph unicode="l" horiz-adv-x="555" d="M205 176v1331l117 15v-1342q0 -102 84 -102q37 0 75 14l33 -84q-55 -31 -129 -31q-180 0 -180 199z" />
<glyph unicode="m" horiz-adv-x="1761" d="M225 0v1071h101l8 -182q137 205 338 205q219 0 260 -205q139 205 342 205q272 0 272 -326v-768h-116v748q0 129 -45.5 188t-139.5 59q-158 0 -301 -229v-766h-117v748q0 129 -45 188t-139 59q-158 0 -301 -229v-766h-117z" />
<glyph unicode="n" horiz-adv-x="1189" d="M225 0v1071h101l8 -182q135 205 356 205q150 0 217.5 -82t67.5 -244v-768h-117v748q0 131 -47 189t-152 58q-174 0 -317 -229v-766h-117z" />
<glyph unicode="o" horiz-adv-x="1171" d="M133 534.5q0 258.5 123 409t334 150.5t329.5 -148.5t118.5 -406.5t-121.5 -410t-332.5 -152t-331 149.5t-120 408zM258 535q0 -223 85 -341t241 -118q158 0 243.5 117.5t85.5 345.5q0 223 -84.5 339.5t-238.5 116.5q-158 0 -245 -116.5t-87 -343.5z" />
<glyph unicode="p" horiz-adv-x="1187" d="M225 -420v1491h101l8 -176q133 199 340 199q193 0 287 -144.5t94 -408.5q0 -258 -106.5 -411t-299 -153t-307.5 158v-538zM342 264q51 -84 127 -134t162 -50q299 0 299 461q0 452 -278 452h-1q-182 0 -309 -217v-512z" />
<glyph unicode="q" horiz-adv-x="1193" d="M133 530q0 254 112.5 409t301.5 155q190 0 305 -152l14 129h103v-1491l-117 17v565q-125 -184 -324 -185q-193 0 -294 146.5t-101 406.5zM258 530q0 -219 77 -334.5t214 -115.5q182 0 303 207v524q-106 182 -283 182q-145 0 -228 -119.5t-83 -343.5z" />
<glyph unicode="r" horiz-adv-x="755" d="M225 0v1071h101l12 -235q47 135 120.5 196.5t186.5 61.5q57 0 100 -13l-22 -116q-43 12 -94 12q-190 0 -287 -313v-664h-117z" />
<glyph unicode="s" horiz-adv-x="937" d="M61 109l66 79q138 -112 314 -112h3q125 0 201 52t76 146q0 98 -57.5 146.5t-227.5 93.5q-160 43 -239.5 113.5t-79.5 189.5q0 125 102.5 201t265.5 76q187 0 320 -90l-53 -86q-119 77 -265 77h-4q-113 0 -179 -46t-66 -124q0 -86 58 -133t204 -84q176 -45 261 -118.5 t85 -204.5q0 -150 -117 -229t-285 -79q-231 0 -383 132z" />
<glyph unicode="t" horiz-adv-x="747" d="M51 981v90h199v256l117 14v-270h280l-12 -90h-268v-709q0 -100 38.5 -147t122.5 -47q76 0 162 49l47 -82q-100 -68 -225 -68q-129 0 -195.5 75t-66.5 212v717h-199z" />
<glyph unicode="u" horiz-adv-x="1177" d="M215 301v770h117v-756q0 -127 46 -183t142 -56q172 0 316 229v766h116v-1071h-100l-8 182q-135 -205 -344 -205q-285 0 -285 324z" />
<glyph unicode="v" horiz-adv-x="958" d="M31 1071h127l325 -962h4l318 962h123l-377 -1071h-137z" />
<glyph unicode="w" horiz-adv-x="1433" d="M51 1071h121l223 -971h4l256 971h133l248 -969h4l226 969h116l-262 -1071h-162l-237 948h-4l-242 -948h-158z" />
<glyph unicode="x" horiz-adv-x="935" d="M20 0l377 571l-327 500h141l256 -422h4l260 422h137l-329 -496l376 -575h-141l-305 494h-6l-303 -494h-140z" />
<glyph unicode="y" horiz-adv-x="954" d="M31 1071h129l329 -977h5l305 977h125l-361 -1075q-61 -188 -158.5 -287.5t-285.5 -128.5l-17 96q154 29 229 104t122 220h-41z" />
<glyph unicode="z" horiz-adv-x="870" d="M61 0v90l601 881h-551v100h688v-90l-598 -881h594l-15 -100h-719z" />
<glyph unicode="{" horiz-adv-x="665" d="M92 664v104q82 0 119 39t37 129v473q0 129 71.5 179t212.5 50v-90q-98 0 -138 -28.5t-40 -112.5v-475q0 -86 -29.5 -138.5t-113.5 -74.5v-6q143 -35 143 -209v-479q0 -84 40 -113t138 -29v-90q-141 0 -212.5 50.5t-71.5 179.5v479q0 162 -156 162z" />
<glyph unicode="|" horiz-adv-x="778" d="M338 -207v1847h102v-1847h-102z" />
<glyph unicode="}" horiz-adv-x="665" d="M133 -117q98 0 138 29t40 113v479q0 174 144 209v6q-84 23 -114 75t-30 138v475q0 84 -40 112.5t-138 28.5v90q141 0 213 -50t72 -179v-473q0 -90 37 -129t118 -39v-104q-156 0 -155 -162v-479q0 -129 -72 -179.5t-213 -50.5v90z" />
<glyph unicode="~" d="M123 602q37 70 100.5 109t134.5 39q63 0 169 -46.5t141 -46.5q98 0 155 91l78 -54q-77 -141 -233 -141q-61 0 -170 46t-144 46q-98 0 -155 -90z" />
<glyph unicode="&#xa1;" horiz-adv-x="573" d="M188 872q0 43 27 70t72 27t71.5 -28t26.5 -69t-26.5 -68.5t-71.5 -27.5t-72 26.5t-27 69.5zM219 -403l21 950h94l20 -950h-135z" />
<glyph unicode="&#xa2;" d="M129 530q0 242 107.5 393.5t298.5 168.5v301h98v-301q156 -17 262 -109l-61 -80q-106 90 -256 90q-152 0 -238 -117.5t-86 -345.5q0 -221 89 -336.5t237 -115.5q141 0 258 96l57 -84q-106 -92 -262 -108v-289h-101v287q-190 14 -296.5 160.5t-106.5 389.5z" />
<glyph unicode="&#xa3;" d="M100 0v102q80 47 112 98.5t32 139.5v340h-133v96h133v271q0 156 98 246.5t256 90.5q186 0 320 -149l-80 -64q-106 113 -240 113q-104 0 -171 -60t-67 -177v-271h390v-96h-390v-309q0 -106 -27.5 -161.5t-88.5 -96.5v-7h626l-14 -106h-756z" />
<glyph unicode="&#xa4;" d="M43 285l170 170q-80 102 -80 243.5t78 241.5l-168 170l74 74l170 -170q94 70 227 69q123 0 223 -69l168 168l76 -72l-166 -168q80 -102 80 -244q0 -143 -82 -247l168 -164l-76 -74l-170 166q-98 -66 -221 -66q-131 0 -227 68l-170 -170zM250 698q0 -133 69.5 -210.5 t194.5 -77.5t194.5 77.5t69.5 210.5t-69.5 211t-194.5 78t-194.5 -78t-69.5 -211z" />
<glyph unicode="&#xa5;" d="M23 1362h137l352 -637h6l352 637h131l-385 -653h224v-97h-269v-180h269v-96h-269v-336h-118v336h-269v96h269v180h-269v97h222z" />
<glyph unicode="&#xa6;" horiz-adv-x="778" d="M338 -207v727h102v-727h-102zM338 911v729h102v-729h-102z" />
<glyph unicode="&#xa7;" d="M129 -29l66 80q121 -92 290 -92q106 0 171 42t65 112q0 80 -49 118.5t-252 120.5q-160 66 -223.5 130t-63.5 177q0 141 160 244q-104 76 -105 189q0 127 99.5 198.5t247.5 71.5q195 0 348 -109l-66 -79q-125 90 -282 90q-104 0 -166 -44t-62 -116q0 -82 48 -117t243 -115 q158 -63 227.5 -130.5t69.5 -178.5q0 -143 -158 -246q102 -72 103 -188q0 -129 -101.5 -198.5t-253.5 -69.5q-201 0 -356 110zM252 676q0 -96 52 -138t263 -130q66 -27 103 -43q106 78 106 186q0 94 -69.5 144t-346.5 161q-108 -78 -108 -180z" />
<glyph unicode="&#xa8;" horiz-adv-x="671" d="M61 1368q0 35 22.5 57.5t59.5 22.5t59.5 -22.5t22.5 -57.5t-22.5 -57.5t-59.5 -22.5t-59.5 22.5t-22.5 57.5zM446 1368q0 35 23 57.5t59.5 22.5t59 -22.5t22.5 -57.5t-22.5 -57.5t-59 -22.5t-59.5 22.5t-23 57.5z" />
<glyph unicode="&#xa9;" horiz-adv-x="1638" d="M225 895q0 248 173 421t421 173t421 -173t173 -421t-172 -421t-422 -173q-248 0 -421 173t-173 421zM315 895q0 -215 145.5 -363.5t358.5 -148.5q215 0 358.5 148.5t143.5 363.5q0 217 -144.5 365.5t-357.5 148.5t-358.5 -149.5t-145.5 -364.5zM532 901q0 164 84 256 t207 92q117 1 203 -67l-53 -74q-66 53 -146 53q-84 0 -136 -62.5t-52 -197.5q0 -260 192 -260q80 0 158 57l51 -71q-92 -78 -213 -78q-131 0 -213 92t-82 260z" />
<glyph unicode="&#xaa;" horiz-adv-x="1228" d="M227 891q0 131 106.5 201.5t295.5 70.5h151v78q0 100 -50 146.5t-163 46.5q-117 0 -243 -50l-33 82q147 55 291 56q162 0 233.5 -70t71.5 -205v-411q0 -68 16.5 -96.5t59.5 -41.5l-23 -69q-66 12 -100.5 42.5t-46.5 96.5q-94 -139 -283 -139q-131 0 -207 71.5t-76 190.5z M254 0v106h698v-106h-698zM346 897q0 -86 49.5 -133t139.5 -47q160 0 245 153v211h-145q-289 0 -289 -184z" />
<glyph unicode="&#xab;" horiz-adv-x="1064" d="M143 557v84l338 422l72 -49l-279 -416l279 -414l-72 -49zM512 557v84l338 422l72 -49l-279 -416l279 -414l-72 -49z" />
<glyph unicode="&#xac;" d="M143 586v106h738v-354h-113v248h-625z" />
<glyph unicode="&#xad;" horiz-adv-x="798" d="M135 586v106h529v-106h-529z" />
<glyph unicode="&#xae;" horiz-adv-x="1312" d="M164 1006q0 205 143.5 349t350 144t349 -144.5t142.5 -348.5q0 -207 -141.5 -347.5t-350 -140.5t-351 140.5t-142.5 347.5zM246 1006q0 -174 118.5 -294t292.5 -120t289 118.5t115 295t-115 298t-289 121.5t-292.5 -121.5t-118.5 -297.5zM467 733v553h156q233 0 233 -162 q0 -123 -139 -153l188 -238h-114l-173 228h-63v-228h-88zM555 1032h76q135 0 135 92q0 88 -148 88h-63v-180z" />
<glyph unicode="&#xaf;" horiz-adv-x="602" d="M61 1366v96h480v-96h-480z" />
<glyph unicode="&#xb0;" d="M143 1135q0 133 89.5 211.5t212 78.5t207.5 -78.5t85 -213.5q0 -133 -85 -212t-208 -79q-125 0 -213 77.5t-88 215.5zM256 1134.5q0 -92.5 52 -147.5t136 -55q82 0 131.5 54t49.5 147q0 94 -48.5 148t-132.5 54t-136 -54t-52 -146.5z" />
<glyph unicode="&#xb1;" d="M143 0v109h738v-109h-738zM143 586v104h310v316h118v-316h310v-104h-310v-275h-118v275h-310z" />
<glyph unicode="&#xb2;" horiz-adv-x="819" d="M121 1376q129 145 297 146q117 0 191.5 -63.5t74.5 -166.5q0 -109 -93 -221.5t-333 -331.5h440l-12 -86h-557v74q129 125 184.5 180.5t130 139t102 139t27.5 102.5q0 66 -43 106t-116 40q-121 0 -221 -107z" />
<glyph unicode="&#xb3;" horiz-adv-x="819" d="M82 758l63 59q94 -94 222 -94q96 0 152 46t56 126q0 166 -210 166h-66l16 80h43q74 0 133.5 41t59.5 114q0 63 -44 100.5t-124 37.5q-115 0 -225 -84l-52 61q125 111 283 111q123 0 198 -63.5t75 -153.5q0 -66 -45.5 -119t-114.5 -70v-4q78 -18 130 -75.5t52 -141.5 q0 -113 -87 -184.5t-228 -71.5q-164 0 -287 119z" />
<glyph unicode="&#xb4;" horiz-adv-x="561" d="M61 1333l373 215l66 -106l-398 -178z" />
<glyph unicode="&#xb5;" horiz-adv-x="1187" d="M225 -416v1487h117v-741q0 -254 199 -254q84 0 163.5 65.5t141.5 163.5v766h117v-715q0 -172 57 -356l-100 -18q-41 90 -56 223q-137 -227 -338 -228q-150 0 -211 121l-6 -2q25 -119 25 -223v-276z" />
<glyph unicode="&#xb6;" horiz-adv-x="1392" d="M184 1026q0 166 123 271.5t346 105.5h453v-1809l-109 -14v1733h-235v-1719l-109 -14v1073q-233 2 -351 105.5t-118 267.5z" />
<glyph unicode="&#xb7;" horiz-adv-x="573" d="M188 647q0 41 27 68.5t72 27.5t71.5 -26.5t26.5 -69.5t-26.5 -69.5t-71.5 -26.5t-72 27.5t-27 68.5z" />
<glyph unicode="&#xb8;" horiz-adv-x="518" d="M61 -424q8 18 45 80q53 -29 119 -29q115 0 115 82q0 49 -41 68.5t-121 21.5l17 234h90v-170q172 -18 172 -156q0 -82 -62.5 -126t-158.5 -44q-102 0 -175 39z" />
<glyph unicode="&#xb9;" horiz-adv-x="819" d="M158 1341l295 166h84v-854h-109v742l-223 -125z" />
<glyph unicode="&#xba;" horiz-adv-x="1228" d="M227 1075q0 207 105.5 327t285.5 120q178 0 279.5 -118t101.5 -325t-104 -328.5t-282.5 -121.5t-282 119.5t-103.5 326.5zM264 -6v106h699v-106h-699zM342 1075q0 -176 69.5 -267t200.5 -91t203 92t72 270q0 174 -71 264.5t-198 90.5q-133 0 -204.5 -90.5t-71.5 -268.5z " />
<glyph unicode="&#xbb;" horiz-adv-x="1064" d="M143 184l277 414l-277 416l72 49l338 -422v-84l-338 -422zM512 184l276 414l-276 416l72 49l338 -422v-84l-338 -422z" />
<glyph unicode="&#xbc;" horiz-adv-x="1843" d="M158 1237l295 166h84v-854h-109v741l-223 -125zM483 -117l830 1639l88 -43l-828 -1639zM1149 209v72l283 593l98 -32l-260 -545h276l10 238h91v-238h112v-88h-112v-209h-101v209h-397z" />
<glyph unicode="&#xbd;" horiz-adv-x="1843" d="M158 1237l295 166h84v-854h-109v741l-223 -125zM483 -117l830 1639l88 -43l-828 -1639zM1225 723q129 145 297 145q117 0 191.5 -63.5t74.5 -165.5q0 -109 -93 -221.5t-333 -331.5h440l-12 -86h-557v74q129 125 184.5 180t130 139t102 139.5t27.5 102.5q0 66 -43 105.5 t-116 39.5q-121 0 -222 -106z" />
<glyph unicode="&#xbe;" horiz-adv-x="1843" d="M80 653l63 60q94 -94 222 -95q96 0 152 46.5t56 126.5q0 166 -211 165h-65l16 80h43q74 0 133.5 41t59.5 115q0 63 -44 100t-124 37q-115 0 -225 -84l-52 62q127 111 283 110q123 0 197.5 -63.5t74.5 -153.5q0 -66 -45 -119t-114 -69v-4q78 -18 130 -76t52 -141 q0 -113 -87 -184.5t-228 -71.5q-164 0 -287 118zM500 -117l829 1639l88 -43l-827 -1639zM1141 209v72l282 593l99 -32l-260 -545h276l10 238h90v-238h113v-88h-113v-209h-100v209h-397z" />
<glyph unicode="&#xbf;" horiz-adv-x="1085" d="M205 -133q0 88 39 154.5t94 108.5t109.5 82t93.5 99.5t39 137.5v98h110v-115q0 -90 -37 -158.5t-91 -109.5t-107.5 -79t-90 -91t-36.5 -123q0 -84 65.5 -137t171.5 -53q174 0 307 151l80 -61q-162 -190 -399 -191q-164 0 -256 83t-92 204zM535 872q0 43 26.5 70t71.5 27 q43 0 70.5 -28t27.5 -69t-27.5 -68.5t-70.5 -27.5q-45 0 -71.5 26.5t-26.5 69.5z" />
<glyph unicode="&#xc0;" horiz-adv-x="1116" d="M20 0l461 1403h154l461 -1403h-127l-121 379h-584l-121 -379h-123zM297 481h518l-256 813h-4zM324 1704l65 106l363 -190l-41 -70z" />
<glyph unicode="&#xc1;" horiz-adv-x="1116" d="M20 0l461 1403h154l461 -1403h-127l-121 379h-584l-121 -379h-123zM297 481h518l-256 813h-4zM365 1640l362 191l66 -107l-387 -153z" />
<glyph unicode="&#xc2;" horiz-adv-x="1116" d="M20 0l461 1403h154l461 -1403h-127l-121 379h-584l-121 -379h-123zM262 1616l266 201h62l264 -201l-53 -62l-242 154l-242 -154zM297 481h518l-256 813h-4z" />
<glyph unicode="&#xc3;" horiz-adv-x="1116" d="M20 0l461 1403h154l461 -1403h-127l-121 379h-584l-121 -379h-123zM258 1624q63 150 188 150q63 0 133 -46.5t93 -46.5q59 0 110 88l74 -34q-65 -148 -190 -148q-53 0 -126 46t-98 46q-61 0 -112 -90zM297 481h518l-256 813h-4z" />
<glyph unicode="&#xc4;" horiz-adv-x="1116" d="M20 0l461 1403h154l461 -1403h-127l-121 379h-584l-121 -379h-123zM283 1634q0 35 22.5 57.5t59 22.5t59 -22.5t22.5 -57.5t-22.5 -57.5t-59 -22.5t-59 22.5t-22.5 57.5zM297 481h518l-256 813h-4zM668 1634q0 35 22.5 57.5t59 22.5t59 -22.5t22.5 -57.5t-22.5 -57.5 t-59 -22.5t-59 22.5t-22.5 57.5z" />
<glyph unicode="&#xc5;" horiz-adv-x="1116" d="M20 0l461 1403h154l461 -1403h-127l-121 379h-584l-121 -379h-123zM297 481h518l-256 813h-4zM358 1706q0 82 55.5 134t143.5 52t143.5 -52t55.5 -134t-55.5 -134t-143.5 -52t-143.5 52t-55.5 134zM446 1706q0 -53 30 -85t81 -32t81 32t30 85q0 55 -29 86t-82 31 q-51 0 -81 -32t-30 -85z" />
<glyph unicode="&#xc6;" horiz-adv-x="1591" d="M0 0l547 1403h864l-14 -103h-670l137 -522h508v-102h-481l149 -574h469v-102h-561l-96 379h-586l-143 -379h-123zM305 481h520l-204 815h-5z" />
<glyph unicode="&#xc7;" horiz-adv-x="1138" d="M143 702q0 344 156 533.5t389 189.5q215 0 367 -125l-74 -83q-123 104 -285 104q-188 0 -307 -151.5t-119 -467.5q0 -307 120 -462.5t310 -155.5q178 0 310 113l67 -84q-141 -127 -352 -136v-114q172 -18 172 -156q0 -82 -62.5 -126t-158.5 -44q-102 0 -174 39l45 80 q53 -29 119 -29q114 0 114 82q0 49 -41 68.5t-121 21.5l13 183q-219 25 -353.5 212t-134.5 508z" />
<glyph unicode="&#xc8;" horiz-adv-x="1052" d="M225 0v1403h709l-14 -103h-574v-522h498v-102h-498v-574h604v-102h-725zM362 1704l66 106l363 -190l-41 -70z" />
<glyph unicode="&#xc9;" horiz-adv-x="1052" d="M225 0v1403h709l-14 -103h-574v-522h498v-102h-498v-574h604v-102h-725zM383 1620l362 190l66 -106l-387 -154z" />
<glyph unicode="&#xca;" horiz-adv-x="1052" d="M225 0v1403h709l-14 -103h-574v-522h498v-102h-498v-574h604v-102h-725zM281 1616l266 201h61l264 -201l-53 -62l-241 154l-242 -154z" />
<glyph unicode="&#xcb;" horiz-adv-x="1052" d="M225 0v1403h709l-14 -103h-574v-522h498v-102h-498v-574h604v-102h-725zM303 1634q0 35 22.5 57.5t59.5 22.5t59.5 -22.5t22.5 -57.5t-22.5 -57.5t-59.5 -22.5t-59.5 22.5t-22.5 57.5zM688 1634q0 35 22.5 57.5t59.5 22.5t59.5 -22.5t22.5 -57.5t-22.5 -57.5t-59.5 -22.5 t-59.5 22.5t-22.5 57.5z" />
<glyph unicode="&#xcc;" horiz-adv-x="571" d="M72 1704l65 106l363 -190l-41 -70zM225 0v1403h121v-1403h-121z" />
<glyph unicode="&#xcd;" horiz-adv-x="571" d="M72 1620l362 190l66 -106l-387 -154zM225 0v1403h121v-1403h-121z" />
<glyph unicode="&#xce;" horiz-adv-x="571" d="M-10 1616l266 201h61l265 -201l-54 -62l-241 154l-242 -154zM225 0v1403h121v-1403h-121z" />
<glyph unicode="&#xcf;" horiz-adv-x="571" d="M10 1634q0 35 22.5 57.5t59.5 22.5t59.5 -22.5t22.5 -57.5t-22.5 -57.5t-59.5 -22.5t-59.5 22.5t-22.5 57.5zM225 0v1403h121v-1403h-121zM395 1634q0 35 22.5 57.5t59.5 22.5t59.5 -22.5t22.5 -57.5t-22.5 -57.5t-59.5 -22.5t-59.5 22.5t-22.5 57.5z" />
<glyph unicode="&#xd0;" horiz-adv-x="1304" d="M47 674v98h178v631h275q111 0 199.5 -15.5t178 -60.5t148.5 -118.5t97 -199.5t38 -296t-39 -299t-101.5 -206t-150.5 -125t-173 -65.5t-183 -17.5h-289v674h-178zM346 102h180q104 0 187.5 26t160 88.5t118.5 188t42 308.5q0 150 -30.5 260t-76.5 171.5t-119 98.5 t-139.5 47t-152.5 10h-170v-528h373v-98h-373v-572z" />
<glyph unicode="&#xd1;" horiz-adv-x="1376" d="M225 0v1403h160l664 -1270h4q-17 241 -17 440v830h115v-1403h-162l-661 1268h-4q16 -201 16 -441v-827h-115zM399 1624q63 150 189 150q63 0 133 -46.5t92 -46.5q59 0 111 88l73 -34q-65 -148 -190 -148q-53 0 -126 46t-97 46q-61 0 -113 -90z" />
<glyph unicode="&#xd2;" horiz-adv-x="1398" d="M143 698q0 340 153 533.5t404.5 193.5t403 -190.5t151.5 -534.5q0 -338 -152.5 -530.5t-402.5 -192.5q-254 0 -405.5 188.5t-151.5 532.5zM270 698q0 -305 116 -460.5t314.5 -155.5t313 156.5t114.5 461.5q0 307 -114.5 464t-313 157t-314.5 -157.5t-116 -465.5z M465 1704l65 106l363 -190l-41 -70z" />
<glyph unicode="&#xd3;" horiz-adv-x="1398" d="M143 698q0 340 153 533.5t404.5 193.5t403 -190.5t151.5 -534.5q0 -338 -152.5 -530.5t-402.5 -192.5q-254 0 -405.5 188.5t-151.5 532.5zM270 698q0 -305 116 -460.5t314.5 -155.5t313 156.5t114.5 461.5q0 307 -114.5 464t-313 157t-314.5 -157.5t-116 -465.5z M506 1620l362 190l66 -106l-387 -154z" />
<glyph unicode="&#xd4;" horiz-adv-x="1398" d="M143 698q0 340 153 533.5t404.5 193.5t403 -190.5t151.5 -534.5q0 -338 -152.5 -530.5t-402.5 -192.5q-254 0 -405.5 188.5t-151.5 532.5zM270 698q0 -305 116 -460.5t314.5 -155.5t313 156.5t114.5 461.5q0 307 -114.5 464t-313 157t-314.5 -157.5t-116 -465.5z M403 1616l267 201h61l264 -201l-53 -62l-242 154l-241 -154z" />
<glyph unicode="&#xd5;" horiz-adv-x="1398" d="M143 698q0 340 153 533.5t404.5 193.5t403 -190.5t151.5 -534.5q0 -338 -152.5 -530.5t-402.5 -192.5q-254 0 -405.5 188.5t-151.5 532.5zM270 698q0 -305 116 -460.5t314.5 -155.5t313 156.5t114.5 461.5q0 307 -114.5 464t-313 157t-314.5 -157.5t-116 -465.5z M399 1624q63 150 189 150q63 0 133 -46.5t92 -46.5q59 0 111 88l73 -34q-65 -148 -190 -148q-53 0 -126 46t-97 46q-61 0 -113 -90z" />
<glyph unicode="&#xd6;" horiz-adv-x="1398" d="M143 698q0 340 153 533.5t404.5 193.5t403 -190.5t151.5 -534.5q0 -338 -152.5 -530.5t-402.5 -192.5q-254 0 -405.5 188.5t-151.5 532.5zM270 698q0 -305 116 -460.5t314.5 -155.5t313 156.5t114.5 461.5q0 307 -114.5 464t-313 157t-314.5 -157.5t-116 -465.5z M424 1634q0 35 22.5 57.5t59.5 22.5t59.5 -22.5t22.5 -57.5t-22.5 -57.5t-59.5 -22.5t-59.5 22.5t-22.5 57.5zM809 1634q0 35 22.5 57.5t59.5 22.5t59.5 -22.5t22.5 -57.5t-22.5 -57.5t-59.5 -22.5t-59.5 22.5t-22.5 57.5z" />
<glyph unicode="&#xd7;" d="M172 346l262 262l-262 264l76 78l262 -264l264 264l76 -78l-262 -264l262 -262l-76 -78l-264 264l-262 -264z" />
<glyph unicode="&#xd8;" horiz-adv-x="1398" d="M143 698q0 340 153 533.5t404 193.5q70 0 148 -20l74 254l108 -29l-84 -264q145 -78 227 -248t82 -418q0 -338 -152.5 -530.5t-402.5 -192.5q-84 0 -153 21l-72 -246l-108 29l82 256q-145 78 -225.5 246t-80.5 415zM270 698q0 -426 215 -559l338 1166q-62 16 -123 16 q-199 0 -314.5 -157.5t-115.5 -465.5zM578 98q48 -16 122 -16q199 0 313.5 156.5t114.5 461.5q0 426 -215 564z" />
<glyph unicode="&#xd9;" horiz-adv-x="1335" d="M205 446v957h121v-950q0 -371 342 -371t342 371v950h120v-957q0 -221 -120.5 -345t-341.5 -124q-223 0 -343 123t-120 346zM432 1704l66 106l362 -190l-41 -70z" />
<glyph unicode="&#xda;" horiz-adv-x="1335" d="M205 446v957h121v-950q0 -371 342 -371t342 371v950h120v-957q0 -221 -120.5 -345t-341.5 -124q-223 0 -343 123t-120 346zM473 1620l363 190l65 -106l-387 -154z" />
<glyph unicode="&#xdb;" horiz-adv-x="1335" d="M205 446v957h121v-950q0 -371 342 -371t342 371v950h120v-957q0 -221 -120.5 -345t-341.5 -124q-223 0 -343 123t-120 346zM371 1616l266 201h61l265 -201l-54 -62l-241 154l-242 -154z" />
<glyph unicode="&#xdc;" horiz-adv-x="1335" d="M205 446v957h121v-950q0 -371 342 -371t342 371v950h120v-957q0 -221 -120.5 -345t-341.5 -124q-223 0 -343 123t-120 346zM393 1634q0 35 22.5 57.5t59.5 22.5t59.5 -22.5t22.5 -57.5t-22.5 -57.5t-59.5 -22.5t-59.5 22.5t-22.5 57.5zM778 1634q0 35 22.5 57.5 t59.5 22.5t59.5 -22.5t22.5 -57.5t-22.5 -57.5t-59.5 -22.5t-59.5 22.5t-22.5 57.5z" />
<glyph unicode="&#xdd;" horiz-adv-x="1058" d="M10 1403h137l383 -725h5l385 725h129l-457 -836v-567h-121v565zM336 1620l362 190l66 -106l-387 -154z" />
<glyph unicode="&#xde;" horiz-adv-x="1165" d="M225 0v1403h121v-246h199q539 0 538 -428q0 -449 -534 -448h-203v-281h-121zM346 383h213q193 0 295 77t102 267q0 328 -399 328h-211v-672z" />
<glyph unicode="&#xdf;" horiz-adv-x="1208" d="M225 0v1112q0 203 103.5 306.5t279.5 103.5q150 0 242 -75t92 -192q0 -55 -24.5 -102t-59.5 -80t-69.5 -62.5t-59 -64.5t-24.5 -72q0 -51 43 -95t105 -80.5t124.5 -82t105.5 -118t43 -164.5q0 -160 -104 -258.5t-264 -98.5q-147 0 -238 60l45 84q80 -45 187 -45 q113 0 182.5 69.5t69.5 192.5q0 78 -43 136t-104.5 97t-122 77t-103.5 95.5t-43 130.5q0 59 37 108.5t82 80.5t81.5 81t36.5 109q0 72 -60 122t-165 50q-260 0 -260 -307v-1118h-115z" />
<glyph unicode="&#xe0;" horiz-adv-x="1067" d="M92 299q0 166 125 253t344 87h184v106q0 127 -60 187.5t-195.5 60.5t-288.5 -59l-33 92q172 68 338 68q356 0 356 -342v-519q0 -84 24.5 -120.5t78.5 -53.5l-27 -82q-78 12 -121 53.5t-57 127.5v2q-109 -182 -338 -183q-154 0 -242 88.5t-88 233.5zM217 305 q0 -111 60.5 -169t173.5 -58q196 -1 294 194v275h-178q-350 0 -350 -242zM299 1442l66 106l372 -215l-41 -69z" />
<glyph unicode="&#xe1;" horiz-adv-x="1067" d="M92 299q0 166 125 253t344 87h184v106q0 127 -60 187.5t-195.5 60.5t-288.5 -59l-33 92q172 68 338 68q356 0 356 -342v-519q0 -84 24.5 -120.5t78.5 -53.5l-27 -82q-78 12 -121 53.5t-57 127.5v2q-109 -182 -338 -183q-154 0 -242 88.5t-88 233.5zM217 305 q0 -111 60.5 -169t173.5 -58q196 -1 294 194v275h-178q-350 0 -350 -242zM299 1333l373 215l65 -106l-397 -178z" />
<glyph unicode="&#xe2;" horiz-adv-x="1067" d="M92 299q0 166 125 253t344 87h184v106q0 127 -60 187.5t-195.5 60.5t-288.5 -59l-33 92q172 68 338 68q356 0 356 -342v-519q0 -84 24.5 -120.5t78.5 -53.5l-27 -82q-78 12 -121 53.5t-57 127.5v2q-109 -182 -338 -183q-154 0 -242 88.5t-88 233.5zM217 305 q0 -111 60.5 -169t173.5 -58q196 -1 294 194v275h-178q-350 0 -350 -242zM221 1329l266 221h62l264 -221l-53 -61l-242 174l-242 -174z" />
<glyph unicode="&#xe3;" horiz-adv-x="1067" d="M92 299q0 166 125 253t344 87h184v106q0 127 -60 187.5t-195.5 60.5t-288.5 -59l-33 92q172 68 338 68q356 0 356 -342v-519q0 -84 24.5 -120.5t78.5 -53.5l-27 -82q-78 12 -121 53.5t-57 127.5v2q-109 -182 -338 -183q-154 0 -242 88.5t-88 233.5zM217 305 q0 -111 60.5 -169t173.5 -58q196 -1 294 194v275h-178q-350 0 -350 -242zM219 1358q63 150 189 149q63 0 132.5 -46t92.5 -46q59 0 110 88l74 -35q-65 -147 -190 -147q-53 0 -126 46t-98 46q-61 0 -112 -90z" />
<glyph unicode="&#xe4;" horiz-adv-x="1067" d="M92 299q0 166 125 253t344 87h184v106q0 127 -60 187.5t-195.5 60.5t-288.5 -59l-33 92q172 68 338 68q356 0 356 -342v-519q0 -84 24.5 -120.5t78.5 -53.5l-27 -82q-78 12 -121 53.5t-57 127.5v2q-109 -182 -338 -183q-154 0 -242 88.5t-88 233.5zM217 305 q0 -111 60.5 -169t173.5 -58q196 -1 294 194v275h-178q-350 0 -350 -242zM244 1368q0 35 22.5 57.5t59 22.5t59.5 -22.5t23 -57.5t-23 -57.5t-59.5 -22.5t-59 22.5t-22.5 57.5zM629 1368q0 35 22.5 57.5t59.5 22.5t59.5 -22.5t22.5 -57.5t-22.5 -57.5t-59.5 -22.5 t-59.5 22.5t-22.5 57.5z" />
<glyph unicode="&#xe5;" horiz-adv-x="1067" d="M92 299q0 166 125 253t344 87h184v106q0 127 -60 187.5t-195.5 60.5t-288.5 -59l-33 92q172 68 338 68q356 0 356 -342v-519q0 -84 24.5 -120.5t78.5 -53.5l-27 -82q-78 12 -121 53.5t-57 127.5v2q-109 -182 -338 -183q-154 0 -242 88.5t-88 233.5zM217 305 q0 -111 60.5 -169t173.5 -58q196 -1 294 194v275h-178q-350 0 -350 -242zM319 1440q0 82 55.5 134t143.5 52t143.5 -52t55.5 -134t-55.5 -134.5t-143.5 -52.5t-143.5 52.5t-55.5 134.5zM408 1439.5q0 -53.5 29.5 -85t80.5 -31.5t81 31.5t30 85.5q0 55 -29 85.5t-82 30.5 q-51 0 -80.5 -31.5t-29.5 -85z" />
<glyph unicode="&#xe6;" horiz-adv-x="1703" d="M92 301q0 164 124 251t345 87h184v106q0 248 -256 248q-135 0 -288 -59l-33 92q172 68 338 68q279 0 325 -217q43 100 138.5 158.5t208.5 58.5q199 0 301 -137.5t102 -389.5q0 -37 -4 -78h-709q10 -207 102.5 -309t237.5 -102q162 0 287 108l55 -80q-141 -129 -346 -129 q-129 0 -228 59.5t-159 162.5q-80 -121 -175 -171.5t-220 -50.5q-154 0 -242 89.5t-88 234.5zM217 311q0 -111 62.5 -172t171.5 -61q206 0 325 219q-31 100 -31 233v17h-178q-350 0 -350 -236zM868 582h596q-5 411 -286 411q-135 0 -218 -102.5t-92 -308.5z" />
<glyph unicode="&#xe7;" horiz-adv-x="980" d="M133 530q0 254 124 409t333 155q186 0 319 -111l-61 -80q-113 90 -258 90q-152 0 -242 -118.5t-90 -344.5q0 -223 89 -337.5t243 -114.5q145 0 262 94l57 -82q-127 -106 -311 -113v-114q172 -18 172 -156q0 -82 -62.5 -126t-158.5 -44q-102 0 -174 39l45 80 q53 -29 119 -29q114 0 114 82q0 49 -41 68.5t-120 21.5l12 185q-174 27 -272.5 171t-98.5 375z" />
<glyph unicode="&#xe8;" horiz-adv-x="1101" d="M133 530q0 256 117 410t315.5 154t306 -140.5t107.5 -386.5q0 -37 -4 -78h-721q10 -205 103.5 -308t238.5 -103q164 0 289 108l55 -80q-141 -129 -348 -129q-217 0 -338 148.5t-121 404.5zM254 582h608q-4 199 -79 305t-218 106q-135 0 -219 -102.5t-92 -308.5zM352 1442 l66 106l373 -215l-41 -69z" />
<glyph unicode="&#xe9;" horiz-adv-x="1101" d="M133 530q0 256 117 410t315.5 154t306 -140.5t107.5 -386.5q0 -37 -4 -78h-721q10 -205 103.5 -308t238.5 -103q164 0 289 108l55 -80q-141 -129 -348 -129q-217 0 -338 148.5t-121 404.5zM254 582h608q-4 199 -79 305t-218 106q-135 0 -219 -102.5t-92 -308.5zM352 1333 l373 215l66 -106l-398 -178z" />
<glyph unicode="&#xea;" horiz-adv-x="1101" d="M133 530q0 256 117 410t315.5 154t306 -140.5t107.5 -386.5q0 -37 -4 -78h-721q10 -205 103.5 -308t238.5 -103q164 0 289 108l55 -80q-141 -129 -348 -129q-217 0 -338 148.5t-121 404.5zM254 582h608q-4 199 -79 305t-218 106q-135 0 -219 -102.5t-92 -308.5zM274 1329 l267 221h61l264 -221l-53 -61l-242 174l-241 -174z" />
<glyph unicode="&#xeb;" horiz-adv-x="1101" d="M133 530q0 256 117 410t315.5 154t306 -140.5t107.5 -386.5q0 -37 -4 -78h-721q10 -205 103.5 -308t238.5 -103q164 0 289 108l55 -80q-141 -129 -348 -129q-217 0 -338 148.5t-121 404.5zM254 582h608q-4 199 -79 305t-218 106q-135 0 -219 -102.5t-92 -308.5zM297 1368 q0 35 22.5 57.5t59.5 22.5t59.5 -22.5t22.5 -57.5t-22.5 -57.5t-59.5 -22.5t-59.5 22.5t-22.5 57.5zM682 1368q0 35 22.5 57.5t59.5 22.5t59.5 -22.5t22.5 -57.5t-22.5 -57.5t-59.5 -22.5t-59.5 22.5t-22.5 57.5z" />
<glyph unicode="&#xec;" horiz-adv-x="546" d="M33 1442l65 106l373 -215l-41 -69zM215 0v1071h117v-1071h-117z" />
<glyph unicode="&#xed;" horiz-adv-x="546" d="M74 1333l372 215l66 -106l-397 -178zM215 0v1071h117v-1071h-117z" />
<glyph unicode="&#xee;" horiz-adv-x="546" d="M-23 1329l267 221h61l264 -221l-53 -61l-242 174l-241 -174zM215 0v1071h117v-1071h-117z" />
<glyph unicode="&#xef;" horiz-adv-x="546" d="M-2 1368q0 35 22.5 57.5t59.5 22.5t59.5 -22.5t22.5 -57.5t-22.5 -57.5t-59.5 -22.5t-59.5 22.5t-22.5 57.5zM215 0v1071h117v-1071h-117zM383 1368q0 35 22.5 57.5t59.5 22.5t59.5 -22.5t22.5 -57.5t-22.5 -57.5t-59.5 -22.5t-59.5 22.5t-22.5 57.5z" />
<glyph unicode="&#xf0;" horiz-adv-x="1142" d="M133 457q0 207 117 344t282 137q205 0 336 -162q-37 326 -262 498l-151 -156l-86 39l161 170q-117 66 -260 96l15 99q197 -43 321 -117l142 149l73 -61l-137 -139q315 -238 315 -791q0 -270 -115.5 -428t-324.5 -158q-190 0 -308 132.5t-118 347.5zM258 459 q0 -168 83 -273.5t220 -105.5q156 0 238 136t82 384l-2 29q-133 209 -328 209q-131 0 -212 -105.5t-81 -273.5z" />
<glyph unicode="&#xf1;" horiz-adv-x="1189" d="M225 0v1071h101l8 -182q135 205 356 205q150 0 217.5 -82t67.5 -244v-768h-117v748q0 131 -47 189t-152 58q-174 0 -317 -229v-766h-117zM295 1358q63 150 188 149q63 0 133 -46t93 -46q59 0 110 88l74 -35q-66 -147 -191 -147q-53 0 -125.5 46t-97.5 46q-61 0 -112 -90z " />
<glyph unicode="&#xf2;" horiz-adv-x="1171" d="M133 534.5q0 258.5 123 409t334 150.5t329.5 -148.5t118.5 -406.5t-121.5 -410t-332.5 -152t-331 149.5t-120 408zM258 535q0 -223 85 -341t241 -118q158 0 243.5 117.5t85.5 345.5q0 223 -84.5 339.5t-238.5 116.5q-158 0 -245 -116.5t-87 -343.5zM346 1442l66 106 l372 -215l-41 -69z" />
<glyph unicode="&#xf3;" horiz-adv-x="1171" d="M133 534.5q0 258.5 123 409t334 150.5t329.5 -148.5t118.5 -406.5t-121.5 -410t-332.5 -152t-331 149.5t-120 408zM258 535q0 -223 85 -341t241 -118q158 0 243.5 117.5t85.5 345.5q0 223 -84.5 339.5t-238.5 116.5q-158 0 -245 -116.5t-87 -343.5zM387 1333l373 215 l65 -106l-397 -178z" />
<glyph unicode="&#xf4;" horiz-adv-x="1171" d="M133 534.5q0 258.5 123 409t334 150.5t329.5 -148.5t118.5 -406.5t-121.5 -410t-332.5 -152t-331 149.5t-120 408zM258 535q0 -223 85 -341t241 -118q158 0 243.5 117.5t85.5 345.5q0 223 -84.5 339.5t-238.5 116.5q-158 0 -245 -116.5t-87 -343.5zM289 1329l266 221h61 l265 -221l-54 -61l-241 174l-242 -174z" />
<glyph unicode="&#xf5;" horiz-adv-x="1171" d="M133 534.5q0 258.5 123 409t334 150.5t329.5 -148.5t118.5 -406.5t-121.5 -410t-332.5 -152t-331 149.5t-120 408zM258 535q0 -223 85 -341t241 -118q158 0 243.5 117.5t85.5 345.5q0 223 -84.5 339.5t-238.5 116.5q-158 0 -245 -116.5t-87 -343.5zM287 1358 q63 150 188 149q63 0 133 -46t92 -46q59 0 111 88l74 -35q-66 -147 -191 -147q-53 0 -125.5 46t-97.5 46q-61 0 -113 -90z" />
<glyph unicode="&#xf6;" horiz-adv-x="1171" d="M133 534.5q0 258.5 123 409t334 150.5t329.5 -148.5t118.5 -406.5t-121.5 -410t-332.5 -152t-331 149.5t-120 408zM258 535q0 -223 85 -341t241 -118q158 0 243.5 117.5t85.5 345.5q0 223 -84.5 339.5t-238.5 116.5q-158 0 -245 -116.5t-87 -343.5zM311 1368 q0 35 22.5 57.5t59.5 22.5t59.5 -22.5t22.5 -57.5t-22.5 -57.5t-59.5 -22.5t-59.5 22.5t-22.5 57.5zM696 1368q0 35 22.5 57.5t59.5 22.5t59.5 -22.5t22.5 -57.5t-22.5 -57.5t-59.5 -22.5t-59.5 22.5t-22.5 57.5z" />
<glyph unicode="&#xf7;" d="M143 586v106h738v-106h-738zM414 240q0 43 26.5 69.5t71.5 26.5t71.5 -26.5t26.5 -69.5t-26.5 -70t-71.5 -27t-71.5 27t-26.5 70zM414 1038q0 43 26.5 70t71.5 27t71.5 -27t26.5 -70t-26.5 -69.5t-71.5 -26.5t-71.5 26.5t-26.5 69.5z" />
<glyph unicode="&#xf8;" horiz-adv-x="1171" d="M133 535q0 258 123 408.5t334 150.5q53 0 117 -15l71 230l101 -31l-78 -236q238 -129 237 -503q0 -258 -121.5 -410t-332.5 -152q-59 0 -111 13l-74 -238l-100 31l78 242q-117 59 -180.5 191.5t-63.5 318.5zM258 535q0 -313 156 -414l268 862q-43 12 -92 12 q-158 0 -245 -116.5t-87 -343.5zM500 84q35 -8 84 -8q158 0 243.5 118t85.5 345q0 301 -147 405z" />
<glyph unicode="&#xf9;" horiz-adv-x="1177" d="M215 301v770h117v-756q0 -127 46 -183t142 -56q172 0 316 229v766h116v-1071h-100l-8 182q-135 -205 -344 -205q-285 0 -285 324zM369 1442l65 106l373 -215l-41 -69z" />
<glyph unicode="&#xfa;" horiz-adv-x="1177" d="M215 301v770h117v-756q0 -127 46 -183t142 -56q172 0 316 229v766h116v-1071h-100l-8 182q-135 -205 -344 -205q-285 0 -285 324zM389 1333l373 215l65 -106l-397 -178z" />
<glyph unicode="&#xfb;" horiz-adv-x="1177" d="M215 301v770h117v-756q0 -127 46 -183t142 -56q172 0 316 229v766h116v-1071h-100l-8 182q-135 -205 -344 -205q-285 0 -285 324zM293 1329l266 221h62l264 -221l-54 -61l-241 174l-242 -174z" />
<glyph unicode="&#xfc;" horiz-adv-x="1177" d="M215 301v770h117v-756q0 -127 46 -183t142 -56q172 0 316 229v766h116v-1071h-100l-8 182q-135 -205 -344 -205q-285 0 -285 324zM313 1368q0 35 22.5 57.5t59.5 22.5t59.5 -22.5t22.5 -57.5t-22.5 -57.5t-59.5 -22.5t-59.5 22.5t-22.5 57.5zM698 1368q0 35 22.5 57.5 t59.5 22.5t59.5 -22.5t22.5 -57.5t-22.5 -57.5t-59.5 -22.5t-59.5 22.5t-22.5 57.5z" />
<glyph unicode="&#xfd;" horiz-adv-x="954" d="M31 1071h129l329 -977h5l305 977h125l-361 -1075q-61 -188 -158.5 -287.5t-285.5 -128.5l-17 96q154 29 229 104t122 220h-41zM279 1333l372 215l66 -106l-398 -178z" />
<glyph unicode="&#xfe;" horiz-adv-x="1187" d="M225 -420v1927l117 15v-617q127 188 328 189q193 0 289 -144.5t96 -408.5q0 -256 -110.5 -410t-303.5 -154q-188 0 -299 158v-538zM342 264q113 -184 281 -184q307 0 307 461q0 452 -283 452q-178 0 -305 -217v-512z" />
<glyph unicode="&#xff;" horiz-adv-x="954" d="M31 1071h129l329 -977h5l305 977h125l-361 -1075q-61 -188 -158.5 -287.5t-285.5 -128.5l-17 96q154 29 229 104t122 220h-41zM219 1368q0 35 22.5 57.5t59.5 22.5t59.5 -22.5t22.5 -57.5t-22.5 -57.5t-59.5 -22.5t-59.5 22.5t-22.5 57.5zM604 1368q0 35 22.5 57.5 t59.5 22.5t59.5 -22.5t22.5 -57.5t-22.5 -57.5t-59.5 -22.5t-59.5 22.5t-22.5 57.5z" />
<glyph unicode="&#x152;" horiz-adv-x="1804" d="M143 698q0 340 153 533.5t404 193.5q80 0 154 -22h832l-15 -103h-663q176 -160 192 -522h393v-102h-391q-6 -393 -198 -574h698v-102h-850q-74 -23 -152 -23q-254 0 -405.5 188.5t-151.5 532.5zM270 698q0 -305 115.5 -459.5t314.5 -154.5q182 0 284.5 155.5t102.5 460.5 q0 309 -102 464t-285 155q-201 0 -315.5 -156.5t-114.5 -464.5z" />
<glyph unicode="&#x153;" horiz-adv-x="1871" d="M133 534.5q0 258.5 123 409t334 150.5q276 0 387 -265q109 264 369 265q199 0 301 -137.5t102 -389.5q0 -37 -4 -78h-707q10 -207 102.5 -308t235.5 -101q162 0 287 108l55 -82q-141 -129 -346 -129q-287 0 -399 275q-113 -274 -389 -275q-211 0 -331 149.5t-120 408z M258 535q0 -223 85 -339t241 -116q158 0 243.5 115.5t85.5 343t-84.5 340t-238.5 112.5q-158 0 -245 -114.5t-87 -341.5zM1038 582h594q-5 411 -286 411q-135 0 -217 -102.5t-91 -308.5z" />
<glyph unicode="&#x178;" horiz-adv-x="1058" d="M10 1403h137l383 -725h5l385 725h129l-457 -836v-567h-121v565zM256 1634q0 35 22.5 57.5t59.5 22.5t59.5 -22.5t22.5 -57.5t-22.5 -57.5t-59.5 -22.5t-59.5 22.5t-22.5 57.5zM641 1634q0 35 22.5 57.5t59.5 22.5t59.5 -22.5t22.5 -57.5t-22.5 -57.5t-59.5 -22.5 t-59.5 22.5t-22.5 57.5z" />
<glyph unicode="&#x2c6;" horiz-adv-x="714" d="M61 1329l267 221h61l264 -221l-53 -61l-242 170l-241 -170z" />
<glyph unicode="&#x2dc;" horiz-adv-x="720" d="M61 1358q63 150 189 149q63 0 133 -46t92 -46q59 0 111 88l73 -35q-65 -147 -190 -147q-53 0 -126 46t-97 46q-61 0 -113 -90z" />
<glyph unicode="&#x2000;" horiz-adv-x="946" />
<glyph unicode="&#x2001;" horiz-adv-x="1892" />
<glyph unicode="&#x2002;" horiz-adv-x="946" />
<glyph unicode="&#x2003;" horiz-adv-x="1892" />
<glyph unicode="&#x2004;" horiz-adv-x="630" />
<glyph unicode="&#x2005;" horiz-adv-x="473" />
<glyph unicode="&#x2006;" horiz-adv-x="315" />
<glyph unicode="&#x2007;" horiz-adv-x="315" />
<glyph unicode="&#x2008;" horiz-adv-x="236" />
<glyph unicode="&#x2009;" horiz-adv-x="378" />
<glyph unicode="&#x200a;" horiz-adv-x="105" />
<glyph unicode="&#x2010;" horiz-adv-x="798" d="M135 586v106h529v-106h-529z" />
<glyph unicode="&#x2011;" horiz-adv-x="798" d="M135 586v106h529v-106h-529z" />
<glyph unicode="&#x2012;" horiz-adv-x="798" d="M135 586v106h529v-106h-529z" />
<glyph unicode="&#x2013;" horiz-adv-x="1064" d="M82 586v106h901v-106h-901z" />
<glyph unicode="&#x2014;" horiz-adv-x="1556" d="M82 586v106h1393v-106h-1393z" />
<glyph unicode="&#x2018;" horiz-adv-x="552" d="M143 1182q0 33 29 96l119 258h78l-74 -283q37 -22 37 -71q0 -39 -26.5 -64.5t-69.5 -25.5t-68 25.5t-25 64.5z" />
<glyph unicode="&#x2019;" horiz-adv-x="552" d="M164 1092l74 282q-37 23 -37 72q0 39 26.5 64.5t69.5 25.5t67.5 -25.5t24.5 -64.5q0 -33 -29 -96l-118 -258h-78z" />
<glyph unicode="&#x201a;" horiz-adv-x="552" d="M164 -293l74 283q-37 22 -37 71q0 39 26.5 65t69.5 26t67.5 -26t24.5 -65q0 -33 -29 -96l-118 -258h-78z" />
<glyph unicode="&#x201c;" horiz-adv-x="870" d="M164 1182q0 33 29 96l118 258h78l-74 -283q37 -22 37 -71q0 -39 -26.5 -64.5t-69.5 -25.5t-67.5 25.5t-24.5 64.5zM481 1182q0 33 29 96l119 258h78l-74 -283q37 -22 37 -71q0 -39 -27 -64.5t-70 -25.5t-67.5 25.5t-24.5 64.5z" />
<glyph unicode="&#x201d;" horiz-adv-x="870" d="M164 1092l74 282q-37 23 -37 72q0 39 26.5 64.5t69.5 25.5t67.5 -25.5t24.5 -64.5q0 -33 -29 -96l-118 -258h-78zM481 1092l74 282q-37 23 -37 72q0 39 26.5 64.5t69.5 25.5t68 -25.5t25 -64.5q0 -33 -29 -96l-119 -258h-78z" />
<glyph unicode="&#x201e;" horiz-adv-x="870" d="M164 -293l74 283q-37 22 -37 71q0 39 26.5 65t69.5 26t67.5 -26t24.5 -65q0 -33 -29 -96l-118 -258h-78zM481 -293l74 283q-37 22 -37 71q0 39 26.5 65t69.5 26t68 -26t25 -65q0 -33 -29 -96l-119 -258h-78z" />
<glyph unicode="&#x2022;" horiz-adv-x="819" d="M195 700.5q0 90.5 62 150.5t152.5 60t153 -61.5t62.5 -151.5t-62.5 -150.5t-153 -60.5t-152.5 61.5t-62 152z" />
<glyph unicode="&#x2026;" horiz-adv-x="1720" d="M188 74q0 41 27 68.5t72 27.5t71.5 -26.5t26.5 -69.5t-26.5 -70t-71.5 -27t-72 28t-27 69zM762 74q0 41 26.5 68.5t71.5 27.5t71.5 -26.5t26.5 -69.5t-26.5 -70t-71.5 -27t-71.5 28t-26.5 69zM1335 74q0 41 27 68.5t72 27.5t71.5 -26.5t26.5 -69.5t-26.5 -70t-71.5 -27 t-72 28t-27 69z" />
<glyph unicode="&#x202f;" horiz-adv-x="378" />
<glyph unicode="&#x2039;" horiz-adv-x="696" d="M143 557v84l338 422l72 -49l-279 -416l279 -414l-72 -49z" />
<glyph unicode="&#x203a;" horiz-adv-x="696" d="M143 184l277 414l-277 416l72 49l338 -422v-84l-338 -422z" />
<glyph unicode="&#x205f;" horiz-adv-x="473" />
<glyph unicode="&#x20ac;" d="M33 500l24 100h127v193h-151l24 100h140q35 242 153.5 366.5t306.5 124.5q168 0 291 -77l-53 -84q-104 61 -229 61q-295 0 -351 -391h519l-25 -100h-502v-193h465l-22 -100h-439q20 -217 102.5 -319.5t229.5 -102.5q158 0 287 106v-121q-119 -86 -297 -86 q-186 0 -300 132.5t-143 390.5h-157z" />
<glyph unicode="&#x2122;" horiz-adv-x="1843" d="M143 1317v84h623l-16 -84h-250v-694h-97v694h-260zM825 623l39 778h117l221 -580l215 580h119l39 -778h-94l-21 391q-4 86 -4 264l-211 -565h-88l-217 567q0 -166 -4 -266l-18 -391h-93z" />
<glyph unicode="&#x25fc;" horiz-adv-x="1075" d="M0 0v1075h1075v-1075h-1075z" />
<glyph unicode="&#xfb01;" horiz-adv-x="1161" d="M51 975v96h199v182q0 127 82 198t241 71q145 0 293 -76l-43 -90q-135 63 -245 63q-115 0 -163 -43t-48 -129v-176h579v-1071h-117v975h-462v-975h-117v975h-199z" />
<glyph unicode="&#xfb02;" horiz-adv-x="1171" d="M51 975v96h199v182q0 127 83 198t247 71q113 0 241 -41l117 20v-1321q0 -100 84 -100q37 0 76 14l32 -86q-55 -31 -129 -31q-180 0 -180 199v1202q-121 41 -237 41q-119 0 -168 -43t-49 -129v-176h282l-14 -96h-268v-975h-117v975h-199z" />
</font>
</defs>
</svg>
