<?xml version="1.0" standalone="no"?>
<!DOCTYPE svg PUBLIC "-//W3C//DTD SVG 1.1//EN" "http://www.w3.org/Graphics/SVG/1.1/DTD/svg11.dtd" >
<svg xmlns="http://www.w3.org/2000/svg" xmlns:xlink="http://www.w3.org/1999/xlink" version="1.1">
<metadata></metadata>
<defs>
<font id="fira_sans_otregular" horiz-adv-x="1024" >
<font-face units-per-em="2048" ascent="1638" descent="-410" />
<missing-glyph horiz-adv-x="542" />
<glyph horiz-adv-x="0" />
<glyph horiz-adv-x="0" />
<glyph horiz-adv-x="682" />
<glyph unicode="&#xd;" horiz-adv-x="681" />
<glyph unicode=" "  horiz-adv-x="542" />
<glyph unicode="&#x09;" horiz-adv-x="542" />
<glyph unicode="&#xa0;" horiz-adv-x="542" />
<glyph unicode="!" horiz-adv-x="542" d="M129 118.5q0 59.5 41 100.5t100 41q61 0 102.5 -41t41.5 -100.5t-41 -101.5t-103 -42q-59 0 -100 42t-41 101.5zM164 1411h209l-21 -940h-166z" />
<glyph unicode="&#x22;" horiz-adv-x="931" d="M180 1411h203v-537h-139zM549 1411h203v-537h-140z" />
<glyph unicode="#" d="M6 342v141h176l56 408h-164v143h182l43 336h160l-45 -336h288l43 336h160l-45 -336h158v-143h-176l-54 -408h162v-141h-182l-43 -342h-160l45 342h-286l-45 -342h-160l45 342h-158zM342 483h287l55 408h-289z" />
<glyph unicode="$" horiz-adv-x="1030" d="M29 156l108 118q150 -143 355 -143q131 0 213.5 62.5t82.5 181.5q0 100 -60 154.5t-234 107.5q-207 66 -309.5 161t-102.5 236q0 139 94 231.5t252 112.5v312h160v-308q207 -16 354 -155l-108 -115q-131 123 -312 123q-109 0 -177.5 -49t-68.5 -146q0 -88 61.5 -138 t244.5 -107q94 -29 157.5 -58.5t124 -76t91 -117t30.5 -162.5q0 -166 -103.5 -270.5t-293.5 -122.5v-303h-162v301q-246 23 -397 170z" />
<glyph unicode="%" horiz-adv-x="1740" d="M154 1044.5q0 157.5 93 252t238 94.5q147 0 240.5 -94.5t93.5 -252t-93 -252t-241 -94.5q-145 0 -238 94.5t-93 252zM319 1044.5q0 -219.5 166 -219.5t166 219.5t-166 219.5t-166 -219.5zM332 23l946 1427l133 -80l-948 -1427zM922 321.5q0 157.5 93 252t240.5 94.5 t239.5 -94.5t92 -252t-92 -252t-239.5 -94.5t-240.5 94.5t-93 252zM1090 322q0 -219 165.5 -219.5t165.5 219.5q0 217 -165.5 217t-165.5 -217z" />
<glyph unicode="&#x26;" horiz-adv-x="1591" d="M188 358q0 129 65.5 225.5t201.5 182.5q-113 102 -164 176t-51 168q0 145 98 235.5t278 90.5q170 0 276.5 -87t106.5 -223q0 -121 -75.5 -208t-210.5 -166l362 -353q86 144 137 357l177 -51q-74 -242 -189 -414l326 -291h-248l-184 162q-186 -186 -439 -187 q-221 0 -344 102.5t-123 280.5zM381 371q0 -115 71.5 -180.5t202.5 -65.5q186 0 324 141l-412 400q-102 -66 -144 -133.5t-42 -161.5zM424 1108q0 -66 42 -122t134 -136q104 63 158.5 124.5t54.5 135.5q0 86 -52 136t-143 50q-94 0 -144 -51t-50 -137z" />
<glyph unicode="'" horiz-adv-x="563" d="M180 1411h203v-537h-139z" />
<glyph unicode="(" horiz-adv-x="665" d="M82 717q0 174 27.5 316.5t92 271.5t116 205.5t151.5 213.5l119 -82q-162 -227 -235.5 -423.5t-73.5 -501.5t73.5 -503t235.5 -423l-119 -82q-100 137 -151.5 214t-116 206t-92 271.5t-27.5 316.5z" />
<glyph unicode=")" horiz-adv-x="665" d="M78 -209q162 225 235.5 423t73.5 503t-73.5 501.5t-235.5 423.5l119 82q100 -137 151 -213.5t115.5 -205.5t92.5 -271.5t28 -316.5t-28 -316.5t-92.5 -271.5t-115.5 -206t-151 -214z" />
<glyph unicode="*" horiz-adv-x="901" d="M49 1147l55 174l285 -123l-31 313h185l-33 -313l287 123l55 -174l-301 -66l215 -223l-150 -113l-163 267l-154 -271l-154 105l207 235z" />
<glyph unicode="+" d="M127 559v156h297v307h172v-307h299v-156h-299v-305h-172v305h-297z" />
<glyph unicode="," horiz-adv-x="542" d="M104 -340l82 340q-57 43 -57 119q0 59 41 100t100 41q61 0 102.5 -41t41.5 -100q0 -63 -37 -146l-137 -313h-136z" />
<glyph unicode="-" horiz-adv-x="829" d="M125 561v160h580v-160h-580z" />
<glyph unicode="." horiz-adv-x="542" d="M129 118.5q0 59.5 41 100.5t100 41q61 0 102.5 -41t41.5 -100.5t-41 -101.5t-103 -42q-59 0 -100 42t-41 101.5z" />
<glyph unicode="/" horiz-adv-x="1064" d="M215 -174l475 1833l160 -37l-473 -1835z" />
<glyph unicode="0" horiz-adv-x="1146" d="M115 684q0 344 115.5 525.5t343 181.5t343 -181.5t115.5 -525.5t-115.5 -526.5t-343 -182.5t-343 182.5t-115.5 526.5zM311 684q0 -295 64.5 -427t197.5 -132q131 0 197 132t66 427q0 293 -65.5 425t-197.5 132q-133 0 -197.5 -131t-64.5 -426z" />
<glyph unicode="1" horiz-adv-x="819" d="M37 1104l416 266h165v-1370h-188v1163l-305 -190z" />
<glyph unicode="2" horiz-adv-x="1038" d="M55 1184q166 207 416 207q186 0 299 -107.5t113 -279.5q0 -176 -127 -354.5t-457 -491.5h616l-22 -158h-809v150q371 371 486.5 531.5t115.5 315.5q0 113 -61.5 175.5t-163.5 62.5q-84 0 -147.5 -35t-131.5 -115z" />
<glyph unicode="3" horiz-adv-x="1028" d="M29 164l125 102q115 -137 284 -137q129 0 203 72.5t74 195.5q0 135 -70 190.5t-203 55.5h-88l23 145h55q106 0 177 63.5t71 178.5q0 96 -61.5 152.5t-165.5 56.5q-152 0 -283 -123l-98 113q174 162 391 162q188 0 296.5 -101.5t108.5 -247.5q0 -123 -72.5 -205.5 t-183.5 -105.5l2 -8q125 -12 211 -97.5t86 -230.5q0 -182 -128 -301t-339 -119q-258 0 -415 189z" />
<glyph unicode="4" horiz-adv-x="1073" d="M76 338v135l395 918l158 -66l-355 -838h371l19 369h163v-369h179v-149h-179v-338h-182v338h-569z" />
<glyph unicode="5" horiz-adv-x="1054" d="M68 160l129 104q115 -135 278 -135q129 0 205 86t76 227q0 285 -250 285q-84 0 -184 -47h-148v690h737l-22 -147h-535v-396q92 45 209 45q176 0 281.5 -115.5t105.5 -318t-131 -333t-342 -130.5q-254 0 -409 185z" />
<glyph unicode="6" horiz-adv-x="1095" d="M115 651q0 334 138 537t374 203q161 0 276 -82l-80 -127q-82 59 -198 59q-143 0 -228.5 -141.5t-91.5 -378.5q125 180 318 180q162 0 269 -112.5t107 -323.5q0 -219 -123.5 -354.5t-306.5 -135.5q-455 0 -454 676zM305 561q6 -223 69.5 -329.5t194.5 -106.5 q115 0 177.5 90t62.5 244q0 293 -221 293q-168 0 -283 -191z" />
<glyph unicode="7" horiz-adv-x="907" d="M51 1217v153h797v-141l-512 -1249l-174 53l495 1184h-606z" />
<glyph unicode="8" horiz-adv-x="1138" d="M96 362q0 238 271 357q-213 106 -213 319q0 119 67.5 202t157.5 117t190 34q170 0 293 -88.5t123 -260.5q0 -186 -233 -307q289 -123 288 -368q0 -170 -133 -281t-342 -111q-211 0 -340 109t-129 278zM293 362q0 -113 72.5 -175t199.5 -62t203 69t76 171q0 53 -18.5 95 t-40 67.5t-78 54t-93 43t-122.5 45.5q-199 -96 -199 -308zM338 1036.5q0 -102.5 66.5 -156t220.5 -100.5q94 53 135 112.5t41 143.5q0 96 -62.5 154.5t-169 58.5t-169 -55t-62.5 -157.5z" />
<glyph unicode="9" horiz-adv-x="1093" d="M96 938q0 209 126 331t313 122q205 0 323.5 -145.5t118.5 -387.5q0 -397 -168 -593.5t-561 -309.5l-43 141q260 74 411.5 212t167.5 339l-4 2q-111 -152 -309 -151q-162 0 -268.5 119.5t-106.5 320.5zM287 934q0 -141 62.5 -215t164.5 -74q166 0 272 168q0 428 -254 428 q-113 0 -179 -81t-66 -226z" />
<glyph unicode=":" horiz-adv-x="542" d="M129 118.5q0 59.5 41 100.5t100 41q61 0 102.5 -41t41.5 -100.5t-41 -101.5t-103 -42q-59 0 -100 42t-41 101.5zM129 882.5q0 59.5 41 100.5t100 41q61 0 102.5 -41t41.5 -100.5t-41 -101.5t-103 -42q-59 0 -100 42t-41 101.5z" />
<glyph unicode=";" horiz-adv-x="542" d="M104 -340l82 340q-57 43 -57 119q0 59 41 100t100 41q61 0 102.5 -41t41.5 -100q0 -63 -37 -146l-137 -313h-136zM129 882.5q0 59.5 41 100.5t100 41q61 0 102.5 -41t41.5 -100.5t-41 -101.5t-103 -42q-59 0 -100 42t-41 101.5z" />
<glyph unicode="&#x3c;" d="M127 586v192l731 350l74 -149l-656 -297l656 -291l-74 -155z" />
<glyph unicode="=" d="M127 360v160h770v-160h-770zM127 754v159h770v-159h-770z" />
<glyph unicode="&#x3e;" d="M92 387l656 295l-656 291l74 155l731 -350v-192l-731 -350z" />
<glyph unicode="?" horiz-adv-x="1038" d="M86 1231q174 205 428 205q184 0 287.5 -94.5t103.5 -225.5q0 -90 -38 -155.5t-92 -106.5t-109.5 -79t-93 -97t-37.5 -139v-68h-187v78q0 92 37 162.5t90 113.5t106.5 81t90.5 87t37 111q0 84 -56.5 130t-156.5 46q-158 0 -279 -147zM305 118.5q0 59.5 41 100.5t100 41 q61 0 102.5 -41t41.5 -100.5t-41 -101.5t-103 -42q-59 0 -100 42t-41 101.5z" />
<glyph unicode="@" horiz-adv-x="2088" d="M143 492q0 412 257 678t694 266q270 0 466.5 -114t291 -294t94.5 -399q0 -266 -102.5 -438.5t-301.5 -172.5q-115 0 -179.5 62.5t-80.5 142.5h-8q-33 -84 -104.5 -139t-184.5 -55q-168 0 -261 119.5t-93 324.5q0 258 123 396.5t323 138.5q168 0 322 -82v-582 q0 -180 139 -180q217 0 217 461q0 301 -174 478t-487 177q-362 0 -561 -218t-199 -570q0 -348 196.5 -560.5t546.5 -212.5q194 0 393 70l52 -145q-229 -80 -447 -80q-416 0 -674 253t-258 675zM815 473q0 -307 193 -307q154 0 221 176v496q-70 34 -146 34q-268 0 -268 -399z " />
<glyph unicode="A" horiz-adv-x="1185" d="M12 0l459 1411h246l457 -1411h-205l-109 354h-543l-108 -354h-197zM365 512h448l-219 723h-8z" />
<glyph unicode="B" horiz-adv-x="1282" d="M215 0v1411h383q100 0 185 -17.5t160 -56.5t117 -110.5t42 -171.5q0 -125 -73 -202t-173 -99v-9q129 -25 218 -104.5t89 -237.5q0 -111 -45 -192.5t-124 -125.5t-169 -64.5t-196 -20.5h-414zM410 156h245h2q301 0 301 243q0 264 -294 265h-254v-508zM410 813h239 q254 0 254 229q0 215 -270 215h-223v-444z" />
<glyph unicode="C" horiz-adv-x="1169" d="M127 707q0 342 168 535.5t418 193.5q129 0 219 -34t178 -106l-106 -125q-125 104 -279 105q-174 0 -282.5 -136t-108.5 -433q0 -291 106.5 -429.5t282.5 -138.5q170 0 307 121l100 -127q-166 -158 -415 -158q-262 0 -425 191.5t-163 540.5z" />
<glyph unicode="D" horiz-adv-x="1343" d="M215 0v1411h315q111 0 203 -15.5t185.5 -61.5t156 -121.5t102.5 -202.5t40 -297q0 -168 -41 -297t-104.5 -207t-154 -126t-177.5 -65.5t-187 -17.5h-338zM410 154h165q86 0 157 24.5t136.5 82.5t103.5 173t38 279q0 137 -28 239.5t-69 158.5t-101 90t-115.5 44t-123.5 10 h-163v-1101z" />
<glyph unicode="E" horiz-adv-x="1105" d="M215 0v1411h764l-23 -156h-546v-460h475v-156h-475v-483h585v-156h-780z" />
<glyph unicode="F" horiz-adv-x="1015" d="M215 0v1411h750l-23 -156h-532v-481h460v-153h-460v-621h-195z" />
<glyph unicode="G" horiz-adv-x="1306" d="M127 707q0 344 181 536.5t433 192.5q139 0 235.5 -38t186.5 -120l-114 -119q-125 117 -306 117q-174 0 -291.5 -136t-117.5 -433t97 -434.5t288 -137.5q158 0 268 66v417h-266l-23 158h482v-676q-213 -125 -475 -125q-268 0 -423 186.5t-155 545.5z" />
<glyph unicode="H" horiz-adv-x="1392" d="M215 0v1411h195v-590h573v590h195v-1411h-195v662h-573v-662h-195z" />
<glyph unicode="I" horiz-adv-x="626" d="M215 0v1411h197v-1411h-197z" />
<glyph unicode="J" horiz-adv-x="630" d="M10 -133q133 53 177 122.5t44 215.5v1206h195v-1214q0 -205 -91.5 -313t-275.5 -169z" />
<glyph unicode="K" horiz-adv-x="1216" d="M215 0v1411h195v-1411h-195zM420 754l536 657h222l-535 -645l574 -766h-240z" />
<glyph unicode="L" horiz-adv-x="1030" d="M215 0v1411h195v-1241h579l-22 -170h-752z" />
<glyph unicode="M" horiz-adv-x="1630" d="M127 0l117 1411h262l309 -1030h8l299 1030h264l117 -1411h-188l-62 723q-22 261 -22 452v17h-8l-316 -1042h-186l-328 1042h-8q0 -236 -18 -469l-56 -723h-184z" />
<glyph unicode="N" horiz-adv-x="1411" d="M215 0v1411h258l559 -1200h8q-26 205 -26 491v21v688h182v-1411h-264l-553 1194h-8q26 -205 26 -485v-21v-688h-182z" />
<glyph unicode="O" horiz-adv-x="1425" d="M127 702q0 346 161 540t425 194q266 0 425.5 -190.5t159.5 -540.5q0 -346 -159.5 -538t-426 -192t-426 188.5t-159.5 538.5zM334 702q0 -567 378 -567l1 1q379 0 379 569q0 571 -379 571t-379 -574z" />
<glyph unicode="P" horiz-adv-x="1200" d="M215 0v1411h369q262 0 406.5 -109.5t144.5 -326.5q0 -236 -146.5 -346.5t-400.5 -110.5h-178v-518h-195zM410 672h194q156 0 240 65.5t84 235.5q0 287 -324 287h-194v-588z" />
<glyph unicode="Q" horiz-adv-x="1425" d="M127 702q0 346 161 540t425 194q266 0 425.5 -190.5t159.5 -540.5q0 -463 -288 -617l2 -8q215 0 397 -127l-127 -164q-119 106 -244 148.5t-319 42.5q-272 0 -432 186t-160 536zM334 702q0 -567 378 -567q1 0 1 1q379 0 379 569q0 571 -379 571t-379 -574z" />
<glyph unicode="R" horiz-adv-x="1243" d="M215 0v1411h371q536 0 536 -399q0 -152 -93 -251t-245 -138l414 -623h-231l-377 598h-180v-598h-195zM410 748h196q309 0 309 264q0 131 -75.5 189.5t-235.5 58.5h-194v-512z" />
<glyph unicode="S" horiz-adv-x="1116" d="M55 158l113 125q154 -147 364 -148q131 0 217.5 64.5t86.5 187.5q0 100 -64.5 158.5t-241.5 113.5q-217 66 -317 158t-100 250q0 164 122.5 266.5t321.5 102.5q260 0 436 -164l-110 -123q-139 127 -318 127q-111 0 -182.5 -51t-71.5 -150q0 -92 61.5 -144t248.5 -110 q98 -31 162.5 -59.5t128 -77.5t95 -121t31.5 -170q0 -186 -134 -302t-365 -116q-297 0 -484 183z" />
<glyph unicode="T" horiz-adv-x="1058" d="M33 1245v166h1009l-20 -166h-389v-1245h-195v1245h-405z" />
<glyph unicode="U" horiz-adv-x="1376" d="M195 459v952h194v-944q0 -328 297 -328q299 0 299 328v944h197v-952q0 -219 -131 -351.5t-365 -132.5q-236 0 -363.5 131.5t-127.5 352.5z" />
<glyph unicode="V" horiz-adv-x="1198" d="M31 1411h209l360 -1188h8l363 1188h196l-462 -1411h-209z" />
<glyph unicode="W" horiz-adv-x="1699" d="M51 1411h191l223 -1223h8l272 1223h207l279 -1216h8l231 1216h179l-287 -1411h-254l-258 1143h-8l-260 -1143h-244z" />
<glyph unicode="X" horiz-adv-x="1136" d="M10 0l434 752l-397 659h221l291 -524h8l303 524h209l-403 -649l450 -762h-221l-342 618h-8l-336 -618h-209z" />
<glyph unicode="Y" horiz-adv-x="1126" d="M10 1411h215l340 -690h8l340 690h203l-454 -868v-543h-197v541z" />
<glyph unicode="Z" horiz-adv-x="1067" d="M63 0v156l705 1091h-631v164h842v-158l-698 -1087h698l-23 -166h-893z" />
<glyph unicode="[" horiz-adv-x="665" d="M137 -238v1909h424v-158h-246v-1595h246v-156h-424z" />
<glyph unicode="\" horiz-adv-x="1064" d="M215 1622l160 37l475 -1833l-162 -39z" />
<glyph unicode="]" horiz-adv-x="665" d="M104 -82h246v1595h-246v158h424v-1909h-424v156z" />
<glyph unicode="^" horiz-adv-x="1064" d="M61 1079l388 641h167l388 -641h-201l-273 477l-270 -477h-199z" />
<glyph unicode="_" horiz-adv-x="1064" d="M35 -129h995v-162h-995v162z" />
<glyph unicode="`" horiz-adv-x="608" d="M61 1479l97 159l389 -231l-58 -100z" />
<glyph unicode="a" horiz-adv-x="1118" d="M92 309q0 168 131 258t377 90h139v84q0 113 -56 161t-177 48q-125 0 -283 -55l-49 139q188 70 361 70q393 0 393 -352v-508q0 -61 18.5 -91t61.5 -47l-45 -131q-154 20 -199 152q-113 -152 -322 -152q-162 0 -256 91.5t-94 242.5zM299 317q0 -200 195 -200q147 0 245 149 v266h-129q-311 0 -311 -215z" />
<glyph unicode="b" horiz-adv-x="1212" d="M201 0v1513l188 23v-594q123 162 305 162q401 0 402 -563q0 -254 -112 -410t-314 -156q-186 0 -291 136l-12 -111h-166zM389 260q89 -135 236 -135q268 0 268 416q0 413 -243 413h-1q-147 0 -260 -168v-526z" />
<glyph unicode="c" horiz-adv-x="974" d="M117 535q0 254 126 411.5t357 157.5q186 0 326 -117l-92 -123q-113 84 -234 84q-133 0 -207 -103.5t-74 -309.5q0 -400 281 -400q117 0 236 88l90 -129q-145 -119 -328 -119q-236 0 -358.5 149.5t-122.5 410.5z" />
<glyph unicode="d" horiz-adv-x="1220" d="M117 539q0 250 114.5 407.5t311.5 157.5q180 0 288 -125v557l189 -23v-1513h-166l-16 139q-115 -164 -310 -164q-203 0 -307 150.5t-104 413.5zM319 539q0 -414 252 -414q152 0 260 166v530q-89 133 -239 133q-131 0 -202 -104.5t-71 -310.5z" />
<glyph unicode="e" horiz-adv-x="1118" d="M117 539q0 250 122.5 407.5t333.5 157.5q209 0 323 -141.5t114 -391.5q0 -47 -4 -96h-689q25 -346 291 -346q147 0 271 100l86 -125q-162 -129 -361 -129q-236 0 -361.5 153t-125.5 411zM317 614h506q-6 340 -250 340q-236 0 -256 -340z" />
<glyph unicode="f" horiz-adv-x="688" d="M43 934v145h172v148q0 139 89 224t249 85q129 0 258 -55l-59 -138q-92 41 -189 41q-86 0 -123 -37.5t-37 -117.5v-150h263l-21 -145h-242v-934h-188v934h-172z" />
<glyph unicode="g" horiz-adv-x="1077" d="M63 -109h170q0 -100 75 -140t218 -40q309 0 310 166q0 76 -49.5 116t-180.5 40h-143q-131 0 -209 57t-78 154q0 104 107 182q-170 100 -170 299q0 164 114.5 271.5t307.5 107.5q272 0 487 96l55 -170q-102 -33 -303 -33v-8q172 -80 172 -266q0 -160 -109.5 -262.5 t-297.5 -102.5q-72 1 -144 19q-45 -41 -45 -98q0 -88 117 -89h149q197 0 303.5 -77.5t106.5 -225.5q0 -162 -139 -242.5t-361 -80.5q-463 0 -463 319v8zM305 725q0 -109 60.5 -175.5t169 -66.5t167 65.5t58.5 178.5q0 242 -225 242q-109 0 -169.5 -67.5t-60.5 -176.5z" />
<glyph unicode="h" horiz-adv-x="1206" d="M201 0v1511l188 21v-590q135 162 332 162q293 0 293 -320v-784h-189v772q0 98 -37.5 141t-130.5 43q-150 0 -268 -174v-782h-188z" />
<glyph unicode="i" horiz-adv-x="571" d="M154 1454q0 55 36.5 91t94 36t95.5 -37t38 -90q0 -55 -38 -92t-95.5 -37t-94 37t-36.5 92zM190 0v1079h189v-1079h-189z" />
<glyph unicode="j" horiz-adv-x="571" d="M-18 -297q80 37 119.5 69.5t64 100.5t24.5 180v1026h189v-1013q0 -152 -40 -248.5t-104.5 -147.5t-183.5 -104zM154 1454q0 55 36.5 91t94 36t95.5 -37t38 -90q0 -55 -38 -92t-95.5 -37t-94 37t-36.5 92z" />
<glyph unicode="k" horiz-adv-x="1054" d="M201 0v1513l188 23v-1536h-188zM401 590l404 489h211l-404 -477l443 -602h-226z" />
<glyph unicode="l" horiz-adv-x="593" d="M180 233v1280l189 23v-1319q0 -86 67 -86q39 0 70 12l49 -131q-78 -37 -154 -37q-102 0 -161.5 62.5t-59.5 195.5z" />
<glyph unicode="m" horiz-adv-x="1769" d="M201 0v1079h161l15 -147q133 172 319 172q213 0 267 -172q141 172 327 172q287 0 287 -320v-784h-188v760q0 106 -34 151t-116 45q-72 0 -140.5 -50t-115.5 -124v-782h-188v774q0 96 -35 139t-115 43q-72 0 -140.5 -50t-115.5 -124v-782h-188z" />
<glyph unicode="n" horiz-adv-x="1206" d="M201 0v1079h161l15 -147q137 172 344 172q293 0 293 -320v-784h-189v772q0 98 -37.5 141t-130.5 43q-149 0 -268 -174v-782h-188z" />
<glyph unicode="o" horiz-adv-x="1196" d="M117 539q0 256 128 410.5t355 154.5t353 -151.5t126 -411.5q0 -254 -128 -410t-353 -156q-227 0 -354 152t-127 412zM319 539q0 -412 279 -412t279 414q0 411 -276 411h-1q-281 0 -281 -413z" />
<glyph unicode="p" horiz-adv-x="1212" d="M201 -436v1515h161l15 -147q125 172 319 172q399 0 400 -563q0 -254 -111 -410t-313 -156q-180 0 -283 123v-512zM389 260q86 -131 238 -131q266 0 266 412q0 413 -243 413h-1q-147 0 -260 -168v-526z" />
<glyph unicode="q" horiz-adv-x="1220" d="M117 539q0 250 115.5 407.5t312.5 157.5q188 0 299 -139l14 114h162v-1515l-189 22v545q-115 -156 -303 -156q-209 0 -310 148.5t-101 415.5zM319 539q0 -410 252 -410q156 0 260 162v530q-87 133 -239 133q-131 0 -202 -104.5t-71 -310.5z" />
<glyph unicode="r" horiz-adv-x="786" d="M201 0v1079h164l22 -207q94 231 283 232q57 0 106 -12l-35 -185q-49 12 -94 13q-94 0 -160.5 -82t-97.5 -205v-633h-188z" />
<glyph unicode="s" horiz-adv-x="970" d="M53 117l105 119q131 -109 299 -109q102 0 164.5 44t62.5 120q0 80 -52 121t-212 80q-156 39 -238 111.5t-82 197.5q0 135 115 219t289 84q197 0 348 -109l-84 -127q-125 86 -272 86q-88 0 -144.5 -38.5t-56.5 -102.5q0 -68 53 -102.5t197 -73.5q168 -47 255 -117.5 t87 -214.5q0 -162 -124 -246t-302 -84q-246 0 -408 142z" />
<glyph unicode="t" horiz-adv-x="751" d="M43 936v143h172v244l188 23v-267h273l-23 -143h-250v-645q0 -84 30 -122t99 -38q68 0 144 47l72 -129q-98 -74 -242 -74q-145 0 -218 84t-73 230v647h-172z" />
<glyph unicode="u" horiz-adv-x="1191" d="M190 295v784h189v-762q0 -104 36 -149t124 -45q158 0 264 166v790h188v-1079h-162l-14 143q-129 -168 -328 -168q-297 0 -297 320z" />
<glyph unicode="v" horiz-adv-x="1011" d="M23 1079h200l283 -905h8l281 905h194l-375 -1079h-219z" />
<glyph unicode="w" horiz-adv-x="1492" d="M43 1079h188l191 -929h8l219 929h211l209 -925h8l193 925h180l-246 -1079h-256l-196 889h-9l-198 -889h-250z" />
<glyph unicode="x" horiz-adv-x="980" d="M4 0l375 569l-332 510h221l221 -387h9l223 387h213l-330 -501l373 -578h-227l-261 449h-8l-264 -449h-213z" />
<glyph unicode="y" horiz-adv-x="1005" d="M23 1079h200l279 -927h8l278 927h195l-360 -1085q-63 -188 -177 -299t-319 -131l-27 147q158 27 229.5 92.5t112.5 196.5h-63z" />
<glyph unicode="z" horiz-adv-x="901" d="M53 0v141l561 779h-514v159h729v-143l-563 -778h570l-23 -158h-760z" />
<glyph unicode="{" horiz-adv-x="665" d="M53 641v152q86 0 115 33.5t29 117.5v463q0 170 94 237.5t289 67.5v-145q-111 0 -158 -32t-47 -108v-489q0 -102 -39 -150.5t-115 -66.5v-8q76 -18 115 -66.5t39 -150.5v-490q0 -78 46 -108.5t159 -30.5v-146q-195 0 -289 68t-94 238v460q0 84 -29 119t-115 35z" />
<glyph unicode="|" horiz-adv-x="825" d="M328 -209v1862h170v-1862h-170z" />
<glyph unicode="}" horiz-adv-x="665" d="M86 -133q113 0 159 30.5t46 108.5v490q0 102 39 150t114 67v8q-76 18 -114.5 66.5t-38.5 150.5v489q0 76 -47 108t-158 32v145q195 0 289 -67.5t94 -237.5v-463q0 -84 28.5 -117.5t114.5 -33.5v-152q-86 0 -114.5 -35t-28.5 -119v-460q0 -170 -94 -238t-289 -68v146z" />
<glyph unicode="~" d="M84 588q96 188 274 188q70 0 131.5 -28.5t108.5 -57t80 -28.5q78 0 137 102l125 -66q-96 -186 -274 -186q-70 0 -131.5 28.5t-108.5 58.5t-80 30q-78 0 -137 -105z" />
<glyph unicode="&#xa1;" horiz-adv-x="542" d="M129 880.5q0 59.5 41 101.5t100.5 42t101.5 -42t42 -101.5t-42 -100.5t-101.5 -41t-100.5 41t-41 100.5zM164 -406l26 934h160l29 -934h-215z" />
<glyph unicode="&#xa2;" horiz-adv-x="976" d="M109 535q0 227 102 377.5t293 179.5v309h162v-307q135 -16 249 -107l-92 -123q-113 84 -235 84q-131 0 -204 -103.5t-73 -309.5q0 -400 279 -400q119 0 235 90l90 -131q-109 -88 -249 -108v-301h-164v303q-193 27 -293 170t-100 377z" />
<glyph unicode="&#xa3;" d="M59 0v150q57 18 93 43.5t51.5 64.5t19.5 71.5t4 90.5v229h-166v123h166v238q0 170 102.5 275.5t284.5 105.5q229 0 361 -181l-125 -94q-94 121 -227 121q-100 0 -154.5 -58.5t-54.5 -166.5v-240h415v-123h-415v-221q0 -199 -113 -262v-8h643l-22 -158h-863z" />
<glyph unicode="&#xa4;" horiz-adv-x="1146" d="M29 264l180 180q-72 111 -72 256q0 143 70 252l-178 183l114 114l181 -182q109 68 251 68q145 0 248 -68l181 180l114 -114l-176 -179q74 -111 74 -254q0 -141 -76 -258l178 -176l-114 -114l-183 178q-102 -66 -246 -66q-145 0 -251 66l-181 -180zM319 700 q0 -137 66 -211.5t190.5 -74.5t189 74.5t64.5 211.5q0 135 -64.5 211t-189 76t-190.5 -75.5t-66 -211.5z" />
<glyph unicode="&#xa5;" d="M-10 1370h209l315 -596h8l314 596h198l-377 -661h240v-125h-289v-183h289v-122h-289v-279h-192v279h-289v122h289v183h-289v125h238z" />
<glyph unicode="&#xa6;" horiz-adv-x="825" d="M328 -209v729h170v-729h-170zM328 924v729h170v-729h-170z" />
<glyph unicode="&#xa7;" d="M109 637q0 154 155 254q-106 84 -106 201q0 135 109.5 214.5t273.5 79.5q195 0 354 -110l-88 -119q-121 84 -268 84q-88 0 -141.5 -37t-53.5 -98q0 -70 49 -111t201 -92q172 -57 245.5 -124.5t73.5 -184.5q0 -135 -153 -238q109 -82 108 -202q0 -137 -110.5 -218 t-288.5 -81q-207 0 -356 112l86 123q125 -88 276 -88q90 0 147.5 35t57.5 98q0 72 -47 110t-203 89q-174 57 -247.5 121.5t-73.5 181.5zM291 661.5q0 -79.5 48 -113.5t220 -93q59 -20 94 -33q80 76 80 151q0 82 -61.5 120t-302.5 126q-78 -78 -78 -157.5z" />
<glyph unicode="&#xa8;" horiz-adv-x="788" d="M61 1456q0 49 34 83t85 34q49 0 83 -34t34 -83t-34 -83t-83 -34q-51 0 -85 34t-34 83zM492 1456q0 49 33.5 83t82.5 34q51 0 85 -34t34 -83t-34 -83t-85 -34q-49 0 -82.5 34t-33.5 83z" />
<glyph unicode="&#xa9;" horiz-adv-x="1638" d="M178 889q0 266 187.5 454.5t455.5 188.5q266 0 452.5 -187.5t186.5 -455.5q0 -266 -186.5 -453.5t-452.5 -187.5t-454.5 187.5t-188.5 453.5zM303 889q0 -223 148.5 -378t369.5 -155q219 0 367.5 155t148.5 378q0 225 -148.5 380.5t-367.5 155.5q-221 0 -369.5 -155.5 t-148.5 -380.5zM485 891q0 182 96.5 285.5t237.5 103.5q133 0 240 -82l-76 -100q-74 59 -156 59q-84 0 -135 -65.5t-51 -200.5q0 -129 50 -194.5t136 -65.5q96 0 172 69l70 -102q-109 -96 -248 -96q-152 0 -244 102.5t-92 286.5z" />
<glyph unicode="&#xaa;" horiz-adv-x="1228" d="M211 901q0 137 112.5 210t321.5 73h109v57q0 84 -46 120t-143 36q-98 0 -237 -49l-49 127q164 61 311 61q336 0 336 -289v-397q0 -80 67 -102l-41 -119q-133 16 -176 121q-104 -121 -264 -121q-139 0 -220 74.5t-81 197.5zM221 0v162h789v-162h-789zM397 909 q0 -151 158 -151q117 0 199 112v193h-103q-254 0 -254 -154z" />
<glyph unicode="&#xab;" horiz-adv-x="1128" d="M113 532v134l358 430l113 -72l-273 -424l273 -424l-113 -72zM543 532v134l360 430l113 -72l-273 -424l273 -424l-113 -72z" />
<glyph unicode="&#xac;" d="M127 561v158h770v-451h-170v293h-600z" />
<glyph unicode="&#xad;" horiz-adv-x="829" d="M125 561v160h580v-160h-580z" />
<glyph unicode="&#xae;" horiz-adv-x="1323" d="M137 1006q0 219 153.5 372.5t371 153.5t370 -153.5t152.5 -373t-151.5 -371t-371 -151.5t-372 152.5t-152.5 370.5zM250 1005.5q0 -178.5 117.5 -300t294 -121.5t293 121.5t116.5 300t-117.5 302.5t-291.5 124q-176 0 -294 -124t-118 -302.5zM457 725v578h174 q254 -1 254 -175q0 -123 -135 -161l174 -242h-140l-151 221h-58v-221h-118zM575 1038h64q123 0 123 90q0 82 -127 82h-60v-172z" />
<glyph unicode="&#xaf;" horiz-adv-x="681" d="M61 1397v141h560v-141h-560z" />
<glyph unicode="&#xb0;" d="M113 1112.5q0 147.5 100 235.5t236 88q137 0 236 -89.5t99 -236.5t-99 -234.5t-236 -87.5q-135 0 -235.5 88.5t-100.5 236zM270 1112q0 -94 52.5 -145.5t126.5 -51.5q76 0 127 50.5t51 144.5t-51.5 145.5t-127 51.5t-127 -50.5t-51.5 -144.5z" />
<glyph unicode="&#xb1;" d="M127 0v156h770v-156h-770zM127 561v156h297v307h176v-307h297v-156h-297v-254h-176v254h-297z" />
<glyph unicode="&#xb2;" horiz-adv-x="819" d="M102 1382q125 143 293 144q131 0 209 -69.5t78 -178.5q0 -106 -86 -220t-279 -278h385l-18 -129h-569v113q236 215 318.5 319.5t82.5 190.5q0 57 -36 90t-93 33q-96 0 -176 -97z" />
<glyph unicode="&#xb3;" horiz-adv-x="819" d="M76 768l100 88q78 -90 193 -90q80 0 126 39t46 104q0 135 -162 135h-76l16 123h52q63 0 104 30t41 89q0 55 -39 85t-100 30q-104 0 -193 -82l-84 94q131 113 283 113q135 0 214 -63.5t79 -159.5q0 -61 -42 -111.5t-116 -69.5v-6q76 -10 131.5 -69.5t55.5 -137.5 q0 -117 -92.5 -193.5t-239.5 -76.5q-182 0 -297 129z" />
<glyph unicode="&#xb4;" horiz-adv-x="608" d="M61 1407l390 229l96 -157l-428 -172z" />
<glyph unicode="&#xb5;" horiz-adv-x="1204" d="M201 -436v1515h188v-606q0 -76 2 -118t10.5 -90t25.5 -71.5t48 -40t78 -16.5q154 0 262 158v784h189v-731q0 -162 53 -348l-176 -25q-35 61 -47 172q-45 -78 -121 -125t-152 -47q-127 0 -188 86l-8 -2q23 -104 22 -174v-299z" />
<glyph unicode="&#xb6;" horiz-adv-x="1503" d="M184 995q0 182 136.5 299t384.5 117h542v-1825l-170 -22v1696h-223v-1674l-170 -22v1022q-240 2 -370 116.5t-130 292.5z" />
<glyph unicode="&#xb7;" horiz-adv-x="542" d="M129 692.5q0 59.5 41 100.5t100 41q61 0 102.5 -41t41.5 -100.5t-41 -101.5t-103 -42q-59 0 -100 42t-41 101.5z" />
<glyph unicode="&#xb8;" horiz-adv-x="595" d="M61 -442l58 104q61 -33 137 -33q121 0 121 82q0 51 -44 68.5t-134 17.5l18 236h125v-148q96 -8 144.5 -57t48.5 -117q0 -96 -74 -150.5t-182 -54.5q-129 0 -218 52z" />
<glyph unicode="&#xb9;" horiz-adv-x="819" d="M135 1341l297 172h125v-862h-154v688l-192 -104z" />
<glyph unicode="&#xba;" horiz-adv-x="1228" d="M203 1083q0 203 110.5 328t300.5 125q193 0 301.5 -123t108.5 -330q0 -205 -109.5 -329.5t-300.5 -124.5q-193 0 -302 123.5t-109 330.5zM221 0v162h789v-162h-789zM387 1083q0 -315 227 -315q226 0 226 315q0 313 -226 314q-227 0 -227 -314z" />
<glyph unicode="&#xbb;" horiz-adv-x="1128" d="M113 176l272 424l-272 424l112 72l359 -430v-134l-359 -428zM543 176l272 424l-272 424l112 72l361 -430v-134l-361 -428z" />
<glyph unicode="&#xbc;" horiz-adv-x="1884" d="M135 1260l297 172h125v-863h-154v688l-192 -104zM465 -100l829 1638l125 -61l-827 -1639zM1147 197v102l274 584l133 -54l-231 -507h190l15 215h141v-215h111v-125h-111v-197h-156v197h-366z" />
<glyph unicode="&#xbd;" horiz-adv-x="1884" d="M135 1260l297 172h125v-863h-154v688l-192 -104zM465 -100l829 1638l125 -61l-827 -1639zM1178 731q125 143 292 143q131 0 209 -69t78 -178q0 -106 -86 -220t-278 -278h385l-19 -129h-569v113q236 215 318.5 319.5t82.5 190.5q0 57 -35.5 89.5t-93.5 32.5 q-96 0 -176 -96z" />
<glyph unicode="&#xbe;" horiz-adv-x="1884" d="M76 686l100 88q78 -90 193 -90q80 0 126 39t46 104q0 135 -162 136h-76l16 122h52q63 0 104 30t41 89q0 55 -39 85t-100 30q-104 0 -193 -82l-84 94q131 113 283 113q135 0 214 -63.5t79 -159.5q0 -61 -42 -111.5t-116 -69.5v-6q76 -10 131.5 -69.5t55.5 -137.5 q0 -117 -92.5 -193.5t-239.5 -76.5q-182 0 -297 129zM465 -100l829 1638l125 -61l-827 -1639zM1147 197v102l274 584l133 -54l-231 -507h190l15 215h141v-215h111v-125h-111v-197h-156v197h-366z" />
<glyph unicode="&#xbf;" horiz-adv-x="1038" d="M133 -117q0 90 38 155.5t93 106.5t109.5 79t92.5 97.5t38 139.5v67h186v-77q0 -92 -37 -163t-90 -114t-106.5 -81t-90 -87t-36.5 -110q0 -84 56 -130.5t155 -46.5q160 0 280 148l131 -100q-176 -203 -428 -203q-184 0 -287.5 94t-103.5 225zM449 880.5q0 59.5 40.5 101.5 t100 42t101.5 -42t42 -101.5t-42 -100.5t-101.5 -41t-100 41t-40.5 100.5z" />
<glyph unicode="&#xc0;" horiz-adv-x="1185" d="M12 0l459 1411h246l457 -1411h-205l-109 354h-543l-108 -354h-197zM344 1704l98 158l385 -226l-55 -100zM365 512h448l-219 723h-8z" />
<glyph unicode="&#xc1;" horiz-adv-x="1185" d="M12 0l459 1411h246l457 -1411h-205l-109 354h-543l-108 -354h-197zM352 1640l387 224l97 -158l-426 -166zM365 512h448l-219 723h-8z" />
<glyph unicode="&#xc2;" horiz-adv-x="1185" d="M12 0l459 1411h246l457 -1411h-205l-109 354h-543l-108 -354h-197zM252 1636l278 228h125l277 -228l-80 -92l-260 166l-258 -166zM365 512h448l-219 723h-8z" />
<glyph unicode="&#xc3;" horiz-adv-x="1185" d="M12 0l459 1411h246l457 -1411h-205l-109 354h-543l-108 -354h-197zM254 1632q78 182 231 183q70 0 135.5 -49.5t90.5 -49.5q33 0 55 20.5t49 67.5l117 -51q-80 -180 -232 -180q-66 0 -133 49t-92 49q-33 0 -55.5 -20.5t-48.5 -69.5zM365 512h448l-219 723h-8z" />
<glyph unicode="&#xc4;" horiz-adv-x="1185" d="M12 0l459 1411h246l457 -1411h-205l-109 354h-543l-108 -354h-197zM260 1681q0 49 34 82t83 33q51 0 85 -32.5t34 -82.5q0 -51 -34 -83.5t-85 -32.5q-49 0 -83 32.5t-34 83.5zM365 512h448l-219 723h-8zM688 1681q0 49 34 82t85 33q49 0 84 -32.5t35 -82t-35 -83 t-84 -33.5q-51 0 -85 32.5t-34 83.5z" />
<glyph unicode="&#xc5;" horiz-adv-x="1185" d="M12 0l459 1411h246l457 -1411h-205l-109 354h-543l-108 -354h-197zM358 1720q0 90 65.5 152.5t168 62.5t168 -62.5t65.5 -152.5q0 -92 -65.5 -154.5t-168 -62.5t-168 62.5t-65.5 154.5zM365 512h448l-219 723h-8zM481 1720.5q0 -53.5 30 -85t81 -31.5q49 0 78.5 31.5 t29.5 85t-29.5 84t-78.5 30.5q-51 0 -81 -30.5t-30 -84z" />
<glyph unicode="&#xc6;" horiz-adv-x="1626" d="M-25 0l562 1411h940l-23 -154h-633l115 -464h522v-154h-481l119 -485h465v-154h-623l-84 354h-547l-133 -354h-199zM365 512h454l-168 727h-10z" />
<glyph unicode="&#xc7;" horiz-adv-x="1169" d="M127 707q0 342 168 535.5t418 193.5q129 0 219 -34t178 -106l-106 -125q-125 104 -279 105q-174 0 -282.5 -136t-108.5 -433q0 -291 106.5 -429.5t282.5 -138.5q170 0 307 121l100 -127q-160 -152 -399 -158v-90q96 -8 144.5 -57t48.5 -117q0 -96 -74 -150.5t-182 -54.5 q-129 0 -217 52l57 104q61 -33 135 -33q123 0 123 82q0 51 -44 68.5t-134 17.5l14 189q-217 39 -346 226t-129 495z" />
<glyph unicode="&#xc8;" horiz-adv-x="1105" d="M215 0v1411h764l-23 -156h-546v-460h475v-156h-475v-483h585v-156h-780zM354 1704l99 158l385 -226l-56 -100z" />
<glyph unicode="&#xc9;" horiz-adv-x="1105" d="M215 0v1411h764l-23 -156h-546v-460h475v-156h-475v-483h585v-156h-780zM377 1636l387 224l96 -158l-426 -166z" />
<glyph unicode="&#xca;" horiz-adv-x="1105" d="M215 0v1411h764l-23 -156h-546v-460h475v-156h-475v-483h585v-156h-780zM250 1636l278 228h125l277 -228l-80 -92l-260 166l-258 -166z" />
<glyph unicode="&#xcb;" horiz-adv-x="1105" d="M215 0v1411h764l-23 -156h-546v-460h475v-156h-475v-483h585v-156h-780zM258 1681q0 49 34 82t83 33q51 0 85 -32.5t34 -82.5q0 -51 -34 -83.5t-85 -32.5q-49 0 -83 32.5t-34 83.5zM686 1681q0 49 34 82t85 33q49 0 84 -32.5t35 -82t-35 -83t-84 -33.5q-51 0 -85 32.5 t-34 83.5z" />
<glyph unicode="&#xcc;" horiz-adv-x="626" d="M72 1704l98 158l385 -226l-55 -100zM215 0v1411h197v-1411h-197z" />
<glyph unicode="&#xcd;" horiz-adv-x="626" d="M72 1636l387 224l96 -158l-426 -166zM215 0v1411h197v-1411h-197z" />
<glyph unicode="&#xce;" horiz-adv-x="626" d="M-27 1636l279 228h125l276 -228l-80 -92l-260 166l-258 -166zM215 0v1411h197v-1411h-197z" />
<glyph unicode="&#xcf;" horiz-adv-x="626" d="M-18 1681q0 49 33.5 82t82.5 33q51 0 85 -32.5t34 -82.5q0 -51 -34 -83.5t-85 -32.5q-49 0 -82.5 32.5t-33.5 83.5zM215 0v1411h197v-1411h-197zM410 1681q0 49 33.5 82t84.5 33q49 0 84 -32.5t35 -82t-35 -83t-84 -33.5q-51 0 -84.5 32.5t-33.5 83.5z" />
<glyph unicode="&#xd0;" horiz-adv-x="1343" d="M47 651v144h168v616h315q111 0 203 -15.5t185.5 -61.5t156 -121.5t102.5 -202.5t40 -297q0 -168 -41 -297t-104.5 -207t-154 -126t-177.5 -65.5t-187 -17.5h-338v651h-168zM410 154h165q86 0 157 24.5t136.5 82.5t103.5 173t38 279q0 137 -28 239.5t-69 158.5t-101 90 t-115.5 44t-123.5 10h-163v-460h352v-144h-352v-497z" />
<glyph unicode="&#xd1;" horiz-adv-x="1411" d="M215 0v1411h258l559 -1200h8q-27 213 -26 512v688h182v-1411h-264l-553 1194h-8q27 -213 26 -506v-688h-182zM360 1632q78 182 232 183q70 0 135.5 -49.5t89.5 -49.5q33 0 55.5 20.5t49.5 67.5l116 -51q-79 -180 -231 -180q-66 0 -133.5 49t-91.5 49q-33 0 -55.5 -20.5 t-49.5 -69.5z" />
<glyph unicode="&#xd2;" horiz-adv-x="1425" d="M127 702q0 346 161 540t425 194q266 0 425.5 -190.5t159.5 -540.5q0 -346 -159.5 -538t-426 -192t-426 188.5t-159.5 538.5zM334 702q0 -567 379 -566.5t379 569.5q0 571 -379 571t-379 -574zM465 1704l98 158l385 -226l-55 -100z" />
<glyph unicode="&#xd3;" horiz-adv-x="1425" d="M127 702q0 346 161 540t425 194q266 0 425.5 -190.5t159.5 -540.5q0 -346 -159.5 -538t-426 -192t-426 188.5t-159.5 538.5zM334 702q0 -567 379 -566.5t379 569.5q0 571 -379 571t-379 -574zM475 1636l387 224l96 -158l-426 -166z" />
<glyph unicode="&#xd4;" horiz-adv-x="1425" d="M127 702q0 346 161 540t425 194q266 0 425.5 -190.5t159.5 -540.5q0 -346 -159.5 -538t-426 -192t-426 188.5t-159.5 538.5zM334 702q0 -567 379 -566.5t379 569.5q0 571 -379 571t-379 -574zM373 1636l278 228h125l277 -228l-80 -92l-260 166l-258 -166z" />
<glyph unicode="&#xd5;" horiz-adv-x="1425" d="M127 702q0 346 161 540t425 194q266 0 425.5 -190.5t159.5 -540.5q0 -346 -159.5 -538t-426 -192t-426 188.5t-159.5 538.5zM334 702q0 -567 379 -566.5t379 569.5q0 571 -379 571t-379 -574zM375 1632q78 182 231 183q70 0 135.5 -49.5t89.5 -49.5q33 0 55.5 20.5 t49.5 67.5l117 -51q-80 -180 -232 -180q-66 0 -133 49t-92 49q-33 0 -55.5 -20.5t-48.5 -69.5z" />
<glyph unicode="&#xd6;" horiz-adv-x="1425" d="M127 702q0 346 161 540t425 194q266 0 425.5 -190.5t159.5 -540.5q0 -346 -159.5 -538t-426 -192t-426 188.5t-159.5 538.5zM334 702q0 -567 379 -566.5t379 569.5q0 571 -379 571t-379 -574zM381 1681q0 49 34 82t83 33q51 0 84.5 -32.5t33.5 -82.5q0 -51 -33.5 -83.5 t-84.5 -32.5q-49 0 -83 32.5t-34 83.5zM809 1681q0 49 34 82t85 33q49 0 84 -32.5t35 -82t-35 -83t-84 -33.5q-51 0 -85 32.5t-34 83.5z" />
<glyph unicode="&#xd7;" d="M156 367l241 241l-241 242l114 117l242 -244l242 244l114 -117l-241 -242l241 -241l-114 -115l-242 242l-242 -242z" />
<glyph unicode="&#xd8;" horiz-adv-x="1425" d="M127 702q0 346 161 540t425 194q57 0 129 -15l76 256l161 -43l-84 -270q143 -80 223 -248.5t80 -410.5q0 -346 -159.5 -538t-425.5 -192q-72 0 -129 15l-76 -258l-162 43l84 270q-143 80 -223 247t-80 410zM334 702q0 -385 166 -505l309 1069q-57 10 -96 10 q-379 -1 -379 -574zM616 145q35 -10 97 -10q379 1 379 570q0 389 -166 507z" />
<glyph unicode="&#xd9;" horiz-adv-x="1376" d="M195 459v952h194v-944q0 -328 297 -328q299 0 299 328v944h197v-952q0 -219 -131 -351.5t-365 -132.5q-236 0 -363.5 131.5t-127.5 352.5zM424 1704l98 158l385 -226l-55 -100z" />
<glyph unicode="&#xda;" horiz-adv-x="1376" d="M195 459v952h194v-944q0 -328 297 -328q299 0 299 328v944h197v-952q0 -219 -131 -351.5t-365 -132.5q-236 0 -363.5 131.5t-127.5 352.5zM465 1636l387 224l96 -158l-426 -166z" />
<glyph unicode="&#xdb;" horiz-adv-x="1376" d="M195 459v952h194v-944q0 -328 297 -328q299 0 299 328v944h197v-952q0 -219 -131 -351.5t-365 -132.5q-236 0 -363.5 131.5t-127.5 352.5zM348 1636l279 228h125l276 -228l-80 -92l-260 166l-258 -166z" />
<glyph unicode="&#xdc;" horiz-adv-x="1376" d="M195 459v952h194v-944q0 -328 297 -328q299 0 299 328v944h197v-952q0 -219 -131 -351.5t-365 -132.5q-236 0 -363.5 131.5t-127.5 352.5zM354 1681q0 49 34 82t83 33q51 0 85 -32.5t34 -82.5q0 -51 -34 -83.5t-85 -32.5q-49 0 -83 32.5t-34 83.5zM782 1681q0 49 34 82 t85 33q49 0 84 -32.5t35 -82t-35 -83t-84 -33.5q-51 0 -85 32.5t-34 83.5z" />
<glyph unicode="&#xdd;" horiz-adv-x="1126" d="M10 1411h215l340 -690h8l340 690h203l-454 -868v-543h-197v541zM342 1636l387 224l96 -158l-426 -166z" />
<glyph unicode="&#xde;" horiz-adv-x="1208" d="M215 0v1411h195v-237h192q264 0 405.5 -111t141.5 -336q0 -238 -145.5 -352.5t-397.5 -114.5h-196v-260h-195zM410 414h215q154 0 236.5 69.5t82.5 239.5q0 299 -321 299h-213v-608z" />
<glyph unicode="&#xdf;" horiz-adv-x="1218" d="M201 0v1092q0 215 109.5 329.5t307.5 114.5q162 0 262.5 -83t100.5 -214q0 -68 -36 -122t-78 -85t-77.5 -71.5t-35.5 -81.5q0 -47 42 -89t101 -78t118.5 -80t101.5 -119t42 -171q0 -172 -110.5 -269.5t-274.5 -97.5q-154 0 -264 70l74 129q80 -47 172 -47q100 0 155.5 52 t55.5 155q0 72 -41 126t-98.5 92t-116 76t-99.5 95t-41 131q0 53 23.5 97t57.5 74t68 57.5t57.5 63.5t23.5 77q0 66 -44 116t-141 50q-115 0 -171 -68t-56 -217v-1104h-188z" />
<glyph unicode="&#xe0;" horiz-adv-x="1118" d="M92 309q0 168 131 258t377 90h139v84q0 113 -56 161t-177 48q-125 0 -283 -55l-49 139q188 70 361 70q393 0 393 -352v-508q0 -61 18.5 -91t61.5 -47l-45 -131q-154 20 -199 152q-113 -152 -322 -152q-162 0 -256 91.5t-94 242.5zM299 317q0 -200 195 -200q147 0 245 149 v266h-129q-311 0 -311 -215zM301 1464l96 158l385 -246l-59 -102z" />
<glyph unicode="&#xe1;" horiz-adv-x="1118" d="M92 309q0 168 131 258t377 90h139v84q0 113 -56 161t-177 48q-125 0 -283 -55l-49 139q188 70 361 70q393 0 393 -352v-508q0 -61 18.5 -91t61.5 -47l-45 -131q-154 20 -199 152q-113 -152 -322 -152q-162 0 -256 91.5t-94 242.5zM299 317q0 -200 195 -200q147 0 245 149 v266h-129q-311 0 -311 -215zM301 1376l385 244l96 -158l-420 -188z" />
<glyph unicode="&#xe2;" horiz-adv-x="1118" d="M92 309q0 168 131 258t377 90h139v84q0 113 -56 161t-177 48q-125 0 -283 -55l-49 139q188 70 361 70q393 0 393 -352v-508q0 -61 18.5 -91t61.5 -47l-45 -131q-154 20 -199 152q-113 -152 -322 -152q-162 0 -256 91.5t-94 242.5zM201 1374l278 248h125l277 -248l-82 -90 l-256 186l-256 -186zM299 317q0 -200 195 -200q147 0 245 149v266h-129q-311 0 -311 -215z" />
<glyph unicode="&#xe3;" horiz-adv-x="1118" d="M92 309q0 168 131 258t377 90h139v84q0 113 -56 161t-177 48q-125 0 -283 -55l-49 139q188 70 361 70q393 0 393 -352v-508q0 -61 18.5 -91t61.5 -47l-45 -131q-154 20 -199 152q-113 -152 -322 -152q-162 0 -256 91.5t-94 242.5zM205 1393q76 180 231 180 q70 0 135.5 -49t90.5 -49q53 0 104 90l117 -52q-78 -182 -232 -182q-66 0 -133 49.5t-92 49.5q-53 0 -104 -91zM299 317q0 -200 195 -200q147 0 245 149v266h-129q-311 0 -311 -215z" />
<glyph unicode="&#xe4;" horiz-adv-x="1118" d="M92 309q0 168 131 258t377 90h139v84q0 113 -56 161t-177 48q-125 0 -283 -55l-49 139q188 70 361 70q393 0 393 -352v-508q0 -61 18.5 -91t61.5 -47l-45 -131q-154 20 -199 152q-113 -152 -322 -152q-162 0 -256 91.5t-94 242.5zM217 1440q0 51 34 83.5t85 32.5 q49 0 83 -32.5t34 -83.5q0 -49 -34 -82t-83 -33q-51 0 -85 33t-34 82zM299 317q0 -200 195 -200q147 0 245 149v266h-129q-311 0 -311 -215zM647 1440q0 51 34 83.5t83 32.5q51 0 85 -32.5t34 -83.5q0 -49 -34 -82t-85 -33q-49 0 -83 33t-34 82z" />
<glyph unicode="&#xe5;" horiz-adv-x="1118" d="M92 309q0 168 131 258t377 90h139v84q0 113 -56 161t-177 48q-125 0 -283 -55l-49 139q188 70 361 70q393 0 393 -352v-508q0 -61 18.5 -91t61.5 -47l-45 -131q-154 20 -199 152q-113 -152 -322 -152q-162 0 -256 91.5t-94 242.5zM299 317q0 -200 195 -200q147 0 245 149 v266h-129q-311 0 -311 -215zM309 1479q0 92 65.5 154.5t168 62.5t168 -62.5t65.5 -154.5q0 -90 -65.5 -152.5t-168 -62.5t-168 62.5t-65.5 152.5zM434 1478.5q0 -53.5 30 -84t79 -30.5q51 0 79.5 30.5t28.5 84t-28.5 84t-79.5 30.5q-49 0 -79 -30.5t-30 -84z" />
<glyph unicode="&#xe6;" horiz-adv-x="1720" d="M92 309q0 168 131 258t377 90h141v84q0 111 -57 160t-178 49q-125 0 -283 -55l-49 139q188 70 361 70q251 0 323 -176q111 176 318 176q209 0 322.5 -141.5t113.5 -391.5q0 -47 -4 -96h-688q25 -346 290 -346q147 0 271 100l86 -125q-162 -129 -361 -129q-246 0 -370 185 q-133 -184 -381 -185q-172 0 -267.5 90.5t-95.5 243.5zM297 319q0 -202 197 -202q170 0 276 190q-29 92 -29 225h-131q-313 0 -313 -213zM920 614h505q-5 340 -249 340q-236 0 -256 -340z" />
<glyph unicode="&#xe7;" horiz-adv-x="974" d="M117 535q0 254 126 411.5t357 157.5q186 0 326 -117l-92 -123q-113 84 -234 84q-133 0 -207 -103.5t-74 -309.5q0 -399 281 -400q117 0 236 88l90 -129q-129 -106 -297 -117v-92q96 -8 144 -57t48 -117q0 -96 -73.5 -150.5t-182.5 -54.5q-129 0 -217 52l58 104 q61 -33 137 -33q121 0 121 82q0 51 -44.5 68.5t-134.5 17.5l15 187q-188 31 -285.5 175t-97.5 376z" />
<glyph unicode="&#xe8;" horiz-adv-x="1118" d="M117 539q0 250 122.5 407.5t333.5 157.5q209 0 323 -141.5t114 -391.5q0 -47 -4 -96h-689q25 -346 291 -346q147 0 271 100l86 -125q-162 -129 -361 -129q-236 0 -361.5 153t-125.5 411zM317 614h506q-6 340 -250 340q-236 0 -256 -340zM334 1464l96 158l385 -246 l-59 -102z" />
<glyph unicode="&#xe9;" horiz-adv-x="1118" d="M117 539q0 250 122.5 407.5t333.5 157.5q209 0 323 -141.5t114 -391.5q0 -47 -4 -96h-689q25 -346 291 -346q147 0 271 100l86 -125q-162 -129 -361 -129q-236 0 -361.5 153t-125.5 411zM317 614h506q-6 340 -250 340q-236 0 -256 -340zM334 1376l385 244l96 -158 l-420 -188z" />
<glyph unicode="&#xea;" horiz-adv-x="1118" d="M117 539q0 250 122.5 407.5t333.5 157.5q209 0 323 -141.5t114 -391.5q0 -47 -4 -96h-689q25 -346 291 -346q147 0 271 100l86 -125q-162 -129 -361 -129q-236 0 -361.5 153t-125.5 411zM236 1374l278 248h125l276 -248l-81 -90l-256 186l-256 -186zM317 614h506 q-6 340 -250 340q-236 0 -256 -340z" />
<glyph unicode="&#xeb;" horiz-adv-x="1118" d="M117 539q0 250 122.5 407.5t333.5 157.5q209 0 323 -141.5t114 -391.5q0 -47 -4 -96h-689q25 -346 291 -346q147 0 271 100l86 -125q-162 -129 -361 -129q-236 0 -361.5 153t-125.5 411zM242 1440q0 51 33.5 83.5t84.5 32.5q49 0 83 -32.5t34 -83.5q0 -49 -34 -82 t-83 -33q-51 0 -84.5 33t-33.5 82zM317 614h506q-6 340 -250 340q-236 0 -256 -340zM672 1440q0 51 33.5 83.5t82.5 32.5q51 0 85 -32.5t34 -83.5q0 -49 -34 -82t-85 -33q-49 0 -82.5 33t-33.5 82z" />
<glyph unicode="&#xec;" horiz-adv-x="571" d="M39 1464l96 158l385 -246l-59 -102zM190 0v1079h189v-1079h-189z" />
<glyph unicode="&#xed;" horiz-adv-x="571" d="M47 1376l385 244l96 -158l-419 -188zM190 0v1079h189v-1079h-189z" />
<glyph unicode="&#xee;" horiz-adv-x="571" d="M-55 1374l278 248h125l277 -248l-82 -90l-256 186l-256 -186zM190 0v1079h189v-1079h-189z" />
<glyph unicode="&#xef;" horiz-adv-x="571" d="M-47 1440q0 51 33.5 83.5t85.5 32.5q49 0 82.5 -32.5t33.5 -83.5q0 -49 -33.5 -82t-82.5 -33q-51 0 -85 33t-34 82zM190 0v1079h189v-1079h-189zM383 1440q0 51 34 83.5t83 32.5q51 0 84.5 -32.5t33.5 -83.5q0 -49 -33.5 -82t-84.5 -33q-49 0 -83 33t-34 82z" />
<glyph unicode="&#xf0;" horiz-adv-x="1159" d="M117 481q0 221 120.5 362.5t290.5 141.5q184 0 289 -125l6 2q-51 244 -233 385l-156 -160l-131 66l160 168q-90 43 -223 72l41 143q182 -41 294 -98l144 151l110 -96l-124 -129q176 -123 255.5 -323.5t79.5 -497.5q0 -256 -130 -412t-341 -156q-197 0 -324.5 135.5 t-127.5 370.5zM309 489q0 -176 70 -270t188 -94q129 0 206 108.5t77 311.5q0 70 -6 135q-104 158 -287 158q-106 0 -177 -88t-71 -261z" />
<glyph unicode="&#xf1;" horiz-adv-x="1206" d="M201 0v1079h161l15 -147q137 172 344 172q293 0 293 -320v-784h-189v772q0 98 -37.5 141t-130.5 43q-149 0 -268 -174v-782h-188zM279 1393q76 180 231 180q70 0 135.5 -49t89.5 -49q53 0 105 90l116 -52q-77 -182 -231 -182q-66 0 -133.5 49.5t-91.5 49.5 q-53 0 -105 -91z" />
<glyph unicode="&#xf2;" horiz-adv-x="1196" d="M117 539q0 256 128 410.5t355 154.5t353 -151.5t126 -411.5q0 -254 -128 -410t-353 -156q-227 0 -354 152t-127 412zM319 539q0 -412 279 -412t279 414q0 412 -277 411q-281 0 -281 -413zM352 1464l97 158l385 -246l-60 -102z" />
<glyph unicode="&#xf3;" horiz-adv-x="1196" d="M117 539q0 256 128 410.5t355 154.5t353 -151.5t126 -411.5q0 -254 -128 -410t-353 -156q-227 0 -354 152t-127 412zM319 539q0 -412 279 -412t279 414q0 412 -277 411q-281 0 -281 -413zM360 1376l385 244l97 -158l-420 -188z" />
<glyph unicode="&#xf4;" horiz-adv-x="1196" d="M117 539q0 256 128 410.5t355 154.5t353 -151.5t126 -411.5q0 -254 -128 -410t-353 -156q-227 0 -354 152t-127 412zM256 1374l279 248h124l277 -248l-82 -90l-256 186l-256 -186zM319 539q0 -412 279 -412t279 414q0 412 -277 411q-281 0 -281 -413z" />
<glyph unicode="&#xf5;" horiz-adv-x="1196" d="M117 539q0 256 128 410.5t355 154.5t353 -151.5t126 -411.5q0 -254 -128 -410t-353 -156q-227 0 -354 152t-127 412zM260 1393q76 180 232 180q70 0 135 -49t90 -49q53 0 104 90l117 -52q-77 -182 -231 -182q-66 0 -133.5 49.5t-92.5 49.5q-53 0 -104 -91zM319 539 q0 -412 279 -412t279 414q0 412 -277 411q-281 0 -281 -413z" />
<glyph unicode="&#xf6;" horiz-adv-x="1196" d="M117 539q0 256 128 410.5t355 154.5t353 -151.5t126 -411.5q0 -254 -128 -410t-353 -156q-227 0 -354 152t-127 412zM266 1440q0 51 34 83.5t85 32.5q49 0 83 -32.5t34 -83.5q0 -49 -34 -82t-83 -33q-51 0 -85 33t-34 82zM319 539q0 -412 279 -412t279 414 q0 412 -277 411q-281 0 -281 -413zM696 1440q0 51 34 83.5t83 32.5q51 0 85 -32.5t34 -83.5q0 -49 -34 -82t-85 -33q-49 0 -83 33t-34 82z" />
<glyph unicode="&#xf7;" d="M127 561v158h770v-158h-770zM369 235.5q0 59.5 42 100.5t101 41t101 -41t42 -100.5t-42 -101.5t-101 -42t-101 42t-42 101.5zM369 1046.5q0 59.5 42 100.5t101 41t101 -41t42 -100.5t-42 -100.5t-101 -41t-101 41t-42 100.5z" />
<glyph unicode="&#xf8;" horiz-adv-x="1196" d="M117 539q0 256 128 410.5t355 154.5q45 0 96 -10l78 247l154 -45l-84 -256q113 -66 174 -195.5t61 -303.5q0 -254 -128 -410t-353 -156q-57 0 -96 11l-78 -254l-154 45l84 258q-115 66 -176 196t-61 308zM319 539q0 -266 109 -357l238 764q-41 4 -66 4q-281 1 -281 -411z M535 133q31 -6 63 -6q279 0 279 414q0 262 -107 352z" />
<glyph unicode="&#xf9;" horiz-adv-x="1191" d="M190 295v784h189v-762q0 -104 36 -149t124 -45q158 0 264 166v790h188v-1079h-162l-14 143q-129 -168 -328 -168q-297 0 -297 320zM336 1464l96 158l385 -246l-59 -102z" />
<glyph unicode="&#xfa;" horiz-adv-x="1191" d="M190 295v784h189v-762q0 -104 36 -149t124 -45q158 0 264 166v790h188v-1079h-162l-14 143q-129 -168 -328 -168q-297 0 -297 320zM387 1376l385 244l96 -158l-419 -188z" />
<glyph unicode="&#xfb;" horiz-adv-x="1191" d="M190 295v784h189v-762q0 -104 36 -149t124 -45q158 0 264 166v790h188v-1079h-162l-14 143q-129 -168 -328 -168q-297 0 -297 320zM252 1374l278 248h125l277 -248l-82 -90l-256 186l-256 -186z" />
<glyph unicode="&#xfc;" horiz-adv-x="1191" d="M190 295v784h189v-762q0 -104 36 -149t124 -45q158 0 264 166v790h188v-1079h-162l-14 143q-129 -168 -328 -168q-297 0 -297 320zM260 1440q0 51 34 83.5t85 32.5q49 0 83 -32.5t34 -83.5q0 -49 -34 -82t-83 -33q-51 0 -85 33t-34 82zM690 1440q0 51 34 83.5t83 32.5 q51 0 85 -32.5t34 -83.5q0 -49 -34 -82t-85 -33q-49 0 -83 33t-34 82z" />
<glyph unicode="&#xfd;" horiz-adv-x="1005" d="M23 1079h200l279 -927h8l278 927h195l-360 -1085q-63 -188 -177 -299t-319 -131l-27 147q158 27 229.5 92.5t112.5 196.5h-63zM299 1376l385 244l96 -158l-420 -188z" />
<glyph unicode="&#xfe;" horiz-adv-x="1212" d="M201 -436v1949l188 23v-594q123 162 305 162q401 0 402 -563q0 -254 -112 -410t-314 -156q-178 0 -281 123v-512zM389 260q86 -131 236 -131q268 0 268 412q0 413 -244 413q-147 0 -260 -168v-526z" />
<glyph unicode="&#xff;" horiz-adv-x="1005" d="M23 1079h200l279 -927h8l278 927h195l-360 -1085q-63 -188 -177 -299t-319 -131l-27 147q158 27 229.5 92.5t112.5 196.5h-63zM174 1440q0 51 34 83.5t85 32.5q49 0 83 -32.5t34 -83.5q0 -49 -34 -82t-83 -33q-51 0 -85 33t-34 82zM604 1440q0 51 34 83.5t83 32.5 q51 0 85 -32.5t34 -83.5q0 -49 -34 -82t-85 -33q-49 0 -83 33t-34 82z" />
<glyph unicode="&#x152;" horiz-adv-x="1886" d="M139 702q0 342 163 538t415 196q92 0 172 -25h870l-22 -154h-621q129 -154 146 -464h403v-154h-403q-10 -324 -150 -485h664v-154h-893q-76 -25 -166 -25q-254 0 -416 189.5t-162 537.5zM346 702q0 -293 101.5 -430t269.5 -137q184 0 268 132.5t84 437.5q0 301 -89 435 t-263 134q-170 0 -270.5 -138.5t-100.5 -433.5z" />
<glyph unicode="&#x153;" horiz-adv-x="1855" d="M117 539q0 254 127 409.5t350 155.5q260 0 373 -223q104 223 344 223q209 0 322.5 -141.5t113.5 -391.5q0 -47 -4 -96h-688q25 -346 291 -346q147 0 270 100l86 -125q-162 -129 -361 -129q-268 0 -376 220q-117 -219 -371 -220q-225 0 -351 152t-126 412zM319 539 q0 -410 275 -410q278 0 278 412q0 410 -278 409q-274 0 -275 -411zM1055 614h506q-6 340 -250 340q-236 0 -256 -340z" />
<glyph unicode="&#x178;" horiz-adv-x="1126" d="M10 1411h215l340 -690h8l340 690h203l-454 -868v-543h-197v541zM231 1681q0 49 34 82t83 33q51 0 85 -32.5t34 -82.5q0 -51 -34 -83.5t-85 -32.5q-49 0 -83 32.5t-34 83.5zM659 1681q0 49 34 82t85 33q49 0 84 -32.5t35 -82t-35 -83t-84 -33.5q-51 0 -85 32.5t-34 83.5z " />
<glyph unicode="&#x2c6;" horiz-adv-x="802" d="M61 1407l279 231h125l276 -231l-79 -92l-259 172l-260 -172z" />
<glyph unicode="&#x2dc;" horiz-adv-x="798" d="M61 1409q76 180 232 180q68 0 133.5 -49t91.5 -49q53 0 105 90l114 -53q-75 -180 -231 -180q-66 0 -132.5 49t-90.5 49q-33 0 -55.5 -20.5t-49.5 -69.5z" />
<glyph unicode="&#x2000;" horiz-adv-x="967" />
<glyph unicode="&#x2001;" horiz-adv-x="1935" />
<glyph unicode="&#x2002;" horiz-adv-x="967" />
<glyph unicode="&#x2003;" horiz-adv-x="1935" />
<glyph unicode="&#x2004;" horiz-adv-x="645" />
<glyph unicode="&#x2005;" horiz-adv-x="483" />
<glyph unicode="&#x2006;" horiz-adv-x="322" />
<glyph unicode="&#x2007;" horiz-adv-x="322" />
<glyph unicode="&#x2008;" horiz-adv-x="241" />
<glyph unicode="&#x2009;" horiz-adv-x="387" />
<glyph unicode="&#x200a;" horiz-adv-x="107" />
<glyph unicode="&#x2010;" horiz-adv-x="829" d="M125 561v160h580v-160h-580z" />
<glyph unicode="&#x2011;" horiz-adv-x="829" d="M125 561v160h580v-160h-580z" />
<glyph unicode="&#x2012;" horiz-adv-x="829" d="M125 561v160h580v-160h-580z" />
<glyph unicode="&#x2013;" horiz-adv-x="1064" d="M66 561v160h933v-160h-933z" />
<glyph unicode="&#x2014;" horiz-adv-x="1619" d="M66 561v160h1486v-160h-1486z" />
<glyph unicode="&#x2018;" horiz-adv-x="522" d="M113 1153q0 49 32 119l138 291h116l-69 -314q47 -33 47 -96q0 -53 -39 -91t-94.5 -38t-93 38t-37.5 91z" />
<glyph unicode="&#x2019;" horiz-adv-x="522" d="M117 1024l69 313q-47 34 -47 97q0 53 40 91t93 38q55 0 94.5 -38t39.5 -91q0 -43 -35 -119l-138 -291h-116z" />
<glyph unicode="&#x201a;" horiz-adv-x="522" d="M117 -319l69 313q-47 33 -47 96q0 53 40 91t93 38q55 0 94.5 -38t39.5 -91q0 -43 -35 -119l-138 -290h-116z" />
<glyph unicode="&#x201c;" horiz-adv-x="894" d="M113 1153q0 49 32 119l138 291h116l-69 -314q47 -33 47 -96q0 -53 -39 -91t-94.5 -38t-93 38t-37.5 91zM485 1153q0 49 33 119l137 291h117l-70 -314q48 -33 48 -96q0 -53 -40 -91t-94 -38q-55 0 -93 38t-38 91z" />
<glyph unicode="&#x201d;" horiz-adv-x="894" d="M117 1024l69 313q-47 34 -47 97q0 53 40 91t93 38q55 0 94.5 -38t39.5 -91q0 -43 -35 -119l-138 -291h-116zM489 1024l70 313q-47 34 -47 97q0 53 40 91t93 38q55 0 94 -38t39 -91q0 -43 -35 -119l-137 -291h-117z" />
<glyph unicode="&#x201e;" horiz-adv-x="890" d="M117 -319l69 313q-47 33 -47 96q0 53 40 91t93 38q55 0 94.5 -38t39.5 -91q0 -43 -35 -119l-138 -290h-116zM487 -319l70 313q-47 33 -47 96q0 53 40 91t93 38q55 0 93 -38t38 -91q0 -51 -33 -119l-137 -290h-117z" />
<glyph unicode="&#x2022;" horiz-adv-x="819" d="M156 700.5q0 108.5 72.5 180t181 71.5t181.5 -72.5t73 -181t-73 -180.5t-181.5 -72t-181 73t-72.5 181.5z" />
<glyph unicode="&#x2026;" horiz-adv-x="1626" d="M129 118.5q0 59.5 41 100.5t100 41q61 0 102.5 -41t41.5 -100.5t-41 -101.5t-103 -42q-59 0 -100 42t-41 101.5zM670 118.5q0 59.5 42 100.5t101 41t100 -41t41 -100.5t-41 -101.5t-100 -42t-101 42t-42 101.5zM1212 118.5q0 59.5 41 100.5t101 41q61 0 102 -41 t41 -100.5t-41 -101.5t-102 -42q-59 0 -100.5 42t-41.5 101.5z" />
<glyph unicode="&#x202f;" horiz-adv-x="387" />
<glyph unicode="&#x2039;" horiz-adv-x="696" d="M113 532v134l358 430l113 -72l-273 -424l273 -424l-113 -72z" />
<glyph unicode="&#x203a;" horiz-adv-x="704" d="M113 176l272 424l-272 424l112 72l359 -430v-134l-359 -428z" />
<glyph unicode="&#x205f;" horiz-adv-x="483" />
<glyph unicode="&#x20ac;" horiz-adv-x="1150" d="M55 473l31 125h143v184h-174l31 127h162q43 233 176 357.5t328 124.5q193 0 333 -95l-90 -131q-109 70 -231 70q-129 0 -210 -77t-112 -249h492l-31 -127h-473v-184h434l-28 -125h-396q25 -178 103 -259t217 -81q164 0 287 103v-187q-129 -74 -295 -74q-211 0 -341 127 t-169 371h-187z" />
<glyph unicode="&#x2122;" horiz-adv-x="1843" d="M72 1280v131h690l-25 -131h-248v-670h-157v670h-260zM815 610l33 801h215l182 -543h8l166 543h221l31 -801h-153l-19 432q-2 35 -2 109q0 39 4 104h-8l-176 -561h-137l-195 561h-8q4 -66 4 -104q0 -74 -2 -109l-16 -432h-148z" />
<glyph unicode="&#x25fc;" horiz-adv-x="1075" d="M0 0v1075h1075v-1075h-1075z" />
<glyph unicode="&#xfb01;" horiz-adv-x="1198" d="M43 934v145h172v142q0 143 92 229t281 86q158 0 299 -74l-66 -131q-106 51 -225 51q-111 0 -152 -38.5t-41 -120.5v-144h603v-1079h-187v934h-416v-934h-188v934h-172z" />
<glyph unicode="&#xfb02;" horiz-adv-x="1220" d="M43 934v145h172v142q0 143 93 229t284 86q111 0 231 -39l181 35v-1315q0 -86 69 -86q31 0 70 14l47 -133q-74 -37 -154 -37q-96 0 -157.5 59.5t-61.5 178.5v1135q-98 35 -217 34q-111 0 -154 -38.5t-43 -120.5v-144h248l-22 -145h-226v-934h-188v934h-172z" />
</font>
</defs>
</svg>
